<svg xmlns="http://www.w3.org/2000/svg" width="18" height="18" viewBox="0 0 18 18">
  <g id="_10Web_Logo_Dark" data-name="10Web Logo_Dark" transform="translate(-7.698 -7.702)">
    <g id="Group_171838" data-name="Group 171838" transform="translate(7.698 7.702)">
      <path id="Union_645" data-name="Union 645" d="M8.773,17.885.115,9.178a.4.4,0,0,1,0-.561,1.824,1.824,0,0,1,2.582,0l6.025,6.059a.4.4,0,0,0,.559,0l3.392-3.409a1.824,1.824,0,0,1,2.582,0,.421.421,0,0,1,.051.607L9.328,17.885A.388.388,0,0,1,9.052,18,.4.4,0,0,1,8.773,17.885Zm-.457-5.6a1.082,1.082,0,0,1,0-1.579L9.682,9.331a.4.4,0,0,0-.047-.51L8.163,7.344a1.185,1.185,0,0,1,0-1.579l.051-.05a1.066,1.066,0,0,1,1.57,0l3.038,3.057a.4.4,0,0,1,0,.558L9.887,12.284a1.066,1.066,0,0,1-1.57,0ZM5.735,9.74a1.177,1.177,0,0,1,0-1.579,1.066,1.066,0,0,1,1.57,0l.507.508a.4.4,0,0,1,0,.558l-.507.513a1.072,1.072,0,0,1-1.57,0Zm9.52-.308L9.178,3.323a.393.393,0,0,0-.559,0L5.227,6.733a1.824,1.824,0,0,1-2.582,0,.647.647,0,0,1,.1-.611L8.722.114a.4.4,0,0,1,.559,0l8.607,8.707a.4.4,0,0,1,0,.558l-.051.053a1.824,1.824,0,0,1-2.582,0Z" transform="translate(0 0)" fill="#0c0d0e"/>
    </g>
  </g>
</svg>
