<svg xmlns="http://www.w3.org/2000/svg" width="15.998" height="16" viewBox="0 0 15.998 16">
  <g id="Layer_2" data-name="Layer 2" transform="translate(0.5 0.5)">
    <g id="Layer_1" data-name="Layer 1" transform="translate(0 0)">
      <path id="Path_171728" data-name="Path 171728" d="M9.749,48.112A6.941,6.941,0,0,0,5.3,52.559a.324.324,0,0,1-.615,0A6.9,6.9,0,0,0,3,49.8,6.909,6.909,0,0,0,.242,48.114a.323.323,0,0,1,0-.615A6.9,6.9,0,0,0,3,45.81a6.885,6.885,0,0,0,1.688-2.757.324.324,0,0,1,.615,0A6.918,6.918,0,0,0,9.746,47.5a.324.324,0,0,1,0,.613Z" transform="translate(-0.017 -37.782)" fill="#2160b5" stroke="rgba(0,0,0,0)" stroke-miterlimit="10" stroke-width="1"/>
      <path id="Path_171729" data-name="Path 171729" d="M91.9,3.05a4.1,4.1,0,0,0-2.626,2.626.188.188,0,0,1-.363,0A4.111,4.111,0,0,0,86.288,3.05a.188.188,0,0,1,0-.364,4.069,4.069,0,0,0,1.628-1A4.084,4.084,0,0,0,88.91.056a.188.188,0,0,1,.363,0,4.1,4.1,0,0,0,1,1.63,4.072,4.072,0,0,0,1.631,1,.188.188,0,0,1,0,.364Z" transform="translate(-77.049 0.084)" fill="#fff" stroke="rgba(0,0,0,0)" stroke-miterlimit="10" stroke-width="1"/>
      <path id="Path_171730" data-name="Path 171730" d="M58.056,48.085a6.941,6.941,0,0,0-4.447,4.447.317.317,0,0,1-.281.222c0-.024-.008-9.859,0-9.954a.317.317,0,0,1,.281.221,6.918,6.918,0,0,0,4.444,4.445.324.324,0,0,1,0,.618Z" transform="translate(-48.349 -37.755)" fill="#fff" opacity="0.2"/>
      <path id="Path_171731" data-name="Path 171731" d="M120.408,3.126a4.1,4.1,0,0,0-2.626,2.626.188.188,0,0,1-.181.132V0a.188.188,0,0,1,.181.132,4.1,4.1,0,0,0,1,1.63,4.072,4.072,0,0,0,1.631,1,.188.188,0,0,1,0,.364Z" transform="translate(-105.552 0.008)" fill="#2a2f30" opacity="0.2"/>
    </g>
  </g>
</svg>
