<svg xmlns="http://www.w3.org/2000/svg" width="18" height="18.004" viewBox="0 0 18 18.004">
  <g id="Group_174527" data-name="Group 174527" transform="translate(-568 -552)">
    <path id="Path_171728" data-name="Path 171728" d="M11.7,49.169A8.331,8.331,0,0,0,6.36,54.507a.388.388,0,0,1-.739,0A8.279,8.279,0,0,0,3.6,51.2,8.293,8.293,0,0,0,.287,49.172a.387.387,0,0,1,0-.739A8.283,8.283,0,0,0,3.6,46.406,8.264,8.264,0,0,0,5.622,43.1a.388.388,0,0,1,.739,0,8.3,8.3,0,0,0,5.334,5.335.388.388,0,0,1,0,.736Z" transform="translate(567.983 515.229)" fill="#fff"/>
    <path id="Path_171729" data-name="Path 171729" d="M93.057,3.678A4.924,4.924,0,0,0,89.9,6.83a.225.225,0,0,1-.436,0,4.935,4.935,0,0,0-3.152-3.152.225.225,0,0,1,0-.437,4.884,4.884,0,0,0,1.954-1.2A4.9,4.9,0,0,0,89.463.084a.225.225,0,0,1,.436,0,4.924,4.924,0,0,0,1.2,1.957,4.887,4.887,0,0,0,1.958,1.2.225.225,0,0,1,0,.437Z" transform="translate(492.773 552.084)" fill="#fff"/>
  </g>
</svg>
