<svg width="8" height="8" viewBox="0 0 8 8" fill="none" xmlns="http://www.w3.org/2000/svg">
<g clip-path="url(#clip0_2601_3002)">
<path d="M4.99843 3.30446C4.85521 3.30446 4.7836 3.1988 4.7836 3.05791V1.78988C4.7836 1.3672 4.42555 0.979755 4.03168 0.979755C3.63782 0.979755 3.27977 1.33198 3.27977 1.78988V3.05791C3.27977 3.1988 3.17235 3.30446 3.06493 3.30446C2.95751 3.30446 2.8501 3.1988 2.8501 3.05791V1.78988C2.8501 1.08542 3.38718 0.521851 4.06749 0.521851C4.7478 0.521851 5.28488 1.08542 5.28488 1.78988V3.05791C5.24907 3.23402 5.14166 3.30446 4.99843 3.30446Z" fill="white"/>
<path d="M6.80517 2.125H5.21648V3.06413C5.21648 3.20327 5.11056 3.30761 5.00465 3.30761C4.89874 3.30761 4.79283 3.20327 4.79283 3.06413V2.125H3.27474V3.06413C3.27474 3.20327 3.16883 3.30761 3.06292 3.30761C2.95701 3.30761 2.85109 3.20327 2.85109 3.06413V2.125H1.2271L0.874059 6.15978C0.838755 6.50761 0.979971 6.85543 1.1918 7.09891C1.43893 7.34239 1.75666 7.48152 2.10971 7.48152H5.88726C6.2403 7.48152 6.55804 7.34239 6.80517 7.09891C7.05229 6.85543 7.15821 6.50761 7.1229 6.15978L6.80517 2.125Z" fill="white"/>
</g>
<defs>
<clipPath id="clip0_2601_3002">
<rect width="8" height="8" fill="white"/>
</clipPath>
</defs>
</svg>
