<svg width="8" height="6" viewBox="0 0 8 6" fill="none" xmlns="http://www.w3.org/2000/svg">
<path d="M7.06447 0.650397C6.87367 0.471515 6.56957 0.480459 6.39068 0.671266L3.00683 4.28468L1.62348 2.67176C1.45354 2.47201 1.15242 2.44816 0.949691 2.62108C0.74994 2.794 0.726089 3.09512 0.899008 3.29487L2.6282 5.31325C2.6282 5.31325 2.64013 5.3222 2.64609 5.32816C2.65205 5.33412 2.65801 5.34307 2.66398 5.34903C2.66696 5.35201 2.67292 5.35499 2.6759 5.35797C2.71764 5.39375 2.76236 5.42356 2.81006 5.44145C2.81901 5.44443 2.82497 5.44741 2.83391 5.4504C2.8846 5.46828 2.93528 5.48021 2.98895 5.48021C3.03963 5.48021 3.08733 5.47127 3.13503 5.45338C3.14398 5.45338 3.14994 5.4504 3.15888 5.44741C3.2036 5.42953 3.24832 5.40568 3.28708 5.37288C3.29006 5.3699 3.29603 5.3699 3.29901 5.36692C3.30497 5.36096 3.31093 5.35201 3.3169 5.34605C3.32286 5.34009 3.32882 5.3371 3.33478 5.33114L7.08236 1.32717C7.26124 1.13338 7.2523 0.83226 7.06149 0.653378L7.06447 0.650397Z" fill="black"/>
</svg>
