<svg width="16" height="16" viewBox="0 0 16 16" fill="none" xmlns="http://www.w3.org/2000/svg">
<path d="M8 0C6.41775 0 4.87103 0.469192 3.55544 1.34824C2.23985 2.22729 1.21447 3.47672 0.608967 4.93853C0.0034662 6.40034 -0.15496 8.00887 0.153721 9.56072C0.462403 11.1126 1.22433 12.538 2.34315 13.6569C3.46197 14.7757 4.88743 15.5376 6.43928 15.8463C7.99113 16.155 9.59966 15.9965 11.0615 15.391C12.5233 14.7855 13.7727 13.7602 14.6518 12.4446C15.5308 11.129 16 9.58225 16 8C16 5.87827 15.1571 3.84344 13.6569 2.34315C12.1566 0.842855 10.1217 0 8 0ZM10.9698 10.2329C11.065 10.3318 11.1181 10.4637 11.1181 10.6009C11.1181 10.7381 11.065 10.87 10.9698 10.9689C10.9215 11.0172 10.8641 11.0555 10.8009 11.0816C10.7378 11.1077 10.6701 11.1211 10.6018 11.1211C10.5333 11.1225 10.4652 11.1097 10.4019 11.0835C10.3385 11.0573 10.2813 11.0183 10.2338 10.9689L8 8.74046L5.768 10.9689C5.72049 11.0183 5.66326 11.0573 5.59992 11.0835C5.53658 11.1097 5.46851 11.1225 5.39998 11.1211C5.33165 11.1211 5.26398 11.1077 5.20083 11.0816C5.13769 11.0555 5.0803 11.0172 5.03196 10.9689C4.93681 10.87 4.88367 10.7381 4.88367 10.6009C4.88367 10.4637 4.93681 10.3318 5.03196 10.2329L7.26396 8.00088L5.03196 5.77596C4.93681 5.67707 4.88367 5.54517 4.88367 5.40794C4.88367 5.27071 4.93681 5.13881 5.03196 5.03992C5.07972 4.99059 5.13691 4.95136 5.20013 4.92457C5.26335 4.89778 5.33132 4.88397 5.39998 4.88397C5.46864 4.88397 5.53661 4.89778 5.59983 4.92457C5.66305 4.95136 5.72024 4.99059 5.768 5.03992L8 7.26396L10.232 5.03992C10.2798 4.99059 10.337 4.95136 10.4002 4.92457C10.4634 4.89778 10.5314 4.88397 10.6 4.88397C10.6687 4.88397 10.7366 4.89778 10.7999 4.92457C10.8631 4.95136 10.9203 4.99059 10.968 5.03992C11.0632 5.13881 11.1163 5.27071 11.1163 5.40794C11.1163 5.54517 11.0632 5.67707 10.968 5.77596L8.73604 8L10.9698 10.2329Z" fill="black"/>
</svg>
