<svg width="14" height="14" viewBox="0 0 14 14" fill="none" xmlns="http://www.w3.org/2000/svg">
<g clip-path="url(#clip0_415_1880)">
<path d="M11.4548 10.0025L8.45264 7.00037L11.4548 3.99824C11.8421 3.61086 11.8421 2.93297 11.4548 2.54559C11.0674 2.15822 10.3895 2.15822 10.0021 2.54559L7 5.54772L3.99787 2.54559C3.6105 2.15822 2.9326 2.15822 2.54523 2.54559C2.15786 2.93296 2.15786 3.61086 2.54523 3.99824L5.54736 7.00036L2.54523 10.0025C2.15786 10.3899 2.15786 11.0678 2.54523 11.4551C2.9326 11.8425 3.6105 11.8425 3.99787 11.4551L7 8.45301L10.0021 11.4551C10.3895 11.8425 11.0674 11.8425 11.4548 11.4551C11.8421 11.0678 11.8906 10.4383 11.4548 10.0025Z" fill="white"/>
</g>
<defs>
<clipPath id="clip0_415_1880">
<rect width="14" height="14" fill="white"/>
</clipPath>
</defs>
</svg>
