<svg xmlns="http://www.w3.org/2000/svg" width="24" height="24" viewBox="0 0 24 24">
  <g id="Layer_1" data-name="Layer 1" opacity="0.2">
    <rect id="Rectangle_53688" data-name="Rectangle 53688" width="24" height="24" fill="none"/>
    <g id="Layer_2" data-name="Layer 2" transform="translate(1.6 1.6)">
      <g id="Layer_1-2" data-name="Layer 1">
        <path id="Path_171943" data-name="Path 171943" d="M10.543,1.52a9.043,9.043,0,1,0,9.043,9.043A9.043,9.043,0,0,0,10.543,1.52ZM13.9,13.087a.6.6,0,0,1,0,.832.588.588,0,0,1-.416.172.561.561,0,0,1-.416-.172L10.543,11.4,8.02,13.919a.561.561,0,0,1-.416.172.588.588,0,0,1-.416-.172.6.6,0,0,1,0-.832l2.523-2.523L7.188,8.049a.6.6,0,0,1,0-.832.579.579,0,0,1,.832,0l2.523,2.514,2.523-2.514a.579.579,0,0,1,.832,0,.6.6,0,0,1,0,.832l-2.523,2.514Z" transform="translate(-0.143 -0.145)" fill="#fff"/>
        <rect id="Rectangle_53685" data-name="Rectangle 53685" width="20.8" height="20.8" fill="none"/>
      </g>
    </g>
  </g>
</svg>
