<svg width="16" height="15" viewBox="0 0 16 15" fill="none" xmlns="http://www.w3.org/2000/svg">
<g clip-path="url(#clip0_426_1873)">
<path d="M2.99015 11.5052H1.67074C1.32867 11.5052 1.01452 11.3377 0.826034 11.0654C0.623584 10.7513 0.59566 10.3883 0.742261 10.0741L3.96051 2.25539C4.12806 1.86445 4.49805 1.62012 4.90295 1.62012H6.45274C6.87858 1.62012 7.24858 1.87143 7.40216 2.25539L9.00779 6.14382L8.86119 6.36023C8.43535 7.00249 8.09328 7.58889 7.84196 8.09851C7.63951 8.45454 7.50687 8.81057 7.43008 9.19453C7.40216 9.31321 7.38122 9.40396 7.37423 9.50169L7.35329 9.96942H4.30258L3.93259 10.87C3.79297 11.2539 3.41599 11.5052 2.99015 11.5052ZM4.90993 2.60444L1.64281 10.4721H3.01109L3.64637 8.99208H6.47368C6.57142 8.52435 6.73896 8.0636 6.97632 7.65172C7.19971 7.19097 7.51385 6.64645 7.89781 6.04609L6.49463 2.62538L6.48764 2.61142C6.48764 2.61142 6.47368 2.60444 6.45972 2.60444H4.90993Z" fill="#FBFBFB"/>
<path d="M5.71271 5.34961L4.80518 7.54165H6.61326L5.71271 5.34961Z" fill="#FBFBFB"/>
<path d="M11.5649 5.52302C12.2351 6.39565 13.1845 7.71507 13.736 8.85995L13.7499 8.89486L13.7709 8.92976C13.9175 9.18108 14.0152 9.45334 14.0711 9.73258L14.0781 9.75352L14.085 9.77447C14.1339 9.9839 14.1269 10.0886 14.1269 10.1165L14.1199 10.1654V10.2143C14.1199 11.6244 12.9751 12.7693 11.5649 12.7693C10.1547 12.7693 9.00983 11.6244 9.00983 10.2143V10.1584L9.00285 10.1026C9.00285 10.0747 8.99587 9.97692 9.04474 9.76749L9.05172 9.74654L9.0587 9.7256C9.11455 9.43938 9.21228 9.1741 9.35888 8.92278L9.37983 8.88788L9.39379 8.85297C9.94529 7.71507 10.9017 6.38867 11.5649 5.52302ZM11.5649 3.94531C11.5649 3.94531 9.48454 6.4166 8.5072 8.43411C8.31173 8.77618 8.16513 9.14618 8.08834 9.54409C8.03249 9.78843 8.00457 10.0188 8.02551 10.2143C8.02551 12.169 9.6102 13.7537 11.5649 13.7537C13.5196 13.7537 15.1043 12.169 15.1043 10.2143C15.1252 10.0188 15.0973 9.78843 15.0414 9.54409C14.9646 9.14618 14.818 8.7692 14.6226 8.43411C13.6522 6.40961 11.5649 3.94531 11.5649 3.94531Z" fill="#FBFBFB"/>
</g>
<defs>
<clipPath id="clip0_426_1873">
<rect width="14.7" height="14.7" fill="white" transform="translate(0.649902 0.150391)"/>
</clipPath>
</defs>
</svg>
