<svg xmlns="http://www.w3.org/2000/svg" width="30" height="30" viewBox="0 0 30 30">
  <g id="Themes_Website_preview_-01" data-name="Themes (Website preview)-01" transform="translate(0 -0.347)">
    <g id="Group_172049" data-name="Group 172049" transform="translate(2.5 4.748)">
      <g id="Group_172047" data-name="Group 172047">
        <path id="Path_172211" data-name="Path 172211" d="M12.43,3.432a.994.994,0,0,0-.948-.632H8.491a1.043,1.043,0,0,0-.948.632L1.306,18.593a1,1,0,0,0,.085.973A1.027,1.027,0,0,0,2.242,20H4.783a.994.994,0,0,0,.948-.632l.96-2.334h5.629a4.15,4.15,0,0,1,.122-.729,8.034,8.034,0,0,1,.875-2.346,31.717,31.717,0,0,1,2.03-3.465ZM8.248,13.28,9.986,9.073l1.739,4.207Z" transform="translate(-1.217 -2.8)" fill="#fff"/>
      </g>
      <g id="Group_172048" data-name="Group 172048" transform="translate(12.648 4.073)">
        <path id="Path_172212" data-name="Path 172212" d="M23.121,13.967A46.633,46.633,0,0,0,17.8,6.15a47.431,47.431,0,0,0-5.325,7.817,6.291,6.291,0,0,0-.729,1.933,3.668,3.668,0,0,0-.109,1.167,6.164,6.164,0,1,0,12.328,0,3.668,3.668,0,0,0-.109-1.167A6.411,6.411,0,0,0,23.121,13.967Z" transform="translate(-11.62 -6.15)" fill="#fff"/>
      </g>
    </g>
    <rect id="Rectangle_54301" data-name="Rectangle 54301" width="30" height="30" transform="translate(0 0.347)" fill="none"/>
  </g>
</svg>
