<svg id="Layer_2" data-name="Layer 2" xmlns="http://www.w3.org/2000/svg" width="24" height="24" viewBox="0 0 24 24">
  <g id="Layer_1" data-name="Layer 1">
    <path id="Union_718" data-name="Union 718" d="M9016.24-5554.857v-1.3h2.329l.645-2.865h-3.654a3.563,3.563,0,0,1-3.561-3.559v-7.86a3.566,3.566,0,0,1,3.561-3.561h12.462a3.566,3.566,0,0,1,3.562,3.561v7.86a3.564,3.564,0,0,1-3.562,3.559h-3.651l.645,2.865h2.327v1.3Zm3.66-1.3h3.78l-.644-2.865h-2.49Zm8.121-4.164a2.263,2.263,0,0,0,2.26-2.26v-7.86a2.261,2.261,0,0,0-2.26-2.26H9015.56a2.263,2.263,0,0,0-2.26,2.26v7.86a2.264,2.264,0,0,0,2.26,2.26h3.946l0-.011h4.567l0,.011Z" transform="translate(-9009.791 5576.428)" fill="#fff"/>
    <rect id="Rectangle_53698" data-name="Rectangle 53698" width="24" height="24" fill="none"/>
  </g>
</svg>
