<svg xmlns="http://www.w3.org/2000/svg" xmlns:xlink="http://www.w3.org/1999/xlink" width="20" height="20" viewBox="0 0 20 20">
  <defs>
    <clipPath id="clip-path">
      <rect id="Rectangle_47779" data-name="Rectangle 47779" width="20" height="20" fill="#fff"/>
    </clipPath>
  </defs>
  <g id="Domain_Icon" opacity="0.5">
    <g id="Domain_Icon-2" data-name="Domain_Icon" clip-path="url(#clip-path)">
      <path id="Union_643" data-name="Union 643" d="M6.667,13.334H6.344a.348.348,0,0,1-.243-.122A7.411,7.411,0,0,1,4.97,11.179c-.081-.2-.162-.406-.243-.651H8.606c-.081.2-.162.448-.242.651a7.385,7.385,0,0,1-1.132,2.033.242.242,0,0,1-.242.122ZM9.5,11.626a5.921,5.921,0,0,0,.323-.894l.04-.2h2.223a5.035,5.035,0,0,1-.727.9,6.575,6.575,0,0,1-2.505,1.585A14.517,14.517,0,0,0,9.5,11.626Zm-7.556-.2a5.036,5.036,0,0,1-.728-.9H3.435l.08.2c.121.324.2.61.324.894a14.122,14.122,0,0,0,.606,1.382A6.568,6.568,0,0,1,1.94,11.423Zm8.2-2.113c.081-.651.161-1.343.2-2.034h2.99a7.149,7.149,0,0,1-.525,2.034Zm-5.7,0A16.44,16.44,0,0,1,4.2,7.275h4.97A16.616,16.616,0,0,1,8.93,9.309Zm-3.879,0A6.868,6.868,0,0,1,.04,7.275H2.99a8.48,8.48,0,0,0,.243,2.034Zm9.778-3.252a11.225,11.225,0,0,0-.2-2.032h2.666a5.962,5.962,0,0,1,.485,2.032Zm-6.142,0a16.368,16.368,0,0,1,.243-2.032H8.89a11.244,11.244,0,0,1,.282,2.032Zm-4.2,0A7.185,7.185,0,0,1,.525,4.024H3.152a16.423,16.423,0,0,0-.2,2.032ZM4.647,2.805c.08-.2.161-.448.242-.651A7.422,7.422,0,0,1,6.02.122.365.365,0,0,1,6.3,0H6.95a.362.362,0,0,1,.282.122A7.4,7.4,0,0,1,8.364,2.154a1.731,1.731,0,0,1,.161.651ZM9.9,2.8l-.04-.2c-.121-.326-.2-.61-.323-.894A11.051,11.051,0,0,0,8.89.325,6.578,6.578,0,0,1,11.395,1.91c.242.285.485.569.767.893Zm-8.687,0A5.1,5.1,0,0,1,1.94,1.91,6.569,6.569,0,0,1,4.445.325,14.474,14.474,0,0,0,3.8,1.707a5.719,5.719,0,0,0-.323.894l-.04.2Z" transform="translate(3.333 3.333)" fill="#fff"/>
    </g>
  </g>
</svg>
