<svg xmlns="http://www.w3.org/2000/svg" xmlns:xlink="http://www.w3.org/1999/xlink" width="14" height="14" viewBox="0 0 14 14">
  <defs>
    <clipPath id="clip-path">
      <rect id="Rectangle_47808" data-name="Rectangle 47808" width="14" height="14" fill="#0c0d0e"/>
    </clipPath>
  </defs>
  <g id="Dropdown_Icon" transform="translate(14) rotate(90)">
    <g id="DropDown_Icon-2" data-name="DropDown_Icon" clip-path="url(#clip-path)">
      <path id="Path_169927" data-name="Path 169927" d="M2.939.282.313,2.944A1.018,1.018,0,0,0,.214,4.3a1,1,0,0,0,1.462.075L3.434,2.592a.3.3,0,0,1,.4,0L5.565,4.35a.985.985,0,0,0,1.338.1,1.027,1.027,0,0,0,.074-1.481L4.326.282A.993.993,0,0,0,2.939.282Z" transform="translate(9.333 3.372) rotate(90)" fill="#0c0d0e"/>
    </g>
  </g>
</svg>
