<svg id="Layer_1" data-name="Layer 1" xmlns="http://www.w3.org/2000/svg" width="30" height="30" viewBox="0 0 30 30">
  <path id="Path_171949" data-name="Path 171949" d="M21.7,3.855c-.177-.189-.355-.377-.543-.543a3.923,3.923,0,0,0-5.442.133L4.475,14.688l-2.161,6.83a.931.931,0,0,0,1.108,1.164l6.85-2.14L21.566,9.3A3.938,3.938,0,0,0,21.7,3.855ZM4.63,18.957l.909-2.872a6.829,6.829,0,0,1,3.469,3.327l-2.959.92ZM20.148,4.376a5.543,5.543,0,0,1,.443.444,2.507,2.507,0,0,1-.089,3.46l-.432.432L16.29,4.9l.443-.432a2.493,2.493,0,0,1,3.458-.089Z" transform="translate(2.498 2.507)" fill="#fff"/>
  <rect id="Rectangle_53688" data-name="Rectangle 53688" width="30" height="30" fill="none"/>
</svg>
