<svg xmlns="http://www.w3.org/2000/svg" width="82.493" height="12" viewBox="0 0 82.493 12">
  <g id="Group_173769" data-name="Group 173769" transform="translate(-120 -378)">
    <path id="path58" d="M1.676,17.318,8.358,6.7h4.148V8.181L6.745,17.318" transform="translate(118.324 371.296)" fill="#fbbc04"/>
    <path id="path64" d="M22.024,17.318H17.877V6.7h4.148Z" transform="translate(108.806 371.296)" fill="#1a73e8"/>
    <path id="path70" d="M30.928,20.877a3,3,0,0,1-3,3v-6A3,3,0,0,1,30.928,20.877Z" transform="translate(102.897 364.738)" fill="#34a853"/>
    <path id="path76" d="M23.666,23.876a3,3,0,0,1,0-6Z" transform="translate(107.163 364.738)" fill="#0d652d"/>
    <path id="path82" d="M30.237,9.011a2.306,2.306,0,0,1-2.3,2.308V6.7A2.306,2.306,0,0,1,30.237,9.011Z" transform="translate(102.897 371.296)" fill="#1a73e8"/>
    <path id="path88" d="M24.65,11.319a2.308,2.308,0,0,1,0-4.615Z" transform="translate(106.179 371.296)" fill="#174ea6"/>
    <path id="path94" d="M2.235,8.781a2.074,2.074,0,1,1,2.074,2.077A2.075,2.075,0,0,1,2.235,8.781Z" transform="translate(117.996 371.296)" fill="#ea4335"/>
    <path id="path32" d="M55.768,17.531a4.363,4.363,0,0,1-4.372-4.3,4.363,4.363,0,0,1,4.372-4.3,4.114,4.114,0,0,1,2.954,1.184l-.831.827a3.006,3.006,0,0,0-2.123-.838,3.123,3.123,0,0,0,0,6.246,2.891,2.891,0,0,0,2.176-.859,2.444,2.444,0,0,0,.641-1.478H55.768V12.847h3.963a3.831,3.831,0,0,1,.063.734,3.872,3.872,0,0,1-1.02,2.745,3.946,3.946,0,0,1-3.006,1.2Z" transform="translate(89.112 369.984)" fill="#5f6368"/>
    <path id="path36" d="M78.824,19.112a2.735,2.735,0,1,1-2.736-2.766A2.713,2.713,0,0,1,78.824,19.112Zm-1.2,0a1.544,1.544,0,1,0-1.538,1.677A1.584,1.584,0,0,0,77.627,19.112Z" transform="translate(76.211 365.637)" fill="#5f6368"/>
    <path id="path40" d="M93.688,19.112a2.735,2.735,0,1,1-2.736-2.766A2.713,2.713,0,0,1,93.688,19.112Zm-1.2,0a1.544,1.544,0,1,0-1.538,1.677A1.584,1.584,0,0,0,92.491,19.112Z" transform="translate(67.479 365.637)" fill="#5f6368"/>
    <path id="path44" d="M108.395,16.514v4.967c0,2.044-1.208,2.882-2.638,2.882a2.644,2.644,0,0,1-2.459-1.635l1.061-.44a1.535,1.535,0,0,0,1.4.985,1.418,1.418,0,0,0,1.482-1.624v-.4H107.2a1.894,1.894,0,0,1-1.461.629,2.768,2.768,0,0,1,0-5.533,1.926,1.926,0,0,1,1.461.618h.042v-.451h1.156Zm-1.072,2.609a1.561,1.561,0,0,0-1.482-1.687,1.682,1.682,0,0,0,0,3.353A1.548,1.548,0,0,0,107.323,19.123Z" transform="translate(58.748 365.637)" fill="#5f6368"/>
    <path id="path48" d="M119.415,17.78H118.2V9.649h1.219Z" transform="translate(49.866 369.568)" fill="#5f6368"/>
    <path id="path52" d="M126.958,20.024l.946.629a2.76,2.76,0,0,1-2.312,1.226,2.679,2.679,0,0,1-2.715-2.765,2.544,2.544,0,0,1,4.954-1.007l.126.314-3.71,1.53a1.412,1.412,0,0,0,1.345.839A1.585,1.585,0,0,0,126.958,20.024Zm-2.911-1L126.528,18a1.076,1.076,0,0,0-1.03-.587A1.52,1.52,0,0,0,124.047,19.029Z" transform="translate(47.114 365.636)" fill="#5f6368"/>
    <path id="path10" d="M143.991,15.277v3.259h-.975v-7.6h4.431v.934h-3.456v2.494h3.117v.913h-3.117Z" transform="translate(35.282 368.812)" fill="#5f6368"/>
    <path id="path14" d="M154.829,19.1a2.754,2.754,0,0,1,.753-1.985,2.563,2.563,0,0,1,1.919-.785,2.528,2.528,0,0,1,1.908.785,2.963,2.963,0,0,1,0,3.97,2.528,2.528,0,0,1-1.908.785,2.563,2.563,0,0,1-1.919-.785A2.754,2.754,0,0,1,154.829,19.1Zm.975,0a1.906,1.906,0,0,0,.488,1.358,1.664,1.664,0,0,0,2.417,0,2.121,2.121,0,0,0,0-2.706,1.641,1.641,0,0,0-2.417,0A1.892,1.892,0,0,0,155.8,19.1Z" transform="translate(28.343 365.645)" fill="#5f6368"/>
    <path id="path18" d="M169.79,16.5h.933v.721h.042a1.738,1.738,0,0,1,.684-.636,1.952,1.952,0,0,1,.959-.255,1.915,1.915,0,0,1,1.467.546,2.183,2.183,0,0,1,.514,1.555V21.7h-.975V18.5a1.147,1.147,0,0,0-1.283-1.274,1.218,1.218,0,0,0-.975.473,1.712,1.712,0,0,0-.392,1.13V21.7h-.975Z" transform="translate(19.552 365.645)" fill="#5f6368"/>
    <path id="path22" d="M184.806,19.767a1.48,1.48,0,0,1-1.055-.393,1.458,1.458,0,0,1-.43-1.093V15.373h-.911v-.891h.911V12.889h.976v1.593h1.272v.891H184.3v2.59a.95.95,0,0,0,.2.706.652.652,0,0,0,.455.185.987.987,0,0,0,.228-.026,1.134,1.134,0,0,0,.207-.07l.307.87A2.621,2.621,0,0,1,184.806,19.767Z" transform="translate(12.137 367.666)" fill="#5f6368"/>
    <path id="path26" d="M195.53,20.26a1.411,1.411,0,0,1-.594,1.146,2.346,2.346,0,0,1-1.495.467,2.372,2.372,0,0,1-1.378-.409,2.248,2.248,0,0,1-.848-1.077l.869-.372a1.619,1.619,0,0,0,.557.727,1.355,1.355,0,0,0,.8.26,1.405,1.405,0,0,0,.779-.2.572.572,0,0,0,.312-.478q0-.5-.763-.732l-.891-.223q-1.516-.382-1.516-1.465a1.352,1.352,0,0,1,.577-1.141,2.646,2.646,0,0,1,2.725-.1,1.784,1.784,0,0,1,.778.881l-.869.361a1.1,1.1,0,0,0-.482-.515,1.52,1.52,0,0,0-.748-.186,1.253,1.253,0,0,0-.684.191.55.55,0,0,0-.3.467q0,.446.837.637l.785.2Q195.53,19.082,195.53,20.26Z" transform="translate(6.963 365.645)" fill="#5f6368"/>
  </g>
</svg>
