<svg width="24" height="26" viewBox="0 0 24 26" fill="none" xmlns="http://www.w3.org/2000/svg">
<mask id="mask0_729_3841" style="mask-type:alpha" maskUnits="userSpaceOnUse" x="0" y="0" width="24" height="26">
<path d="M12 0C5.37475 0 0 5.42272 0 12.0801C0 15.5903 1.49098 18.7616 3.87174 20.9646L4.01603 26L8.75351 23.7123C9.78758 24.0028 10.8818 24.1601 12 24.1601C18.6132 24.1601 24 18.7495 24 12.0801C24 5.41061 18.6132 0 12 0ZM16.7255 11.6322L14.8737 13.4479L15.3066 16.014C15.3547 16.2803 15.2465 16.5466 15.0301 16.716C14.8016 16.8734 14.525 16.8976 14.2846 16.7644L12 15.554L9.70341 16.7644C9.60721 16.825 9.48697 16.8492 9.37876 16.8492C9.23447 16.8492 9.09018 16.8007 8.95792 16.716C8.74148 16.5466 8.63327 16.2803 8.68136 16.014L9.11423 13.4479L7.26253 11.6322C7.07014 11.4507 7.01002 11.1601 7.09419 10.906C7.17836 10.6518 7.39479 10.4581 7.65932 10.4218L10.2204 10.0466L11.3627 7.71043C11.483 7.46834 11.7234 7.32309 12 7.32309C12.2766 7.32309 12.505 7.46834 12.6253 7.71043L13.7675 10.0466L16.3287 10.4218C16.5932 10.4581 16.8216 10.6518 16.9058 10.906C16.99 11.1601 16.9058 11.4507 16.7255 11.6322Z" fill="white"/>
</mask>
<g mask="url(#mask0_729_3841)">
<rect x="-3" y="-2" width="30" height="30" fill="white"/>
</g>
</svg>
