<svg id="Layer_1" data-name="Layer 1" xmlns="http://www.w3.org/2000/svg" width="14" height="13.996" viewBox="0 0 14 13.996">
  <path id="Path_1" data-name="Path 1" d="M9.762,48.119a6.951,6.951,0,0,0-4.453,4.453.324.324,0,0,1-.616,0A6.907,6.907,0,0,0,3,49.811a6.919,6.919,0,0,0-2.76-1.691.323.323,0,0,1,0-.616A6.91,6.91,0,0,0,3,45.814a6.894,6.894,0,0,0,1.691-2.761.324.324,0,0,1,.616,0A6.927,6.927,0,0,0,9.759,47.5a.324.324,0,0,1,0,.614Z" transform="translate(-0.017 -38.799)" fill="#2160b5"/>
  <path id="Path_3" data-name="Path 3" d="M58.063,48.092a6.951,6.951,0,0,0-4.453,4.453.317.317,0,0,1-.282.223c0-.024-.008-9.872,0-9.967a.317.317,0,0,1,.282.222,6.927,6.927,0,0,0,4.45,4.451.324.324,0,0,1,0,.619Z" transform="translate(-48.317 -38.772)" fill="#fff" opacity="0.2"/>
  <g id="Group_106532" data-name="Group 106532" transform="translate(8.934 0)">
    <path id="Path_2" data-name="Path 2" d="M86.268,2.606A3.521,3.521,0,0,1,88.522,4.86a.161.161,0,0,0,.312,0,3.529,3.529,0,0,1,2.254-2.254.161.161,0,0,0,0-.312,3.492,3.492,0,0,1-1.4-.858,3.506,3.506,0,0,1-.853-1.4.161.161,0,0,0-.312,0,3.522,3.522,0,0,1-.858,1.4,3.5,3.5,0,0,1-1.4.858.161.161,0,0,0,0,.312Z" transform="translate(-86.144 0.084)" fill="#fff" opacity="0.5"/>
    <path id="Path_4" data-name="Path 4" d="M117.724,2.683a3.521,3.521,0,0,1,2.254,2.254.161.161,0,0,0,.155.114V0a.161.161,0,0,0-.155.114,3.521,3.521,0,0,1-.858,1.4,3.5,3.5,0,0,1-1.4.858.161.161,0,0,0,0,.312Z" transform="translate(-117.6 0.007)" fill="#fff"/>
  </g>
</svg>
