<svg width="4" height="12" viewBox="0 0 4 12" fill="none" xmlns="http://www.w3.org/2000/svg">
<path d="M1.99992 11.8225C2.27358 11.8225 2.54109 11.7414 2.76862 11.5893C2.99616 11.4373 3.1735 11.2212 3.27822 10.9684C3.38294 10.7156 3.41034 10.4374 3.35696 10.169C3.30357 9.90056 3.17179 9.65403 2.97829 9.46052C2.78479 9.26702 2.53825 9.13525 2.26985 9.08186C2.00146 9.02847 1.72326 9.05587 1.47044 9.16059C1.21761 9.26532 1.00152 9.44266 0.849487 9.67019C0.697453 9.89773 0.616304 10.1652 0.616304 10.4389C0.630566 10.8014 0.780874 11.1453 1.03729 11.402C1.2937 11.6587 1.6374 11.8078 1.99992 11.8225ZM1.99992 7.55584C2.36529 7.55072 2.71425 7.4033 2.97263 7.14492C3.231 6.88655 3.37842 6.53759 3.38354 6.17222L3.38354 1.61756C3.37842 1.25219 3.231 0.903233 2.97263 0.644855C2.71425 0.386478 2.36529 0.239059 1.99992 0.233937C1.63456 0.239059 1.2856 0.386478 1.02722 0.644855C0.768845 0.903233 0.621426 1.25219 0.616304 1.61756L0.616304 6.17375C0.621426 6.53911 0.768845 6.88807 1.02722 7.14645C1.2856 7.40483 1.63456 7.55072 1.99992 7.55584Z" fill="#1F2124"/>
</svg>
