<svg width="14" height="14" viewBox="0 0 14 14" fill="none" xmlns="http://www.w3.org/2000/svg">
<g clip-path="url(#clip0_678_2455)">
<mask id="mask0_678_2455" style="mask-type:luminance" maskUnits="userSpaceOnUse" x="0" y="0" width="14" height="14">
<path d="M14 0H0V14H14V0Z" fill="white"/>
</mask>
<g mask="url(#mask0_678_2455)">
<path d="M7.00003 14C6.07817 13.9979 5.16576 13.8142 4.31495 13.4593C3.46414 13.1044 2.69162 12.5853 2.04153 11.9317C1.39144 11.278 0.876533 10.5027 0.526242 9.64999C0.17595 8.79727 -0.00285851 7.88388 3.45528e-05 6.96202C-0.00235111 6.04763 0.177032 5.14189 0.527757 4.29744C0.878482 3.45299 1.39355 2.68667 2.04303 2.04302C2.67922 1.39414 3.43881 0.879099 4.27706 0.528236C5.11532 0.177373 6.01531 -0.00222392 6.92403 2.07844e-05C8.78194 0.0183395 10.5597 0.759365 11.8806 2.06606C13.2015 3.37275 13.9617 5.14242 14 7.00002C14.0074 7.91494 13.8339 8.8223 13.4895 9.66995C13.1451 10.5176 12.6366 11.2888 11.9931 11.9393C11.3497 12.5898 10.5841 13.1067 9.74023 13.4604C8.89639 13.814 7.99098 13.9974 7.07603 14H7.00003ZM7.00003 3.17902C6.82045 3.17902 6.6449 3.23227 6.49558 3.33205C6.34626 3.43182 6.22988 3.57363 6.16115 3.73954C6.09243 3.90546 6.07445 4.08803 6.10948 4.26416C6.14452 4.4403 6.23099 4.60209 6.35798 4.72907C6.48497 4.85606 6.64676 4.94254 6.82289 4.97757C6.99903 5.01261 7.1816 4.99463 7.34751 4.9259C7.51343 4.85718 7.65524 4.7408 7.75501 4.59148C7.85478 4.44216 7.90804 4.26661 7.90804 4.08702C7.89868 3.8491 7.80004 3.62344 7.63177 3.45499C7.46349 3.28653 7.23794 3.18864 7.00003 3.17902ZM7.00003 5.97902C6.76026 5.98238 6.53126 6.07913 6.3617 6.24869C6.19214 6.41825 6.09539 6.64725 6.09203 6.88702V9.87602C6.09539 10.1158 6.19214 10.3448 6.3617 10.5144C6.53126 10.6839 6.76026 10.7807 7.00003 10.784C7.2398 10.7807 7.46881 10.6839 7.63837 10.5144C7.80793 10.3448 7.90467 10.1158 7.90804 9.87602V6.88602C7.90467 6.64625 7.80793 6.41724 7.63837 6.24768C7.46881 6.07812 7.2398 5.98238 7.00003 5.97902Z" fill="black"/>
</g>
</g>
<defs>
<clipPath id="clip0_678_2455">
<rect width="14" height="14" fill="white"/>
</clipPath>
</defs>
</svg>
