<svg width="18" height="18" viewBox="0 0 18 18" fill="none" xmlns="http://www.w3.org/2000/svg">
<path d="M9 18C6.61386 17.9974 4.32622 17.0483 2.63896 15.3611C0.951708 13.6738 0.00264685 11.3861 0 9C0.00264685 6.61386 0.951708 4.32617 2.63896 2.63892C4.32622 0.951662 6.61386 0.00264685 9 0C11.3861 0.00264685 13.6738 0.951662 15.361 2.63892C17.0483 4.32617 17.9974 6.61386 18 9C17.9974 11.3861 17.0483 13.6738 15.361 15.3611C13.6738 17.0483 11.3861 17.9974 9 18ZM9 2C7.14405 2.00185 5.36466 2.73989 4.05231 4.05225C2.73995 5.3646 2.00185 7.14405 2 9C2.00212 10.8559 2.7403 12.6351 4.0526 13.9474C5.36489 15.2597 7.14413 15.9979 9 16C10.8559 15.9979 12.6351 15.2597 13.9474 13.9474C15.2597 12.6351 15.9979 10.8559 16 9C15.9979 7.14413 15.2597 5.36491 13.9474 4.05261C12.6351 2.74032 10.8559 2.00212 9 2Z" fill="white" fill-opacity="0.3"/>
<path d="M15.9992 9.00098C15.9971 7.14511 15.2589 5.36588 13.9466 4.05359C12.6343 2.74129 10.855 2.00309 8.99917 2.00098V1.97302C8.77037 1.94556 8.55941 1.83566 8.40573 1.66394C8.25205 1.49222 8.16617 1.27035 8.16417 1.03992C8.16076 0.796532 8.24226 0.559676 8.39465 0.369873C8.54704 0.18007 8.7608 0.0492624 8.99917 0C11.3853 0.00264685 13.673 0.951662 15.3602 2.63892C17.0475 4.32617 17.9965 6.61386 17.9992 9H17.9852C17.9747 9.25104 17.8684 9.48853 17.6882 9.66357C17.5079 9.83862 17.2674 9.93781 17.0162 9.94092H16.9762C16.7256 9.93377 16.4867 9.83359 16.306 9.65979C16.1254 9.48599 16.016 9.25109 15.9992 9.00098Z" fill="white" fill-opacity="0.7"/>
</svg>
