<svg xmlns="http://www.w3.org/2000/svg" width="115.585" height="20" viewBox="0 0 115.585 20">
  <g id="Group_106586" data-name="Group 106586" transform="translate(-279.999 -42)">
    <g id="Group_106551" data-name="Group 106551" transform="translate(-4503 -2977)">
      <path id="Path_1" data-name="Path 1" d="M13.8,50.387A9.883,9.883,0,0,0,7.5,56.75a.457.457,0,0,1-.872,0A9.887,9.887,0,0,0,4.24,52.806a9.772,9.772,0,0,0-3.9-2.416.463.463,0,0,1,0-.88,9.76,9.76,0,0,0,3.9-2.416,9.869,9.869,0,0,0,2.392-3.945.457.457,0,0,1,.872,0A9.869,9.869,0,0,0,9.9,47.094a9.734,9.734,0,0,0,3.9,2.416.465.465,0,0,1,0,.878Z" transform="translate(4782.982 2981.93)" fill="#2160b5"/>
      <path id="Path_3" data-name="Path 3" d="M60.028,50.362a9.883,9.883,0,0,0-6.3,6.363.45.45,0,0,1-.4.318c0-.035-.011-14.106,0-14.243a.45.45,0,0,1,.4.317,9.869,9.869,0,0,0,2.392,3.945,9.733,9.733,0,0,0,3.9,2.416.464.464,0,0,1,0,.884Z" transform="translate(4736.758 2981.956)" fill="#fff" opacity="0.2"/>
      <path id="Path_2" data-name="Path 2" d="M86.355,4.576a6.071,6.071,0,0,1,3.867,3.906.275.275,0,0,0,.534,0,6.083,6.083,0,0,1,3.867-3.906.28.28,0,0,0,0-.541,5.981,5.981,0,0,1-2.4-1.487A6.085,6.085,0,0,1,90.763.124a.275.275,0,0,0-.534,0,6.112,6.112,0,0,1-1.472,2.424,5.985,5.985,0,0,1-2.4,1.487.28.28,0,0,0,0,.541Z" transform="translate(4707.974 3019.084)" fill="#2a2f30" opacity="0.203"/>
      <path id="Path_4" data-name="Path 4" d="M117.813,4.649a6.071,6.071,0,0,1,3.867,3.906.276.276,0,0,0,.266.2V0a.276.276,0,0,0-.266.2,6.112,6.112,0,0,1-1.472,2.424,5.985,5.985,0,0,1-2.4,1.487.28.28,0,0,0,.007.541Z" transform="translate(4676.516 3019.011)" fill="#949697"/>
    </g>
    <path id="Path_171750" data-name="Path 171750" d="M8.145,16.109l-.8-2.627H3.321l-.8,2.627H0L3.9,5.028H6.756l3.91,11.082ZM6.786,11.52Q5.677,7.949,5.537,7.481t-.2-.74q-.249.966-1.427,4.778Zm5.269,4.59V5.073H14.4V16.109Zm15.89,0-.8-2.627H23.122l-.8,2.627H19.8L23.7,5.028h2.861l3.91,11.082Zm-1.359-4.59q-1.11-3.571-1.249-4.039t-.2-.74q-.249.966-1.427,4.778ZM37.563,13.6a2.324,2.324,0,0,1-.9,1.978,4.457,4.457,0,0,1-2.7.679,8.476,8.476,0,0,1-1.57-.125,5.939,5.939,0,0,1-1.215-.366v-1.9a8.026,8.026,0,0,0,1.446.506,5.853,5.853,0,0,0,1.415.2q1.253,0,1.253-.725a.6.6,0,0,0-.166-.442,2.408,2.408,0,0,0-.574-.385q-.408-.215-1.087-.5a6.829,6.829,0,0,1-1.431-.755,2.125,2.125,0,0,1-.664-.8,2.629,2.629,0,0,1-.208-1.106,2,2,0,0,1,.872-1.74,4.247,4.247,0,0,1,2.472-.615,7.017,7.017,0,0,1,2.967.664l-.694,1.661q-.634-.272-1.185-.445a3.722,3.722,0,0,0-1.125-.174q-1.019,0-1.019.551a.648.648,0,0,0,.328.536,8.93,8.93,0,0,0,1.438.672,6.681,6.681,0,0,1,1.449.747,2.21,2.21,0,0,1,.679.8A2.459,2.459,0,0,1,37.563,13.6Zm7.685,0a2.324,2.324,0,0,1-.9,1.978,4.457,4.457,0,0,1-2.7.679,8.476,8.476,0,0,1-1.57-.125,5.939,5.939,0,0,1-1.215-.366v-1.9a8.026,8.026,0,0,0,1.446.506,5.853,5.853,0,0,0,1.415.2q1.253,0,1.253-.725a.6.6,0,0,0-.166-.442,2.408,2.408,0,0,0-.574-.385q-.408-.215-1.087-.5a6.829,6.829,0,0,1-1.431-.755,2.125,2.125,0,0,1-.664-.8,2.629,2.629,0,0,1-.208-1.106,2,2,0,0,1,.872-1.74,4.247,4.247,0,0,1,2.472-.615,7.017,7.017,0,0,1,2.967.664l-.694,1.661q-.634-.272-1.185-.445a3.722,3.722,0,0,0-1.125-.174q-1.019,0-1.019.551a.648.648,0,0,0,.328.536,8.93,8.93,0,0,0,1.438.672,6.681,6.681,0,0,1,1.449.747,2.21,2.21,0,0,1,.679.8A2.459,2.459,0,0,1,45.248,13.6Zm1.7-8.115q0-1.125,1.253-1.125t1.253,1.125a1.1,1.1,0,0,1-.313.834,1.317,1.317,0,0,1-.94.3Q46.946,6.62,46.946,5.488Zm2.4,10.621h-2.3V7.67h2.3Zm8.3-2.506a2.324,2.324,0,0,1-.9,1.978,4.457,4.457,0,0,1-2.7.679,8.476,8.476,0,0,1-1.57-.125,5.939,5.939,0,0,1-1.215-.366v-1.9a8.026,8.026,0,0,0,1.446.506,5.854,5.854,0,0,0,1.415.2q1.253,0,1.253-.725a.6.6,0,0,0-.166-.442,2.408,2.408,0,0,0-.574-.385q-.408-.215-1.087-.5a6.829,6.829,0,0,1-1.431-.755,2.125,2.125,0,0,1-.664-.8,2.629,2.629,0,0,1-.208-1.106,2,2,0,0,1,.872-1.74,4.247,4.247,0,0,1,2.472-.615,7.017,7.017,0,0,1,2.967.664l-.694,1.661q-.634-.272-1.185-.445a3.722,3.722,0,0,0-1.125-.174q-1.019,0-1.019.551a.648.648,0,0,0,.328.536,8.93,8.93,0,0,0,1.438.672,6.681,6.681,0,0,1,1.449.747,2.21,2.21,0,0,1,.679.8A2.459,2.459,0,0,1,57.65,13.6ZM63,14.426a4.991,4.991,0,0,0,1.449-.264v1.714a5.168,5.168,0,0,1-2.114.385,2.587,2.587,0,0,1-2.012-.7,3.039,3.039,0,0,1-.63-2.095V9.4h-1.1V8.425l1.268-.77.664-1.782H62v1.8h2.363V9.4H62v4.069a.9.9,0,0,0,.276.725A1.087,1.087,0,0,0,63,14.426Zm8.515,1.683-.445-1.147h-.06a3.4,3.4,0,0,1-1.2,1.015,3.867,3.867,0,0,1-1.6.283,2.594,2.594,0,0,1-1.914-.694,2.667,2.667,0,0,1-.7-1.978,2.227,2.227,0,0,1,.94-1.982,5.446,5.446,0,0,1,2.835-.706l1.464-.045v-.37A1.148,1.148,0,0,0,69.525,9.2a5.986,5.986,0,0,0-2.378.611l-.762-1.555A6.861,6.861,0,0,1,69.615,7.5a4.025,4.025,0,0,1,2.6.74,2.734,2.734,0,0,1,.906,2.25v5.624Zm-.679-3.91-.891.03a2.853,2.853,0,0,0-1.495.362,1.138,1.138,0,0,0-.491,1.012q0,.974,1.117.974a1.769,1.769,0,0,0,1.28-.46,1.617,1.617,0,0,0,.479-1.223Zm12.448,3.91h-2.3V11.18a2.368,2.368,0,0,0-.325-1.37,1.181,1.181,0,0,0-1.034-.457,1.555,1.555,0,0,0-1.4.645,4,4,0,0,0-.43,2.14v3.971H75.5V7.67h1.759l.31,1.079h.128a2.433,2.433,0,0,1,1.061-.925,3.612,3.612,0,0,1,1.536-.313,2.951,2.951,0,0,1,2.234.8,3.2,3.2,0,0,1,.762,2.3Zm5.926-1.683a4.991,4.991,0,0,0,1.449-.264v1.714a5.168,5.168,0,0,1-2.114.385,2.587,2.587,0,0,1-2.012-.7,3.039,3.039,0,0,1-.63-2.095V9.4H84.8V8.425l1.268-.77.664-1.782h1.472v1.8h2.363V9.4H88.208v4.069a.9.9,0,0,0,.276.725A1.087,1.087,0,0,0,89.212,14.426Z" transform="translate(304.923 41.185)" fill="#2a2f30"/>
  </g>
</svg>
