<svg xmlns="http://www.w3.org/2000/svg" width="94" height="20" viewBox="0 0 94 20">
  <g id="Group_106586" data-name="Group 106586" transform="translate(-279.999 -42)">
    <path id="Path_171744" data-name="Path 171744" d="M6.056,15.148H3.727V8.762l.023-1.049.038-1.147q-.58.581-.807.762L1.714,8.347.591,6.943l3.55-2.831H6.056ZM16.879,9.63a7.7,7.7,0,0,1-.946,4.28A3.281,3.281,0,0,1,13.02,15.3a3.243,3.243,0,0,1-2.876-1.434A7.592,7.592,0,0,1,9.176,9.63a7.775,7.775,0,0,1,.942-4.307,3.267,3.267,0,0,1,2.9-1.385A3.252,3.252,0,0,1,15.9,5.388,7.608,7.608,0,0,1,16.879,9.63Zm-5.39,0a8.6,8.6,0,0,0,.351,2.91,1.214,1.214,0,0,0,1.18.879,1.226,1.226,0,0,0,1.176-.891,8.36,8.36,0,0,0,.362-2.9,8.335,8.335,0,0,0-.366-2.918,1.22,1.22,0,0,0-2.348,0A8.583,8.583,0,0,0,11.49,9.63Zm18.188,5.518H27.017l-1.492-5.8q-.083-.31-.283-1.28t-.23-1.3q-.045.408-.226,1.31t-.279,1.287l-1.485,5.782H20.369L17.557,4.112h2.3l1.41,6.024q.369,1.668.535,2.891.045-.43.207-1.332t.305-1.4l1.606-6.182h2.209l1.606,6.182q.106.415.264,1.268t.241,1.464q.075-.589.241-1.468t.3-1.423l1.4-6.024h2.3ZM37,8.188a1.457,1.457,0,0,0-1.146.464,2.151,2.151,0,0,0-.475,1.317H38.6a1.921,1.921,0,0,0-.445-1.317A1.5,1.5,0,0,0,37,8.188ZM37.32,15.3a4.346,4.346,0,0,1-3.181-1.125,4.262,4.262,0,0,1-1.146-3.186,4.688,4.688,0,0,1,1.059-3.28A3.768,3.768,0,0,1,36.981,6.55a3.709,3.709,0,0,1,2.781,1.019,3.859,3.859,0,0,1,.995,2.816V11.5H35.323a2.218,2.218,0,0,0,.58,1.532,2.04,2.04,0,0,0,1.523.551,6.312,6.312,0,0,0,1.44-.159,7.2,7.2,0,0,0,1.417-.506V14.7a5.393,5.393,0,0,1-1.289.449A8.115,8.115,0,0,1,37.32,15.3ZM47.443,6.55A2.725,2.725,0,0,1,49.78,7.717a5.357,5.357,0,0,1,.844,3.2,5.263,5.263,0,0,1-.871,3.238,3.037,3.037,0,0,1-4.7.068H44.9l-.384.929H42.754V3.4h2.3V6.135q0,.521-.09,1.668h.09A2.659,2.659,0,0,1,47.443,6.55ZM46.7,8.392a1.451,1.451,0,0,0-1.244.525,3.016,3.016,0,0,0-.407,1.732V10.9a3.56,3.56,0,0,0,.4,1.948,1.439,1.439,0,0,0,1.278.589,1.282,1.282,0,0,0,1.127-.653,3.539,3.539,0,0,0,.418-1.9,3.352,3.352,0,0,0-.422-1.868A1.323,1.323,0,0,0,46.7,8.392Zm17.011,6.756-.8-2.627H58.9l-.8,2.627H55.582l3.89-11.082h2.857l3.9,11.082Zm-1.357-4.59Q61.251,6.988,61.111,6.52t-.2-.74q-.249.966-1.425,4.778Zm5.389,4.59V4.112h2.337V15.148Z" transform="translate(303.916 42.146)" fill="#2a2f30"/>
    <g id="Group_106551" data-name="Group 106551" transform="translate(-4503 -2977)">
      <path id="Path_1" data-name="Path 1" d="M13.8,50.387A9.883,9.883,0,0,0,7.5,56.75a.457.457,0,0,1-.872,0A9.887,9.887,0,0,0,4.24,52.806a9.772,9.772,0,0,0-3.9-2.416.463.463,0,0,1,0-.88,9.76,9.76,0,0,0,3.9-2.416,9.869,9.869,0,0,0,2.392-3.945.457.457,0,0,1,.872,0A9.869,9.869,0,0,0,9.9,47.094a9.734,9.734,0,0,0,3.9,2.416.465.465,0,0,1,0,.878Z" transform="translate(4782.982 2981.93)" fill="#2160b5"/>
      <path id="Path_3" data-name="Path 3" d="M60.028,50.362a9.883,9.883,0,0,0-6.3,6.363.45.45,0,0,1-.4.318c0-.035-.011-14.106,0-14.243a.45.45,0,0,1,.4.317,9.869,9.869,0,0,0,2.392,3.945,9.733,9.733,0,0,0,3.9,2.416.464.464,0,0,1,0,.884Z" transform="translate(4736.758 2981.956)" fill="#fff" opacity="0.2"/>
      <path id="Path_2" data-name="Path 2" d="M86.355,4.576a6.071,6.071,0,0,1,3.867,3.906.275.275,0,0,0,.534,0,6.083,6.083,0,0,1,3.867-3.906.28.28,0,0,0,0-.541,5.981,5.981,0,0,1-2.4-1.487A6.085,6.085,0,0,1,90.763.124a.275.275,0,0,0-.534,0,6.112,6.112,0,0,1-1.472,2.424,5.985,5.985,0,0,1-2.4,1.487.28.28,0,0,0,0,.541Z" transform="translate(4707.974 3019.084)" fill="#2a2f30" opacity="0.203"/>
      <path id="Path_4" data-name="Path 4" d="M117.813,4.649a6.071,6.071,0,0,1,3.867,3.906.276.276,0,0,0,.266.2V0a.276.276,0,0,0-.266.2,6.112,6.112,0,0,1-1.472,2.424,5.985,5.985,0,0,1-2.4,1.487.28.28,0,0,0,.007.541Z" transform="translate(4676.516 3019.011)" fill="#949697"/>
    </g>
  </g>
</svg>
