<svg id="Navigation_Left_Icon" xmlns="http://www.w3.org/2000/svg" xmlns:xlink="http://www.w3.org/1999/xlink" width="20" height="20" viewBox="0 0 20 20">
  <defs>
    <clipPath id="clip-path">
      <rect id="Rectangle_47749" data-name="Rectangle 47749" width="20" height="20" fill="#2a2f30"/>
    </clipPath>
  </defs>
  <g id="Navigation_Left_Icon-2" data-name="Navigation_Left_Icon" clip-path="url(#clip-path)">
    <path id="Path_171747" data-name="Path 171747" d="M4.5,5.328a.848.848,0,0,0,.371-.684.829.829,0,0,0-.289-.716l-.309-.28H8.592A.947.947,0,0,0,9.5,2.968V2.959a.9.9,0,0,0-.172-.767.868.868,0,0,0-.712-.341H4.251l.312-.281a.911.911,0,0,0,.3-.631A.894.894,0,0,0,4.62.286.872.872,0,0,0,3.964,0a.911.911,0,0,0-.6.226L1.288,2.079A.872.872,0,0,0,1,2.738a.92.92,0,0,0,.283.653l0,0L3.313,5.222A1.032,1.032,0,0,0,4,5.493.838.838,0,0,0,4.5,5.328Z" transform="translate(9.988 7.254)" fill="#2a2f30"/>
    <path id="Path_171748" data-name="Path 171748" d="M5.018,5.328a.849.849,0,0,1-.371-.684.829.829,0,0,1,.29-.716l.309-.28H.931a.947.947,0,0,1-.908-.681V2.959a.9.9,0,0,1,.173-.767.868.868,0,0,1,.712-.341H5.271L4.96,1.57a.912.912,0,0,1-.3-.631A.9.9,0,0,1,4.9.286.872.872,0,0,1,5.56,0a.911.911,0,0,1,.6.226L8.235,2.079a.873.873,0,0,1,.288.659.919.919,0,0,1-.283.653l0,0L6.21,5.222a1.031,1.031,0,0,1-.684.27A.84.84,0,0,1,5.018,5.328Z" transform="translate(0.489 7.254)" fill="#2a2f30"/>
  </g>
</svg>
