<svg xmlns="http://www.w3.org/2000/svg" xmlns:xlink="http://www.w3.org/1999/xlink" width="20" height="20" viewBox="0 0 20 20">
  <defs>
    <clipPath id="clip-path">
      <rect id="Rectangle_47749" data-name="Rectangle 47749" width="20" height="20" fill="#fff"/>
    </clipPath>
  </defs>
  <g id="Navigation_Left_Icon" opacity="0.5">
    <g id="Navigation_Left_Icon-2" data-name="Navigation_Left_Icon" clip-path="url(#clip-path)">
      <path id="Path_171746" data-name="Path 171746" d="M6.018,5.328a.848.848,0,0,1-.371-.684.829.829,0,0,1,.289-.716l.309-.28H1.931a.947.947,0,0,1-.908-.681V2.959a.9.9,0,0,1,.172-.767.868.868,0,0,1,.712-.341H6.271l-.312-.281a.911.911,0,0,1-.3-.631A.894.894,0,0,1,5.9.286.872.872,0,0,1,6.559,0a.911.911,0,0,1,.6.226L9.235,2.079a.872.872,0,0,1,.288.659.92.92,0,0,1-.283.653l0,0L7.21,5.222a1.032,1.032,0,0,1-.684.27A.838.838,0,0,1,6.018,5.328Z" transform="translate(10 7.222)" fill="#fff"/>
      <path id="Path_171745" data-name="Path 171745" d="M5.018.164a.849.849,0,0,0-.371.684.829.829,0,0,0,.29.716l.309.28H.931a.947.947,0,0,0-.908.681v.008A.9.9,0,0,0,.194,3.3a.868.868,0,0,0,.712.341H5.271l-.312.281a.912.912,0,0,0-.3.631.9.9,0,0,0,.238.653.872.872,0,0,0,.657.286.911.911,0,0,0,.6-.226L8.235,3.413a.873.873,0,0,0,.288-.659A.919.919,0,0,0,8.24,2.1l0,0L6.21.27A1.031,1.031,0,0,0,5.526,0,.84.84,0,0,0,5.018.164Z" transform="translate(9.023 12.715) rotate(180)" fill="#fff"/>
    </g>
  </g>
</svg>
