<svg xmlns="http://www.w3.org/2000/svg" width="24" height="24" viewBox="0 0 24 24">
  <g id="Layer_2" data-name="Layer 2" opacity="1">
    <g id="Layer_1" data-name="Layer 1">
      <path id="Rectangle_53699" data-name="Rectangle 53699" d="M3.727,0H18.553A3.781,3.781,0,0,1,22.28,3.825v6.79a3.781,3.781,0,0,1-3.727,3.825H3.727A3.781,3.781,0,0,1,0,10.615V3.825A3.781,3.781,0,0,1,3.727,0ZM18.553,13.043a2.4,2.4,0,0,0,2.366-2.428V3.825A2.4,2.4,0,0,0,18.553,1.4H3.727A2.4,2.4,0,0,0,1.361,3.825v6.79a2.4,2.4,0,0,0,2.366,2.428Z" transform="translate(19.22 0.86) rotate(90)" fill="#fff"/>
      <path id="Path_171963" data-name="Path 171963" d="M8.54,2h5.92v.77A1.16,1.16,0,0,1,13.3,3.89H9.7A1.16,1.16,0,0,1,8.54,2.74Z" transform="translate(0.5)" fill="#fff"/>
      <rect id="Rectangle_53700" data-name="Rectangle 53700" width="24" height="24" fill="none"/>
    </g>
  </g>
</svg>
