<svg xmlns="http://www.w3.org/2000/svg" width="14.199" height="14" viewBox="0 0 14.199 14">
  <g id="Group_88761" data-name="Group 88761" transform="translate(-1213.899 -568)">
    <rect id="Rectangle_46327" data-name="Rectangle 46327" width="14" height="14" transform="translate(1214 568)" fill="none"/>
    <g id="noun_refund_policy_776827" data-name="noun_refund policy_776827" transform="translate(1214 568.333)">
      <path id="Union_844" data-name="Union 844" d="M-11047.983-10388.6a.8.8,0,0,1-.27-.773.8.8,0,0,1,.555-.607.789.789,0,0,1,.214-.028.774.774,0,0,1,.568.247,5.042,5.042,0,0,0,3.459,1.373,5,5,0,0,0,2.947-.957,5.172,5.172,0,0,0,1.959-2.834,5.276,5.276,0,0,0-.242-3.459,5.085,5.085,0,0,0-4.664-3.1,5.042,5.042,0,0,0-1.04.108,5.1,5.1,0,0,0-2.912,1.8,5.244,5.244,0,0,0-1.141,3.165h.419a.454.454,0,0,1,.408.255.466.466,0,0,1-.033.482l-1.207,1.711a.464.464,0,0,1-.377.2.464.464,0,0,1-.377-.2l-1.2-1.708a.47.47,0,0,1-.033-.485.461.461,0,0,1,.407-.255h.422a6.867,6.867,0,0,1,1.492-4.166,6.658,6.658,0,0,1,3.8-2.354,6.622,6.622,0,0,1,1.365-.145,6.654,6.654,0,0,1,6.1,4.061,6.865,6.865,0,0,1,.315,4.515,6.8,6.8,0,0,1-2.56,3.708,6.545,6.545,0,0,1-3.857,1.251A6.6,6.6,0,0,1-11047.983-10388.6Zm4.038-1.459v-.357a4.633,4.633,0,0,1-1.073-.205.673.673,0,0,1-.436-.8l.011-.047a.649.649,0,0,1,.624-.488h.006a.7.7,0,0,1,.216.036,3.108,3.108,0,0,0,1,.183c.5,0,.83-.2.83-.51,0-.259-.161-.485-.952-.755-.84-.288-1.8-.76-1.8-1.886a1.888,1.888,0,0,1,1.628-1.825v-.369a.578.578,0,0,1,.572-.579.557.557,0,0,1,.4.169.578.578,0,0,1,.17.413v.286a4.186,4.186,0,0,1,.8.127.663.663,0,0,1,.475.729.667.667,0,0,1-.641.583.707.707,0,0,1-.187-.028,2.773,2.773,0,0,0-.81-.119h-.017c-.472,0-.729.158-.729.447,0,.246.274.438,1.09.748,1.174.419,1.676,1,1.676,1.925a1.962,1.962,0,0,1-1.717,1.895v.43a.574.574,0,0,1-.571.577A.575.575,0,0,1-11043.945-10390.06Z" transform="translate(11050.9 10400.234)" fill="#2a2f30"/>
    </g>
  </g>
</svg>
