<svg id="Navigation_Left_Icon" xmlns="http://www.w3.org/2000/svg" xmlns:xlink="http://www.w3.org/1999/xlink" width="20" height="20" viewBox="0 0 20 20">
  <defs>
    <clipPath id="clip-path">
      <rect id="Rectangle_47749" data-name="Rectangle 47749" width="20" height="20" fill="#2a2f30"/>
    </clipPath>
  </defs>
  <g id="Navigation_Left_Icon-2" data-name="Navigation_Left_Icon" clip-path="url(#clip-path)">
    <path id="Path_171747" data-name="Path 171747" d="M6.018,5.328a.848.848,0,0,1-.371-.684.829.829,0,0,1,.289-.716l.309-.28H1.931a.947.947,0,0,1-.908-.681V2.959a.9.9,0,0,1,.172-.767.868.868,0,0,1,.712-.341H6.271l-.312-.281a.911.911,0,0,1-.3-.631A.894.894,0,0,1,5.9.286.872.872,0,0,1,6.559,0a.911.911,0,0,1,.6.226L9.235,2.079a.872.872,0,0,1,.288.659.92.92,0,0,1-.283.653l0,0L7.21,5.222a1.032,1.032,0,0,1-.684.27A.838.838,0,0,1,6.018,5.328Z" transform="translate(9.989 7.254)" fill="#2a2f30"/>
    <path id="Path_171748" data-name="Path 171748" d="M6.018.164a.849.849,0,0,0-.371.684.829.829,0,0,0,.29.716l.309.28H1.931a.947.947,0,0,0-.908.681v.008a.9.9,0,0,0,.173.767.868.868,0,0,0,.712.341H6.271l-.312.281a.912.912,0,0,0-.3.631.9.9,0,0,0,.238.653.872.872,0,0,0,.657.286.911.911,0,0,0,.6-.226L9.235,3.413a.873.873,0,0,0,.288-.659A.919.919,0,0,0,9.24,2.1l0,0L7.21.27A1.031,1.031,0,0,0,6.526,0,.84.84,0,0,0,6.018.164Z" transform="translate(10.011 12.746) rotate(180)" fill="#2a2f30"/>
  </g>
</svg>
