<svg id="Layer_1" data-name="Layer 1" xmlns="http://www.w3.org/2000/svg" width="30" height="30" viewBox="0 0 30 30">
  <rect id="Rectangle_53688" data-name="Rectangle 53688" width="30" height="30" fill="none"/>
  <g id="Layer_2" data-name="Layer 2" transform="translate(2 2)">
    <g id="Layer_1-2" data-name="Layer 1">
      <path id="Path_171945" data-name="Path 171945" d="M6.382,9.913A.61.61,0,0,1,7.151,9.5l1.334.384,3.391-6.41H6.71L1.51,9.45,11.458,21.6a.079.079,0,0,0,.136-.079L8.3,11.112l-1.5-.43a.61.61,0,0,1-.418-.769Z" transform="translate(0.197 0.453)" fill="#fff"/>
      <path id="Path_171946" data-name="Path 171946" d="M11.866,20.719,14.93,10.353,8.78,10.33Z" transform="translate(1.145 1.347)" fill="#fff"/>
      <path id="Path_171947" data-name="Path 171947" d="M11.833,4.36,8.95,9.888h5.765Z" transform="translate(1.167 0.569)" fill="#fff"/>
      <path id="Path_171948" data-name="Path 171948" d="M17.482,3.47H12.35l3.391,6.41,1.3-.384a.622.622,0,1,1,.35,1.13l-1.5.43-3.278,10.4a.09.09,0,0,0,.147.079L22.682,9.45Z" transform="translate(1.611 0.453)" fill="#fff"/>
      <rect id="Rectangle_53687" data-name="Rectangle 53687" width="26" height="26" fill="none"/>
    </g>
  </g>
</svg>
