<svg xmlns="http://www.w3.org/2000/svg" xmlns:xlink="http://www.w3.org/1999/xlink" width="630" height="572" viewBox="0 0 630 572">
  <defs>
    <linearGradient id="linear-gradient" x1="0.5" x2="0.5" y2="1" gradientUnits="objectBoundingBox">
      <stop offset="0" stop-color="#1c1c1c"/>
      <stop offset="1"/>
    </linearGradient>
    <filter id="Rectangle_55456" x="0" y="0" width="630" height="572" filterUnits="userSpaceOnUse">
      <feOffset dy="3" input="SourceAlpha"/>
      <feGaussianBlur stdDeviation="15" result="blur"/>
      <feFlood flood-color="#fff" flood-opacity="0.278" result="color"/>
      <feComposite operator="out" in="SourceGraphic" in2="blur"/>
      <feComposite operator="in" in="color"/>
      <feComposite operator="in" in2="SourceGraphic"/>
    </filter>
    <clipPath id="clip-path">
      <rect id="Rectangle_55455" data-name="Rectangle 55455" width="630" height="572" rx="8" transform="translate(595 24)"/>
    </clipPath>
    <filter id="Rectangle_55448" x="585" y="237" width="50" height="50" filterUnits="userSpaceOnUse">
      <feOffset dy="3" input="SourceAlpha"/>
      <feGaussianBlur stdDeviation="10" result="blur-2"/>
      <feFlood flood-color="#fff" flood-opacity="0.082" result="color-2"/>
      <feComposite operator="out" in="SourceGraphic" in2="blur-2"/>
      <feComposite operator="in" in="color-2"/>
      <feComposite operator="in" in2="SourceGraphic"/>
    </filter>
    <linearGradient id="linear-gradient-3" x1="0.5" x2="0.5" y2="1" gradientUnits="objectBoundingBox">
      <stop offset="0" stop-color="#242424"/>
      <stop offset="1"/>
    </linearGradient>
    <filter id="Rectangle_55451" x="577" y="229" width="66" height="66" filterUnits="userSpaceOnUse">
      <feOffset input="SourceAlpha"/>
      <feGaussianBlur stdDeviation="5" result="blur-3"/>
      <feFlood flood-opacity="0.6"/>
      <feComposite operator="in" in2="blur-3"/>
      <feComposite in="SourceGraphic"/>
    </filter>
    <linearGradient id="linear-gradient-4" x1="0.5" x2="0.5" y2="1" gradientUnits="objectBoundingBox">
      <stop offset="0" stop-color="#fff"/>
      <stop offset="1"/>
    </linearGradient>
    <clipPath id="clip-path-2">
      <rect id="Rectangle_55450" data-name="Rectangle 55450" width="20" height="20" transform="translate(0.098 0.098)" fill="#22b339"/>
    </clipPath>
    <filter id="Path_172850" x="462.676" y="428.693" width="209.515" height="192.135" filterUnits="userSpaceOnUse">
      <feOffset dy="3" input="SourceAlpha"/>
      <feGaussianBlur stdDeviation="6" result="blur-4"/>
      <feFlood flood-opacity="0.259" result="color-3"/>
      <feComposite operator="out" in="SourceGraphic" in2="blur-4"/>
      <feComposite operator="in" in="color-3"/>
      <feComposite operator="in" in2="SourceGraphic"/>
    </filter>
    <filter id="Path_172857" x="399.911" y="375.496" width="101.499" height="101.499" filterUnits="userSpaceOnUse">
      <feOffset dy="3" input="SourceAlpha"/>
      <feGaussianBlur stdDeviation="10" result="blur-5"/>
      <feFlood flood-opacity="0.271" result="color-4"/>
      <feComposite operator="out" in="SourceGraphic" in2="blur-5"/>
      <feComposite operator="in" in="color-4"/>
      <feComposite operator="in" in2="SourceGraphic"/>
    </filter>
    <clipPath id="clip-path-3">
      <rect id="Rectangle_19210" data-name="Rectangle 19210" width="53.086" height="53.086" fill="none"/>
    </clipPath>
    <filter id="Union_645" x="411.267" y="391.996" width="78.821" height="78.821" filterUnits="userSpaceOnUse">
      <feOffset dy="5" input="SourceAlpha"/>
      <feGaussianBlur stdDeviation="5" result="blur-6"/>
      <feFlood flood-opacity="0.2"/>
      <feComposite operator="in" in2="blur-6"/>
      <feComposite in="SourceGraphic"/>
    </filter>
    <filter id="Union_645-2" x="411.267" y="391.996" width="78.821" height="78.821" filterUnits="userSpaceOnUse">
      <feOffset dy="3" input="SourceAlpha"/>
      <feGaussianBlur stdDeviation="2" result="blur-7"/>
      <feFlood flood-opacity="0.22" result="color-5"/>
      <feComposite operator="out" in="SourceGraphic" in2="blur-7"/>
      <feComposite operator="in" in="color-5"/>
      <feComposite operator="in" in2="SourceGraphic"/>
    </filter>
    <filter id="Path_172851" x="357.2" y="457.367" width="247.303" height="228.141" filterUnits="userSpaceOnUse">
      <feOffset dy="3" input="SourceAlpha"/>
      <feGaussianBlur stdDeviation="6" result="blur-8"/>
      <feFlood flood-opacity="0.259" result="color-6"/>
      <feComposite operator="out" in="SourceGraphic" in2="blur-8"/>
      <feComposite operator="in" in="color-6"/>
      <feComposite operator="in" in2="SourceGraphic"/>
    </filter>
    <filter id="Path_172849" x="522.875" y="254.529" width="129.269" height="115.131" filterUnits="userSpaceOnUse">
      <feOffset dy="3" input="SourceAlpha"/>
      <feGaussianBlur stdDeviation="6" result="blur-9"/>
      <feFlood flood-opacity="0.259" result="color-7"/>
      <feComposite operator="out" in="SourceGraphic" in2="blur-9"/>
      <feComposite operator="in" in="color-7"/>
      <feComposite operator="in" in2="SourceGraphic"/>
    </filter>
    <filter id="Path_172856" x="524.37" y="260.815" width="125.525" height="113.163" filterUnits="userSpaceOnUse">
      <feOffset dy="5" input="SourceAlpha"/>
      <feGaussianBlur stdDeviation="5" result="blur-10"/>
      <feFlood flood-opacity="0.2"/>
      <feComposite operator="in" in2="blur-10"/>
      <feComposite in="SourceGraphic"/>
    </filter>
    <filter id="Path_172856-2" x="524.37" y="260.815" width="125.525" height="113.163" filterUnits="userSpaceOnUse">
      <feOffset dy="3" input="SourceAlpha"/>
      <feGaussianBlur stdDeviation="1" result="blur-11"/>
      <feFlood flood-opacity="0.22" result="color-8"/>
      <feComposite operator="out" in="SourceGraphic" in2="blur-11"/>
      <feComposite operator="in" in="color-8"/>
      <feComposite operator="in" in2="SourceGraphic"/>
    </filter>
    <filter id="Path_172879" x="476.948" y="308.133" width="253.11" height="235.771" filterUnits="userSpaceOnUse">
      <feOffset dy="3" input="SourceAlpha"/>
      <feGaussianBlur stdDeviation="10" result="blur-12"/>
      <feFlood flood-color="#fff" flood-opacity="0.082" result="color-9"/>
      <feComposite operator="out" in="SourceGraphic" in2="blur-12"/>
      <feComposite operator="in" in="color-9"/>
      <feComposite operator="in" in2="SourceGraphic"/>
    </filter>
    <linearGradient id="linear-gradient-6" x1="0.485" x2="0.468" y2="1.057" gradientUnits="objectBoundingBox">
      <stop offset="0" stop-color="#1c1c1c" stop-opacity="0"/>
      <stop offset="1"/>
    </linearGradient>
  </defs>
  <g id="Group_174404" data-name="Group 174404" transform="translate(-595 -24)">
    <g data-type="innerShadowGroup">
      <rect id="Rectangle_55456-2" data-name="Rectangle 55456" width="630" height="572" rx="10" transform="translate(595 24)" fill="url(#linear-gradient)"/>
      <g transform="matrix(1, 0, 0, 1, 595, 24)" filter="url(#Rectangle_55456)">
        <rect id="Rectangle_55456-3" data-name="Rectangle 55456" width="630" height="572" rx="10" fill="#fff"/>
      </g>
      <g id="Rectangle_55456-4" data-name="Rectangle 55456" transform="translate(595 24)" fill="none" stroke="rgba(255,255,255,0.15)" stroke-width="1">
        <rect width="630" height="572" rx="10" stroke="none"/>
        <rect x="0.5" y="0.5" width="629" height="571" rx="9.5" fill="none"/>
      </g>
    </g>
    <g id="Mask_Group_95801" data-name="Mask Group 95801" clip-path="url(#clip-path)">
      <g id="Group_174388" data-name="Group 174388" transform="translate(-162 144.842)">
        <rect id="Rectangle_55459" data-name="Rectangle 55459" width="217" height="217" rx="108.5" transform="translate(1089 374.158)" fill="#22b339" opacity="0.719"/>
        <rect id="Rectangle_55460" data-name="Rectangle 55460" width="237" height="237" rx="118.5" transform="translate(1089 245.158)" fill="#3339f1" opacity="0.501"/>
      </g>
      <rect id="Rectangle_55458" data-name="Rectangle 55458" width="183" height="183" rx="91.5" transform="translate(1089 354)" fill="#22b339" opacity="0.719"/>
      <rect id="Rectangle_55457" data-name="Rectangle 55457" width="200" height="200" rx="100" transform="translate(1089 245)" fill="#3339f1" opacity="0.501"/>
      <g id="Group_174380" data-name="Group 174380" transform="translate(-15 -35)">
        <g id="Group_174387" data-name="Group 174387">
          <g id="Group_174377" data-name="Group 174377" transform="translate(-11109 -22002)">
            <g data-type="innerShadowGroup">
              <rect id="Rectangle_55448-2" data-name="Rectangle 55448" width="50" height="50" rx="25" transform="translate(12304 22298)" fill="url(#linear-gradient)"/>
              <g transform="matrix(1, 0, 0, 1, 11719, 22061)" filter="url(#Rectangle_55448)">
                <rect id="Rectangle_55448-3" data-name="Rectangle 55448" width="50" height="50" rx="25" transform="translate(585 237)" fill="#fff"/>
              </g>
              <g id="Rectangle_55448-4" data-name="Rectangle 55448" transform="translate(12304 22298)" fill="none" stroke="rgba(255,255,255,0.15)" stroke-width="1">
                <rect width="50" height="50" rx="25" stroke="none"/>
                <rect x="0.5" y="0.5" width="49" height="49" rx="24.5" fill="none"/>
              </g>
            </g>
            <g id="Group_174376" data-name="Group 174376" transform="translate(-7 1)">
              <g transform="matrix(1, 0, 0, 1, 11726, 22060)" filter="url(#Rectangle_55451)">
                <rect id="Rectangle_55451-2" data-name="Rectangle 55451" width="36" height="36" rx="18" transform="translate(592 244)" fill="url(#linear-gradient-3)"/>
              </g>
              <path id="Subtraction_4" data-name="Subtraction 4" d="M5.83,31.263A18,18,0,1,1,31.278,5.847,18,18,0,0,0,5.831,31.261Z" transform="translate(12318 22304)" opacity="0.3" fill="url(#linear-gradient-4)"/>
            </g>
            <g id="Edit_Icon" transform="translate(12318.902 22312.902)" clip-path="url(#clip-path-2)">
              <path id="Union_847" data-name="Union 847" d="M5.128,16.225A7.522,7.522,0,0,0,3.272,13.2,7.5,7.5,0,0,0,.246,11.343a.355.355,0,0,1,0-.676A7.508,7.508,0,0,0,3.272,8.815,7.58,7.58,0,0,0,5.128,5.79a.356.356,0,0,1,.677,0,7.585,7.585,0,0,0,4.876,4.878.356.356,0,0,1,.245.336.36.36,0,0,1-.239.34,7.576,7.576,0,0,0-4.883,4.881.359.359,0,0,1-.677,0Zm7.9-9.9a4.522,4.522,0,0,0-2.884-2.884.206.206,0,0,1,0-.4,4.464,4.464,0,0,0,1.782-1.1A4.444,4.444,0,0,0,13.023.158.208.208,0,0,1,13.22,0a.215.215,0,0,1,.2.158,4.407,4.407,0,0,0,1.095,1.783,4.494,4.494,0,0,0,1.789,1.1.206.206,0,0,1,0,.4,4.522,4.522,0,0,0-2.884,2.884.2.2,0,0,1-.2.155A.2.2,0,0,1,13.03,6.326Z" transform="translate(1.712 1.193)" fill="#22b339"/>
            </g>
          </g>
          <g id="Group_174392" data-name="Group 174392" transform="translate(-12524 -21697.002)">
            <g data-type="innerShadowGroup">
              <g id="Path_172850-2" data-name="Path 172850" transform="translate(13642.985 22184.695) rotate(40)" fill="#fff">
                <path d="M9.48,0H203.57a9.48,9.48,0,0,1,9.48,9.48V62.565a9.48,9.48,0,0,1-9.48,9.48H9.48A9.48,9.48,0,0,1,0,62.565V9.48A9.48,9.48,0,0,1,9.48,0Z" stroke="none"/>
                <path d="M 9.479598999023438 0.9999847412109375 C 4.803939819335938 0.9999847412109375 0.9999847412109375 4.803932189941406 0.9999847412109375 9.479598999023438 L 0.9999847412109375 62.56537628173828 C 0.9999847412109375 67.24104309082031 4.803939819335938 71.04496002197266 9.479598999023438 71.04496002197266 L 203.5695495605469 71.04496002197266 C 208.2452087402344 71.04496002197266 212.0491638183594 67.24104309082031 212.0491638183594 62.56537628173828 L 212.0491638183594 9.479598999023438 C 212.0491638183594 4.803932189941406 208.2452087402344 0.9999847412109375 203.5695495605469 0.9999847412109375 L 9.479598999023438 0.9999847412109375 M 9.479598999023438 -1.52587890625e-05 L 203.5695495605469 -1.52587890625e-05 C 208.8049926757812 -1.52587890625e-05 213.0491638183594 4.244155883789062 213.0491638183594 9.479598999023438 L 213.0491638183594 62.56537628173828 C 213.0491638183594 67.80081939697266 208.8049926757812 72.04496002197266 203.5695495605469 72.04496002197266 L 9.479598999023438 72.04496002197266 C 4.244155883789062 72.04496002197266 -1.52587890625e-05 67.80081939697266 -1.52587890625e-05 62.56537628173828 L -1.52587890625e-05 9.479598999023438 C -1.52587890625e-05 4.244155883789062 4.244155883789062 -1.52587890625e-05 9.479598999023438 -1.52587890625e-05 Z" stroke="none"/>
              </g>
              <g transform="matrix(1, 0, 0, 1, 13134, 21756)" filter="url(#Path_172850)">
                <g id="Path_172850-3" data-name="Path 172850" transform="translate(508.99 428.69) rotate(40)" fill="#fff">
                  <path d="M9.48,0H203.57a9.48,9.48,0,0,1,9.48,9.48V62.565a9.48,9.48,0,0,1-9.48,9.48H9.48A9.48,9.48,0,0,1,0,62.565V9.48A9.48,9.48,0,0,1,9.48,0Z" stroke="none"/>
                  <path d="M 9.479598999023438 0.9999847412109375 C 4.803939819335938 0.9999847412109375 0.9999847412109375 4.803932189941406 0.9999847412109375 9.479598999023438 L 0.9999847412109375 62.56537628173828 C 0.9999847412109375 67.24104309082031 4.803939819335938 71.04496002197266 9.479598999023438 71.04496002197266 L 203.5695495605469 71.04496002197266 C 208.2452087402344 71.04496002197266 212.0491638183594 67.24104309082031 212.0491638183594 62.56537628173828 L 212.0491638183594 9.479598999023438 C 212.0491638183594 4.803932189941406 208.2452087402344 0.9999847412109375 203.5695495605469 0.9999847412109375 L 9.479598999023438 0.9999847412109375 M 9.479598999023438 -1.52587890625e-05 L 203.5695495605469 -1.52587890625e-05 C 208.8049926757812 -1.52587890625e-05 213.0491638183594 4.244155883789062 213.0491638183594 9.479598999023438 L 213.0491638183594 62.56537628173828 C 213.0491638183594 67.80081939697266 208.8049926757812 72.04496002197266 203.5695495605469 72.04496002197266 L 9.479598999023438 72.04496002197266 C 4.244155883789062 72.04496002197266 -1.52587890625e-05 67.80081939697266 -1.52587890625e-05 62.56537628173828 L -1.52587890625e-05 9.479598999023438 C -1.52587890625e-05 4.244155883789062 4.244155883789062 -1.52587890625e-05 9.479598999023438 -1.52587890625e-05 Z" stroke="none"/>
                </g>
              </g>
              <g id="Path_172850-4" data-name="Path 172850" transform="translate(13642.985 22184.695) rotate(40)" fill="none">
                <path d="M9.48,0H203.57a9.48,9.48,0,0,1,9.48,9.48V62.565a9.48,9.48,0,0,1-9.48,9.48H9.48A9.48,9.48,0,0,1,0,62.565V9.48A9.48,9.48,0,0,1,9.48,0Z" stroke="none"/>
                <path d="M 9.479598999023438 0.9999847412109375 C 4.803939819335938 0.9999847412109375 0.9999847412109375 4.803932189941406 0.9999847412109375 9.479598999023438 L 0.9999847412109375 62.56537628173828 C 0.9999847412109375 67.24104309082031 4.803939819335938 71.04496002197266 9.479598999023438 71.04496002197266 L 203.5695495605469 71.04496002197266 C 208.2452087402344 71.04496002197266 212.0491638183594 67.24104309082031 212.0491638183594 62.56537628173828 L 212.0491638183594 9.479598999023438 C 212.0491638183594 4.803932189941406 208.2452087402344 0.9999847412109375 203.5695495605469 0.9999847412109375 L 9.479598999023438 0.9999847412109375 M 9.479598999023438 -1.52587890625e-05 L 203.5695495605469 -1.52587890625e-05 C 208.8049926757812 -1.52587890625e-05 213.0491638183594 4.244155883789062 213.0491638183594 9.479598999023438 L 213.0491638183594 62.56537628173828 C 213.0491638183594 67.80081939697266 208.8049926757812 72.04496002197266 203.5695495605469 72.04496002197266 L 9.479598999023438 72.04496002197266 C 4.244155883789062 72.04496002197266 -1.52587890625e-05 67.80081939697266 -1.52587890625e-05 62.56537628173828 L -1.52587890625e-05 9.479598999023438 C -1.52587890625e-05 4.244155883789062 4.244155883789062 -1.52587890625e-05 9.479598999023438 -1.52587890625e-05 Z" stroke="none" fill="rgba(0,0,0,0.15)"/>
              </g>
            </g>
            <g data-type="innerShadowGroup">
              <g id="Path_172857-2" data-name="Path 172857" transform="translate(13580.221 22131.498) rotate(40)" fill="#3339f1">
                <path d="M9.48,0H62.565a9.48,9.48,0,0,1,9.48,9.48V62.565a9.48,9.48,0,0,1-9.48,9.48H9.48A9.48,9.48,0,0,1,0,62.565V9.48A9.48,9.48,0,0,1,9.48,0Z" stroke="none"/>
                <path d="M 9.479598999023438 1 C 4.803924560546875 1 1 4.803924560546875 1 9.479598999023438 L 1 62.56536865234375 C 1 67.24103546142578 4.803924560546875 71.04497528076172 9.479598999023438 71.04497528076172 L 62.56536865234375 71.04497528076172 C 67.24103546142578 71.04497528076172 71.04497528076172 67.24103546142578 71.04497528076172 62.56536865234375 L 71.04497528076172 9.479598999023438 C 71.04497528076172 4.803924560546875 67.24103546142578 1 62.56536865234375 1 L 9.479598999023438 1 M 9.479598999023438 0 L 62.56536865234375 0 C 67.80080413818359 0 72.04497528076172 4.244155883789062 72.04497528076172 9.479598999023438 L 72.04497528076172 62.56536865234375 C 72.04497528076172 67.80080413818359 67.80080413818359 72.04497528076172 62.56536865234375 72.04497528076172 L 9.479598999023438 72.04497528076172 C 4.244155883789062 72.04497528076172 0 67.80080413818359 0 62.56536865234375 L 0 9.479598999023438 C 0 4.244155883789062 4.244155883789062 0 9.479598999023438 0 Z" stroke="none"/>
              </g>
              <g transform="matrix(1, 0, 0, 1, 13134, 21756)" filter="url(#Path_172857)">
                <g id="Path_172857-3" data-name="Path 172857" transform="translate(446.22 375.5) rotate(40)" fill="#fff">
                  <path d="M9.48,0H62.565a9.48,9.48,0,0,1,9.48,9.48V62.565a9.48,9.48,0,0,1-9.48,9.48H9.48A9.48,9.48,0,0,1,0,62.565V9.48A9.48,9.48,0,0,1,9.48,0Z" stroke="none"/>
                  <path d="M 9.479598999023438 1 C 4.803924560546875 1 1 4.803924560546875 1 9.479598999023438 L 1 62.56536865234375 C 1 67.24103546142578 4.803924560546875 71.04497528076172 9.479598999023438 71.04497528076172 L 62.56536865234375 71.04497528076172 C 67.24103546142578 71.04497528076172 71.04497528076172 67.24103546142578 71.04497528076172 62.56536865234375 L 71.04497528076172 9.479598999023438 C 71.04497528076172 4.803924560546875 67.24103546142578 1 62.56536865234375 1 L 9.479598999023438 1 M 9.479598999023438 0 L 62.56536865234375 0 C 67.80080413818359 0 72.04497528076172 4.244155883789062 72.04497528076172 9.479598999023438 L 72.04497528076172 62.56536865234375 C 72.04497528076172 67.80080413818359 67.80080413818359 72.04497528076172 62.56536865234375 72.04497528076172 L 9.479598999023438 72.04497528076172 C 4.244155883789062 72.04497528076172 0 67.80080413818359 0 62.56536865234375 L 0 9.479598999023438 C 0 4.244155883789062 4.244155883789062 0 9.479598999023438 0 Z" stroke="none"/>
                </g>
              </g>
              <g id="Path_172857-4" data-name="Path 172857" transform="translate(13580.221 22131.498) rotate(40)" fill="none">
                <path d="M9.48,0H62.565a9.48,9.48,0,0,1,9.48,9.48V62.565a9.48,9.48,0,0,1-9.48,9.48H9.48A9.48,9.48,0,0,1,0,62.565V9.48A9.48,9.48,0,0,1,9.48,0Z" stroke="none"/>
                <path d="M 9.479598999023438 1 C 4.803924560546875 1 1 4.803924560546875 1 9.479598999023438 L 1 62.56536865234375 C 1 67.24103546142578 4.803924560546875 71.04497528076172 9.479598999023438 71.04497528076172 L 62.56536865234375 71.04497528076172 C 67.24103546142578 71.04497528076172 71.04497528076172 67.24103546142578 71.04497528076172 62.56536865234375 L 71.04497528076172 9.479598999023438 C 71.04497528076172 4.803924560546875 67.24103546142578 1 62.56536865234375 1 L 9.479598999023438 1 M 9.479598999023438 0 L 62.56536865234375 0 C 67.80080413818359 0 72.04497528076172 4.244155883789062 72.04497528076172 9.479598999023438 L 72.04497528076172 62.56536865234375 C 72.04497528076172 67.80080413818359 67.80080413818359 72.04497528076172 62.56536865234375 72.04497528076172 L 9.479598999023438 72.04497528076172 C 4.244155883789062 72.04497528076172 0 67.80080413818359 0 62.56536865234375 L 0 9.479598999023438 C 0 4.244155883789062 4.244155883789062 0 9.479598999023438 0 Z" stroke="none" fill="rgba(255,255,255,0.15)"/>
              </g>
            </g>
            <g id="_10Web_Logo_Dark" data-name="10Web Logo_Dark" transform="translate(13581.392 22144.855) rotate(40)">
              <g id="_10Web_Logo_Icon" data-name="10Web Logo Icon" clip-path="url(#clip-path-3)">
                <g data-type="innerShadowGroup">
                  <g transform="matrix(0.77, -0.64, 0.64, 0.77, -592.67, -10.3)" filter="url(#Union_645)">
                    <path id="Union_645-3" data-name="Union 645" d="M16.888,34.438.219,17.674a.775.775,0,0,1,0-1.079,3.511,3.511,0,0,1,4.969,0l11.6,11.668a.77.77,0,0,0,1.074,0l6.528-6.571a3.525,3.525,0,0,1,4.975,0,.821.821,0,0,1,.1,1.179l-11.5,11.566a.764.764,0,0,1-.539.218A.75.75,0,0,1,16.888,34.438ZM16.01,23.653a2.084,2.084,0,0,1,0-3.04l2.633-2.642a.777.777,0,0,0-.1-.983l-2.828-2.84a2.272,2.272,0,0,1,0-3.04l.1-.1a2.051,2.051,0,0,1,3.019,0l5.853,5.884a.777.777,0,0,1,0,1.079l-5.656,5.682a2.05,2.05,0,0,1-3.019,0Zm-4.969-4.9a2.26,2.26,0,0,1,0-3.04,2.059,2.059,0,0,1,3.018,0l.973.983a.767.767,0,0,1,0,1.079l-.973.978a2.049,2.049,0,0,1-3.018,0Zm18.323-.587L17.664,6.4a.769.769,0,0,0-1.073,0l-6.529,6.571a3.518,3.518,0,0,1-4.969,0,1.242,1.242,0,0,1,.2-1.178L16.787.222a.76.76,0,0,1,1.074,0L34.429,16.987a.764.764,0,0,1,0,1.078l-.1.1a3.518,3.518,0,0,1-4.969,0Z" transform="translate(448.54 402) rotate(40)" fill="#fff"/>
                  </g>
                  <g transform="matrix(0.77, -0.64, 0.64, 0.77, -592.67, -10.3)" filter="url(#Union_645-2)">
                    <path id="Union_645-4" data-name="Union 645" d="M16.888,34.438.219,17.674a.775.775,0,0,1,0-1.079,3.511,3.511,0,0,1,4.969,0l11.6,11.668a.77.77,0,0,0,1.074,0l6.528-6.571a3.525,3.525,0,0,1,4.975,0,.821.821,0,0,1,.1,1.179l-11.5,11.566a.764.764,0,0,1-.539.218A.75.75,0,0,1,16.888,34.438ZM16.01,23.653a2.084,2.084,0,0,1,0-3.04l2.633-2.642a.777.777,0,0,0-.1-.983l-2.828-2.84a2.272,2.272,0,0,1,0-3.04l.1-.1a2.051,2.051,0,0,1,3.019,0l5.853,5.884a.777.777,0,0,1,0,1.079l-5.656,5.682a2.05,2.05,0,0,1-3.019,0Zm-4.969-4.9a2.26,2.26,0,0,1,0-3.04,2.059,2.059,0,0,1,3.018,0l.973.983a.767.767,0,0,1,0,1.079l-.973.978a2.049,2.049,0,0,1-3.018,0Zm18.323-.587L17.664,6.4a.769.769,0,0,0-1.073,0l-6.529,6.571a3.518,3.518,0,0,1-4.969,0,1.242,1.242,0,0,1,.2-1.178L16.787.222a.76.76,0,0,1,1.074,0L34.429,16.987a.764.764,0,0,1,0,1.078l-.1.1a3.518,3.518,0,0,1-4.969,0Z" transform="translate(448.54 402) rotate(40)" fill="#fff"/>
                  </g>
                </g>
              </g>
            </g>
            <g data-type="innerShadowGroup">
              <g id="Path_172851-2" data-name="Path 172851" transform="translate(13549.696 22213.369) rotate(40)" fill="#fff">
                <path d="M9.48,0H236.99a9.48,9.48,0,0,1,9.48,9.48V81.525A9.48,9.48,0,0,1,236.99,91H9.48A9.48,9.48,0,0,1,0,81.525V9.48A9.48,9.48,0,0,1,9.48,0Z" stroke="none"/>
                <path d="M 9.479598999023438 1 C 4.803924560546875 1 0.9999847412109375 4.803932189941406 0.9999847412109375 9.479591369628906 L 0.9999847412109375 81.52455902099609 C 0.9999847412109375 86.20024871826172 4.803924560546875 90.00418090820312 9.479598999023438 90.00418090820312 L 236.9900512695312 90.00418090820312 C 241.6656951904297 90.00418090820312 245.4696350097656 86.20024871826172 245.4696350097656 81.52455902099609 L 245.4696350097656 9.479591369628906 C 245.4696350097656 4.803932189941406 241.6656951904297 1 236.9900512695312 1 L 9.479598999023438 1 M 9.479598999023438 0 L 236.9900512695312 0 C 242.2254791259766 0 246.4696350097656 4.244155883789062 246.4696350097656 9.479591369628906 L 246.4696350097656 81.52455902099609 C 246.4696350097656 86.76002502441406 242.2254791259766 91.00418090820312 236.9900512695312 91.00418090820312 L 9.479598999023438 91.00418090820312 C 4.244140625 91.00418090820312 -1.52587890625e-05 86.76002502441406 -1.52587890625e-05 81.52455902099609 L -1.52587890625e-05 9.479591369628906 C -1.52587890625e-05 4.244155883789062 4.244140625 0 9.479598999023438 0 Z" stroke="none"/>
              </g>
              <g transform="matrix(1, 0, 0, 1, 13134, 21756)" filter="url(#Path_172851)">
                <g id="Path_172851-3" data-name="Path 172851" transform="translate(415.7 457.37) rotate(40)" fill="#fff">
                  <path d="M9.48,0H236.99a9.48,9.48,0,0,1,9.48,9.48V81.525A9.48,9.48,0,0,1,236.99,91H9.48A9.48,9.48,0,0,1,0,81.525V9.48A9.48,9.48,0,0,1,9.48,0Z" stroke="none"/>
                  <path d="M 9.479598999023438 1 C 4.803924560546875 1 0.9999847412109375 4.803932189941406 0.9999847412109375 9.479591369628906 L 0.9999847412109375 81.52455902099609 C 0.9999847412109375 86.20024871826172 4.803924560546875 90.00418090820312 9.479598999023438 90.00418090820312 L 236.9900512695312 90.00418090820312 C 241.6656951904297 90.00418090820312 245.4696350097656 86.20024871826172 245.4696350097656 81.52455902099609 L 245.4696350097656 9.479591369628906 C 245.4696350097656 4.803932189941406 241.6656951904297 1 236.9900512695312 1 L 9.479598999023438 1 M 9.479598999023438 0 L 236.9900512695312 0 C 242.2254791259766 0 246.4696350097656 4.244155883789062 246.4696350097656 9.479591369628906 L 246.4696350097656 81.52455902099609 C 246.4696350097656 86.76002502441406 242.2254791259766 91.00418090820312 236.9900512695312 91.00418090820312 L 9.479598999023438 91.00418090820312 C 4.244140625 91.00418090820312 -1.52587890625e-05 86.76002502441406 -1.52587890625e-05 81.52455902099609 L -1.52587890625e-05 9.479591369628906 C -1.52587890625e-05 4.244155883789062 4.244140625 0 9.479598999023438 0 Z" stroke="none"/>
                </g>
              </g>
              <g id="Path_172851-4" data-name="Path 172851" transform="translate(13549.696 22213.369) rotate(40)" fill="none">
                <path d="M9.48,0H236.99a9.48,9.48,0,0,1,9.48,9.48V81.525A9.48,9.48,0,0,1,236.99,91H9.48A9.48,9.48,0,0,1,0,81.525V9.48A9.48,9.48,0,0,1,9.48,0Z" stroke="none"/>
                <path d="M 9.479598999023438 1 C 4.803924560546875 1 0.9999847412109375 4.803932189941406 0.9999847412109375 9.479591369628906 L 0.9999847412109375 81.52455902099609 C 0.9999847412109375 86.20024871826172 4.803924560546875 90.00418090820312 9.479598999023438 90.00418090820312 L 236.9900512695312 90.00418090820312 C 241.6656951904297 90.00418090820312 245.4696350097656 86.20024871826172 245.4696350097656 81.52455902099609 L 245.4696350097656 9.479591369628906 C 245.4696350097656 4.803932189941406 241.6656951904297 1 236.9900512695312 1 L 9.479598999023438 1 M 9.479598999023438 0 L 236.9900512695312 0 C 242.2254791259766 0 246.4696350097656 4.244155883789062 246.4696350097656 9.479591369628906 L 246.4696350097656 81.52455902099609 C 246.4696350097656 86.76002502441406 242.2254791259766 91.00418090820312 236.9900512695312 91.00418090820312 L 9.479598999023438 91.00418090820312 C 4.244140625 91.00418090820312 -1.52587890625e-05 86.76002502441406 -1.52587890625e-05 81.52455902099609 L -1.52587890625e-05 9.479591369628906 C -1.52587890625e-05 4.244155883789062 4.244140625 0 9.479598999023438 0 Z" stroke="none" fill="rgba(0,0,0,0.15)"/>
              </g>
            </g>
            <g id="Group_174378" data-name="Group 174378" transform="translate(13533.896 22255.797) rotate(40)">
              <text id="Amount_spent" data-name="Amount spent" font-size="10" font-family="Mulish-Regular, Mulish" opacity="0.5"><tspan x="0" y="10">Amount spent</tspan></text>
              <text id="_100" data-name="$100" transform="translate(0 16.115)" font-size="14" font-family="Mulish-ExtraBold, Mulish" font-weight="800" opacity="0.797"><tspan x="0" y="14">$100</tspan></text>
              <text id="Refunded" transform="translate(108.067)" font-size="10" font-family="Mulish-Regular, Mulish" opacity="0.5"><tspan x="0" y="10">Refunded</tspan></text>
              <text id="_70" data-name="$70" transform="translate(108.067 16.115)" font-size="14" font-family="Mulish-ExtraBold, Mulish" font-weight="800" opacity="0.797"><tspan x="0" y="14">$70</tspan></text>
            </g>
            <path id="Path_172858" data-name="Path 172858" d="M0,0H217.083" transform="translate(13541.207 22247.084) rotate(40)" fill="none" stroke="#eaeaea" stroke-width="1"/>
            <g id="Group_174382" data-name="Group 174382" transform="translate(17685.746 -2844.992) rotate(40)">
              <g data-type="innerShadowGroup">
                <g id="Path_172849-2" data-name="Path 172849" transform="translate(12904.998 21618)" fill="#fff">
                  <path d="M6.636,0H137.454a6.636,6.636,0,0,1,6.636,6.636V22.751a6.636,6.636,0,0,1-6.636,6.636H6.636A6.636,6.636,0,0,1,0,22.751V6.636A6.636,6.636,0,0,1,6.636,0Z" stroke="none"/>
                  <path d="M 6.635711669921875 1.000003814697266 C 3.528167724609375 1.000003814697266 1 3.528182983398438 1 6.635723114013672 L 1 22.75104331970215 C 1 25.85858345031738 3.528167724609375 28.38676261901855 6.635711669921875 28.38676261901855 L 137.4542083740234 28.38676261901855 C 140.561767578125 28.38676261901855 143.0899505615234 25.85858345031738 143.0899505615234 22.75104331970215 L 143.0899505615234 6.635723114013672 C 143.0899505615234 3.528182983398438 140.561767578125 1.000003814697266 137.4542083740234 1.000003814697266 L 6.635711669921875 1.000003814697266 M 6.635711669921875 3.814697265625e-06 L 137.4542083740234 3.814697265625e-06 C 141.1190338134766 3.814697265625e-06 144.0899505615234 2.970903396606445 144.0899505615234 6.635723114013672 L 144.0899505615234 22.75104331970215 C 144.0899505615234 26.41584396362305 141.1190338134766 29.38676261901855 137.4542083740234 29.38676261901855 L 6.635711669921875 29.38676261901855 C 2.970916748046875 29.38676261901855 0 26.41584396362305 0 22.75104331970215 L 0 6.635723114013672 C 0 2.970903396606445 2.970916748046875 3.814697265625e-06 6.635711669921875 3.814697265625e-06 Z" stroke="none"/>
                </g>
                <g transform="matrix(0.77, -0.64, 0.64, 0.77, 12326.37, 21771.26)" filter="url(#Path_172849)">
                  <g id="Path_172849-3" data-name="Path 172849" transform="translate(541.76 254.53) rotate(40)" fill="#fff">
                    <path d="M6.636,0H137.454a6.636,6.636,0,0,1,6.636,6.636V22.751a6.636,6.636,0,0,1-6.636,6.636H6.636A6.636,6.636,0,0,1,0,22.751V6.636A6.636,6.636,0,0,1,6.636,0Z" stroke="none"/>
                    <path d="M 6.635711669921875 1.000003814697266 C 3.528167724609375 1.000003814697266 1 3.528182983398438 1 6.635723114013672 L 1 22.75104331970215 C 1 25.85858345031738 3.528167724609375 28.38676261901855 6.635711669921875 28.38676261901855 L 137.4542083740234 28.38676261901855 C 140.561767578125 28.38676261901855 143.0899505615234 25.85858345031738 143.0899505615234 22.75104331970215 L 143.0899505615234 6.635723114013672 C 143.0899505615234 3.528182983398438 140.561767578125 1.000003814697266 137.4542083740234 1.000003814697266 L 6.635711669921875 1.000003814697266 M 6.635711669921875 3.814697265625e-06 L 137.4542083740234 3.814697265625e-06 C 141.1190338134766 3.814697265625e-06 144.0899505615234 2.970903396606445 144.0899505615234 6.635723114013672 L 144.0899505615234 22.75104331970215 C 144.0899505615234 26.41584396362305 141.1190338134766 29.38676261901855 137.4542083740234 29.38676261901855 L 6.635711669921875 29.38676261901855 C 2.970916748046875 29.38676261901855 0 26.41584396362305 0 22.75104331970215 L 0 6.635723114013672 C 0 2.970903396606445 2.970916748046875 3.814697265625e-06 6.635711669921875 3.814697265625e-06 Z" stroke="none"/>
                  </g>
                </g>
                <g id="Path_172849-4" data-name="Path 172849" transform="translate(12904.998 21618)" fill="none">
                  <path d="M6.636,0H137.454a6.636,6.636,0,0,1,6.636,6.636V22.751a6.636,6.636,0,0,1-6.636,6.636H6.636A6.636,6.636,0,0,1,0,22.751V6.636A6.636,6.636,0,0,1,6.636,0Z" stroke="none"/>
                  <path d="M 6.635711669921875 1.000003814697266 C 3.528167724609375 1.000003814697266 1 3.528182983398438 1 6.635723114013672 L 1 22.75104331970215 C 1 25.85858345031738 3.528167724609375 28.38676261901855 6.635711669921875 28.38676261901855 L 137.4542083740234 28.38676261901855 C 140.561767578125 28.38676261901855 143.0899505615234 25.85858345031738 143.0899505615234 22.75104331970215 L 143.0899505615234 6.635723114013672 C 143.0899505615234 3.528182983398438 140.561767578125 1.000003814697266 137.4542083740234 1.000003814697266 L 6.635711669921875 1.000003814697266 M 6.635711669921875 3.814697265625e-06 L 137.4542083740234 3.814697265625e-06 C 141.1190338134766 3.814697265625e-06 144.0899505615234 2.970903396606445 144.0899505615234 6.635723114013672 L 144.0899505615234 22.75104331970215 C 144.0899505615234 26.41584396362305 141.1190338134766 29.38676261901855 137.4542083740234 29.38676261901855 L 6.635711669921875 29.38676261901855 C 2.970916748046875 29.38676261901855 0 26.41584396362305 0 22.75104331970215 L 0 6.635723114013672 C 0 2.970903396606445 2.970916748046875 3.814697265625e-06 6.635711669921875 3.814697265625e-06 Z" stroke="none" fill="rgba(0,0,0,0.15)"/>
                </g>
              </g>
              <g data-type="innerShadowGroup">
                <g transform="matrix(0.77, -0.64, 0.64, 0.77, 12326.37, 21771.26)" filter="url(#Path_172856)">
                  <path id="Path_172856-3" data-name="Path 172856" d="M65.126,11.908a6.5,6.5,0,0,0,1.125-.32,2.227,2.227,0,0,0,.755-.47,2.363,2.363,0,0,0,.5-.745l.187-.428-3-6.766h1.894l2.046,4.937L70.685,3.18h1.792L69.2,10.53a5.643,5.643,0,0,1-.714,1.234,3.561,3.561,0,0,1-.829.783,3.9,3.9,0,0,1-.97.464,7.039,7.039,0,0,1-1.152.261ZM57.977,9.845A2.97,2.97,0,0,1,56.866,8.6a4.413,4.413,0,0,1-.4-1.946,4.383,4.383,0,0,1,.4-1.939,2.9,2.9,0,0,1,1.112-1.24,3.121,3.121,0,0,1,1.651-.437,2.928,2.928,0,0,1,1.6.437,2.107,2.107,0,0,1,.794.858l.122-1.152h1.7c-.027.287-.054.575-.081.869s-.034.581-.034.868v5.223H61.973l-.01-1.058a2.085,2.085,0,0,1-.758.765,2.986,2.986,0,0,1-1.577.437A3.067,3.067,0,0,1,57.977,9.845Zm.8-4.916a2.494,2.494,0,0,0-.512,1.723,2.548,2.548,0,0,0,.5,1.73,1.891,1.891,0,0,0,2.716,0,2.525,2.525,0,0,0,.512-1.73,2.494,2.494,0,0,0-.512-1.723,1.9,1.9,0,0,0-2.709,0Zm50.061,5.137a3.868,3.868,0,0,1-1.3-.6l.5-1.155a4.287,4.287,0,0,0,1.192.549,4.61,4.61,0,0,0,1.321.2A1.906,1.906,0,0,0,111.6,8.82a.735.735,0,0,0,.351-.634.625.625,0,0,0-.223-.5,1.607,1.607,0,0,0-.707-.281L109.6,7.142a2.809,2.809,0,0,1-1.388-.659,1.646,1.646,0,0,1-.479-1.228,1.867,1.867,0,0,1,.364-1.142,2.418,2.418,0,0,1,1.037-.777,4.073,4.073,0,0,1,1.583-.281,5.332,5.332,0,0,1,1.5.209,3.17,3.17,0,0,1,1.186.62L112.9,5a3.653,3.653,0,0,0-2.122-.731,1.809,1.809,0,0,0-1.078.254.794.794,0,0,0-.344.653.656.656,0,0,0,.209.5,1.31,1.31,0,0,0,.647.293l1.421.261a2.86,2.86,0,0,1,1.442.626,1.564,1.564,0,0,1,.492,1.221,1.9,1.9,0,0,1-.384,1.188,2.4,2.4,0,0,1-1.064.757,4.455,4.455,0,0,1-1.583.255A6.259,6.259,0,0,1,108.833,10.066ZM86.842,9.316a3.476,3.476,0,0,1-1.024-2.644,4.017,4.017,0,0,1,.438-1.907A3.193,3.193,0,0,1,87.489,3.5a3.647,3.647,0,0,1,1.839-.457,3.309,3.309,0,0,1,1.738.424,2.746,2.746,0,0,1,1.058,1.2,4.207,4.207,0,0,1,.364,1.808v.457h-4.98a2.123,2.123,0,0,0,.574,1.475,2.25,2.25,0,0,0,1.631.555,4.022,4.022,0,0,0,1.145-.157,3.308,3.308,0,0,0,1.018-.516L92.4,9.447a3.7,3.7,0,0,1-1.226.62,5.11,5.11,0,0,1-1.5.216A3.943,3.943,0,0,1,86.842,9.316Zm4.132-3.29a2.145,2.145,0,0,0-.413-1.28,1.5,1.5,0,0,0-1.22-.509,1.631,1.631,0,0,0-1.361.607,2.354,2.354,0,0,0-.448,1.182Zm12.739,3.609a2.613,2.613,0,0,1-.653-1.945V4.478h-1.381v-1.3h1.381V1.4l1.779-.444v2.22h1.92v1.3h-1.92v3.1a1.419,1.419,0,0,0,.283,1.005,1.062,1.062,0,0,0,.782.287,2.33,2.33,0,0,0,.464-.039,2.455,2.455,0,0,0,.377-.111v1.364a2.528,2.528,0,0,1-.532.144,2.856,2.856,0,0,1-.566.052A2.64,2.64,0,0,1,103.712,9.635Zm-63.933.132a2.287,2.287,0,0,1-.788-.928v1.306h-.869V0h.869V4.536a2.357,2.357,0,0,1,.788-.931,2.909,2.909,0,0,1,1.7-.49,3.088,3.088,0,0,1,1.671.437,2.909,2.909,0,0,1,1.1,1.228,4.285,4.285,0,0,1,.391,1.926,4.235,4.235,0,0,1-.4,1.9,2.892,2.892,0,0,1-1.105,1.227,3.118,3.118,0,0,1-1.657.425A2.879,2.879,0,0,1,39.779,9.767Zm-.162-5.2a3.109,3.109,0,0,0-.647,2.122,3.1,3.1,0,0,0,.647,2.122,2.195,2.195,0,0,0,1.731.731A2.252,2.252,0,0,0,43.1,8.814,3.046,3.046,0,0,0,43.754,6.7,3.094,3.094,0,0,0,43.1,4.57a2.23,2.23,0,0,0-1.752-.738A2.193,2.193,0,0,0,39.618,4.564ZM31.309,9.317a3.5,3.5,0,0,1-.943-2.6,4.058,4.058,0,0,1,.418-1.9,3.125,3.125,0,0,1,1.173-1.247,3.347,3.347,0,0,1,1.751-.451,3.1,3.1,0,0,1,1.611.392,2.586,2.586,0,0,1,1.01,1.116,3.877,3.877,0,0,1,.358,1.717v.385H31.229a2.86,2.86,0,0,0,.707,2.1,2.643,2.643,0,0,0,1.968.718,3.76,3.76,0,0,0,1.226-.2,3.412,3.412,0,0,0,1.1-.66l.357.62a3.148,3.148,0,0,1-1.179.705,4.933,4.933,0,0,1-1.53.248A3.48,3.48,0,0,1,31.309,9.317Zm4.592-3.2a2.676,2.676,0,0,0-.549-1.664A2.031,2.031,0,0,0,33.7,3.787a2.253,2.253,0,0,0-1.82.777,2.836,2.836,0,0,0-.626,1.553ZM7.883,8.983a6.389,6.389,0,0,1-.9-3.7,6.359,6.359,0,0,1,.9-3.7A2.964,2.964,0,0,1,10.457.32a2.952,2.952,0,0,1,2.581,1.26,6.376,6.376,0,0,1,.89,3.688,6.414,6.414,0,0,1-.9,3.715,2.958,2.958,0,0,1-2.574,1.273A2.95,2.95,0,0,1,7.883,8.983ZM8.53,2.1a6.1,6.1,0,0,0-.647,3.179A6.147,6.147,0,0,0,8.53,8.468,2.128,2.128,0,0,0,10.457,9.5a2.126,2.126,0,0,0,1.934-1.031,6.265,6.265,0,0,0,.64-3.2,6.149,6.149,0,0,0-.64-3.179,2.124,2.124,0,0,0-1.934-1.012A2.137,2.137,0,0,0,8.53,2.1Zm90.378,8.05V5.974a1.777,1.777,0,0,0-.337-1.208,1.3,1.3,0,0,0-1-.366,1.728,1.728,0,0,0-1.307.5,1.815,1.815,0,0,0-.485,1.325v3.93H94V4.923c0-.287-.007-.574-.027-.868s-.047-.581-.088-.869h1.725L95.721,4.3a2.458,2.458,0,0,1,.87-.858,3.013,3.013,0,0,1,1.55-.392,2.464,2.464,0,0,1,1.907.692,3.079,3.079,0,0,1,.64,2.147v4.263ZM47.521.425h4.453a3.679,3.679,0,0,1,2.52.77,2.692,2.692,0,0,1,.869,2.122,2.711,2.711,0,0,1-.869,2.122,3.636,3.636,0,0,1-2.52.783h-2.62v3.917H47.521V.425Zm1.839,4.4h2.405a2.054,2.054,0,0,0,1.368-.392,1.391,1.391,0,0,0,.458-1.11,1.389,1.389,0,0,0-.458-1.11,2.051,2.051,0,0,0-1.368-.392H49.359ZM25.165,10.146,22.22,1.7l-3.1,8.448h-.809L14.843.425h.923l2.982,8.459L21.85.425h.741l2.978,8.516L28.642.425h.882l-3.517,9.721ZM0,10.146V9.388H2.379V1.476L.216,2.808V1.927L2.621.425h.64V9.388h2.25v.758Zm82.529,0V5.953a1.989,1.989,0,0,0-.283-1.194,1.084,1.084,0,0,0-.91-.366,1.454,1.454,0,0,0-1.166.5,2.036,2.036,0,0,0-.425,1.358v3.891H77.968V5.953a1.994,1.994,0,0,0-.283-1.194,1.084,1.084,0,0,0-.91-.366,1.43,1.43,0,0,0-1.159.5A2.034,2.034,0,0,0,75.2,6.254v3.891H73.406V4.922c0-.287-.007-.575-.027-.868s-.047-.581-.088-.869h1.725l.113,1.094a2.36,2.36,0,0,1,.777-.833,2.638,2.638,0,0,1,1.475-.4A2.412,2.412,0,0,1,78.8,3.44a1.92,1.92,0,0,1,.7.934,2.47,2.47,0,0,1,.847-.895A2.823,2.823,0,0,1,81.9,3.042a2.244,2.244,0,0,1,1.806.692,3.236,3.236,0,0,1,.6,2.147v4.263Z" transform="translate(547.9 270.81) rotate(40)"/>
                </g>
                <g transform="matrix(0.77, -0.64, 0.64, 0.77, 12326.37, 21771.26)" filter="url(#Path_172856-2)">
                  <path id="Path_172856-4" data-name="Path 172856" d="M65.126,11.908a6.5,6.5,0,0,0,1.125-.32,2.227,2.227,0,0,0,.755-.47,2.363,2.363,0,0,0,.5-.745l.187-.428-3-6.766h1.894l2.046,4.937L70.685,3.18h1.792L69.2,10.53a5.643,5.643,0,0,1-.714,1.234,3.561,3.561,0,0,1-.829.783,3.9,3.9,0,0,1-.97.464,7.039,7.039,0,0,1-1.152.261ZM57.977,9.845A2.97,2.97,0,0,1,56.866,8.6a4.413,4.413,0,0,1-.4-1.946,4.383,4.383,0,0,1,.4-1.939,2.9,2.9,0,0,1,1.112-1.24,3.121,3.121,0,0,1,1.651-.437,2.928,2.928,0,0,1,1.6.437,2.107,2.107,0,0,1,.794.858l.122-1.152h1.7c-.027.287-.054.575-.081.869s-.034.581-.034.868v5.223H61.973l-.01-1.058a2.085,2.085,0,0,1-.758.765,2.986,2.986,0,0,1-1.577.437A3.067,3.067,0,0,1,57.977,9.845Zm.8-4.916a2.494,2.494,0,0,0-.512,1.723,2.548,2.548,0,0,0,.5,1.73,1.891,1.891,0,0,0,2.716,0,2.525,2.525,0,0,0,.512-1.73,2.494,2.494,0,0,0-.512-1.723,1.9,1.9,0,0,0-2.709,0Zm50.061,5.137a3.868,3.868,0,0,1-1.3-.6l.5-1.155a4.287,4.287,0,0,0,1.192.549,4.61,4.61,0,0,0,1.321.2A1.906,1.906,0,0,0,111.6,8.82a.735.735,0,0,0,.351-.634.625.625,0,0,0-.223-.5,1.607,1.607,0,0,0-.707-.281L109.6,7.142a2.809,2.809,0,0,1-1.388-.659,1.646,1.646,0,0,1-.479-1.228,1.867,1.867,0,0,1,.364-1.142,2.418,2.418,0,0,1,1.037-.777,4.073,4.073,0,0,1,1.583-.281,5.332,5.332,0,0,1,1.5.209,3.17,3.17,0,0,1,1.186.62L112.9,5a3.653,3.653,0,0,0-2.122-.731,1.809,1.809,0,0,0-1.078.254.794.794,0,0,0-.344.653.656.656,0,0,0,.209.5,1.31,1.31,0,0,0,.647.293l1.421.261a2.86,2.86,0,0,1,1.442.626,1.564,1.564,0,0,1,.492,1.221,1.9,1.9,0,0,1-.384,1.188,2.4,2.4,0,0,1-1.064.757,4.455,4.455,0,0,1-1.583.255A6.259,6.259,0,0,1,108.833,10.066ZM86.842,9.316a3.476,3.476,0,0,1-1.024-2.644,4.017,4.017,0,0,1,.438-1.907A3.193,3.193,0,0,1,87.489,3.5a3.647,3.647,0,0,1,1.839-.457,3.309,3.309,0,0,1,1.738.424,2.746,2.746,0,0,1,1.058,1.2,4.207,4.207,0,0,1,.364,1.808v.457h-4.98a2.123,2.123,0,0,0,.574,1.475,2.25,2.25,0,0,0,1.631.555,4.022,4.022,0,0,0,1.145-.157,3.308,3.308,0,0,0,1.018-.516L92.4,9.447a3.7,3.7,0,0,1-1.226.62,5.11,5.11,0,0,1-1.5.216A3.943,3.943,0,0,1,86.842,9.316Zm4.132-3.29a2.145,2.145,0,0,0-.413-1.28,1.5,1.5,0,0,0-1.22-.509,1.631,1.631,0,0,0-1.361.607,2.354,2.354,0,0,0-.448,1.182Zm12.739,3.609a2.613,2.613,0,0,1-.653-1.945V4.478h-1.381v-1.3h1.381V1.4l1.779-.444v2.22h1.92v1.3h-1.92v3.1a1.419,1.419,0,0,0,.283,1.005,1.062,1.062,0,0,0,.782.287,2.33,2.33,0,0,0,.464-.039,2.455,2.455,0,0,0,.377-.111v1.364a2.528,2.528,0,0,1-.532.144,2.856,2.856,0,0,1-.566.052A2.64,2.64,0,0,1,103.712,9.635Zm-63.933.132a2.287,2.287,0,0,1-.788-.928v1.306h-.869V0h.869V4.536a2.357,2.357,0,0,1,.788-.931,2.909,2.909,0,0,1,1.7-.49,3.088,3.088,0,0,1,1.671.437,2.909,2.909,0,0,1,1.1,1.228,4.285,4.285,0,0,1,.391,1.926,4.235,4.235,0,0,1-.4,1.9,2.892,2.892,0,0,1-1.105,1.227,3.118,3.118,0,0,1-1.657.425A2.879,2.879,0,0,1,39.779,9.767Zm-.162-5.2a3.109,3.109,0,0,0-.647,2.122,3.1,3.1,0,0,0,.647,2.122,2.195,2.195,0,0,0,1.731.731A2.252,2.252,0,0,0,43.1,8.814,3.046,3.046,0,0,0,43.754,6.7,3.094,3.094,0,0,0,43.1,4.57a2.23,2.23,0,0,0-1.752-.738A2.193,2.193,0,0,0,39.618,4.564ZM31.309,9.317a3.5,3.5,0,0,1-.943-2.6,4.058,4.058,0,0,1,.418-1.9,3.125,3.125,0,0,1,1.173-1.247,3.347,3.347,0,0,1,1.751-.451,3.1,3.1,0,0,1,1.611.392,2.586,2.586,0,0,1,1.01,1.116,3.877,3.877,0,0,1,.358,1.717v.385H31.229a2.86,2.86,0,0,0,.707,2.1,2.643,2.643,0,0,0,1.968.718,3.76,3.76,0,0,0,1.226-.2,3.412,3.412,0,0,0,1.1-.66l.357.62a3.148,3.148,0,0,1-1.179.705,4.933,4.933,0,0,1-1.53.248A3.48,3.48,0,0,1,31.309,9.317Zm4.592-3.2a2.676,2.676,0,0,0-.549-1.664A2.031,2.031,0,0,0,33.7,3.787a2.253,2.253,0,0,0-1.82.777,2.836,2.836,0,0,0-.626,1.553ZM7.883,8.983a6.389,6.389,0,0,1-.9-3.7,6.359,6.359,0,0,1,.9-3.7A2.964,2.964,0,0,1,10.457.32a2.952,2.952,0,0,1,2.581,1.26,6.376,6.376,0,0,1,.89,3.688,6.414,6.414,0,0,1-.9,3.715,2.958,2.958,0,0,1-2.574,1.273A2.95,2.95,0,0,1,7.883,8.983ZM8.53,2.1a6.1,6.1,0,0,0-.647,3.179A6.147,6.147,0,0,0,8.53,8.468,2.128,2.128,0,0,0,10.457,9.5a2.126,2.126,0,0,0,1.934-1.031,6.265,6.265,0,0,0,.64-3.2,6.149,6.149,0,0,0-.64-3.179,2.124,2.124,0,0,0-1.934-1.012A2.137,2.137,0,0,0,8.53,2.1Zm90.378,8.05V5.974a1.777,1.777,0,0,0-.337-1.208,1.3,1.3,0,0,0-1-.366,1.728,1.728,0,0,0-1.307.5,1.815,1.815,0,0,0-.485,1.325v3.93H94V4.923c0-.287-.007-.574-.027-.868s-.047-.581-.088-.869h1.725L95.721,4.3a2.458,2.458,0,0,1,.87-.858,3.013,3.013,0,0,1,1.55-.392,2.464,2.464,0,0,1,1.907.692,3.079,3.079,0,0,1,.64,2.147v4.263ZM47.521.425h4.453a3.679,3.679,0,0,1,2.52.77,2.692,2.692,0,0,1,.869,2.122,2.711,2.711,0,0,1-.869,2.122,3.636,3.636,0,0,1-2.52.783h-2.62v3.917H47.521V.425Zm1.839,4.4h2.405a2.054,2.054,0,0,0,1.368-.392,1.391,1.391,0,0,0,.458-1.11,1.389,1.389,0,0,0-.458-1.11,2.051,2.051,0,0,0-1.368-.392H49.359ZM25.165,10.146,22.22,1.7l-3.1,8.448h-.809L14.843.425h.923l2.982,8.459L21.85.425h.741l2.978,8.516L28.642.425h.882l-3.517,9.721ZM0,10.146V9.388H2.379V1.476L.216,2.808V1.927L2.621.425h.64V9.388h2.25v.758Zm82.529,0V5.953a1.989,1.989,0,0,0-.283-1.194,1.084,1.084,0,0,0-.91-.366,1.454,1.454,0,0,0-1.166.5,2.036,2.036,0,0,0-.425,1.358v3.891H77.968V5.953a1.994,1.994,0,0,0-.283-1.194,1.084,1.084,0,0,0-.91-.366,1.43,1.43,0,0,0-1.159.5A2.034,2.034,0,0,0,75.2,6.254v3.891H73.406V4.922c0-.287-.007-.575-.027-.868s-.047-.581-.088-.869h1.725l.113,1.094a2.36,2.36,0,0,1,.777-.833,2.638,2.638,0,0,1,1.475-.4A2.412,2.412,0,0,1,78.8,3.44a1.92,1.92,0,0,1,.7.934,2.47,2.47,0,0,1,.847-.895A2.823,2.823,0,0,1,81.9,3.042a2.244,2.244,0,0,1,1.806.692,3.236,3.236,0,0,1,.6,2.147v4.263Z" transform="translate(547.9 270.81) rotate(40)" fill="#fff"/>
                </g>
              </g>
            </g>
            <g id="Group_174395" data-name="Group 174395">
              <g data-type="innerShadowGroup">
                <g id="Path_172879-2" data-name="Path 172879" transform="translate(13677.262 22064.135) rotate(40)" fill="url(#linear-gradient)">
                  <path d="M9.379,0H234.467a9.379,9.379,0,0,1,9.379,9.379V93.787a9.379,9.379,0,0,1-9.379,9.379H9.379A9.379,9.379,0,0,1,0,93.787V9.379A9.379,9.379,0,0,1,9.379,0Z" stroke="none"/>
                  <path d="M 9.378677368164062 0.9999923706054688 C 4.758651733398438 0.9999923706054688 0.9999847412109375 4.758651733398438 0.9999847412109375 9.378684997558594 L 0.9999847412109375 93.786865234375 C 0.9999847412109375 98.40689849853516 4.758651733398438 102.1655578613281 9.378677368164062 102.1655578613281 L 234.4671478271484 102.1655578613281 C 239.0871734619141 102.1655578613281 242.8458709716797 98.40689849853516 242.8458709716797 93.786865234375 L 242.8458709716797 9.378684997558594 C 242.8458709716797 4.758651733398438 239.0871734619141 0.9999923706054688 234.4671478271484 0.9999923706054688 L 9.378677368164062 0.9999923706054688 M 9.378677368164062 -7.62939453125e-06 L 234.4671478271484 -7.62939453125e-06 C 239.6468658447266 -7.62939453125e-06 243.8458709716797 4.198997497558594 243.8458709716797 9.378684997558594 L 243.8458709716797 93.786865234375 C 243.8458709716797 98.966552734375 239.6468658447266 103.1655578613281 234.4671478271484 103.1655578613281 L 9.378677368164062 103.1655578613281 C 4.198959350585938 103.1655578613281 -1.52587890625e-05 98.966552734375 -1.52587890625e-05 93.786865234375 L -1.52587890625e-05 9.378684997558594 C -1.52587890625e-05 4.198997497558594 4.198959350585938 -7.62939453125e-06 9.378677368164062 -7.62939453125e-06 Z" stroke="none"/>
                </g>
                <g transform="matrix(1, 0, 0, 1, 13134, 21756)" filter="url(#Path_172879)">
                  <g id="Path_172879-3" data-name="Path 172879" transform="translate(543.26 308.13) rotate(40)" fill="#fff">
                    <path d="M9.379,0H234.467a9.379,9.379,0,0,1,9.379,9.379V93.787a9.379,9.379,0,0,1-9.379,9.379H9.379A9.379,9.379,0,0,1,0,93.787V9.379A9.379,9.379,0,0,1,9.379,0Z" stroke="none"/>
                    <path d="M 9.378677368164062 0.9999923706054688 C 4.758651733398438 0.9999923706054688 0.9999847412109375 4.758651733398438 0.9999847412109375 9.378684997558594 L 0.9999847412109375 93.786865234375 C 0.9999847412109375 98.40689849853516 4.758651733398438 102.1655578613281 9.378677368164062 102.1655578613281 L 234.4671478271484 102.1655578613281 C 239.0871734619141 102.1655578613281 242.8458709716797 98.40689849853516 242.8458709716797 93.786865234375 L 242.8458709716797 9.378684997558594 C 242.8458709716797 4.758651733398438 239.0871734619141 0.9999923706054688 234.4671478271484 0.9999923706054688 L 9.378677368164062 0.9999923706054688 M 9.378677368164062 -7.62939453125e-06 L 234.4671478271484 -7.62939453125e-06 C 239.6468658447266 -7.62939453125e-06 243.8458709716797 4.198997497558594 243.8458709716797 9.378684997558594 L 243.8458709716797 93.786865234375 C 243.8458709716797 98.966552734375 239.6468658447266 103.1655578613281 234.4671478271484 103.1655578613281 L 9.378677368164062 103.1655578613281 C 4.198959350585938 103.1655578613281 -1.52587890625e-05 98.966552734375 -1.52587890625e-05 93.786865234375 L -1.52587890625e-05 9.378684997558594 C -1.52587890625e-05 4.198997497558594 4.198959350585938 -7.62939453125e-06 9.378677368164062 -7.62939453125e-06 Z" stroke="none"/>
                  </g>
                </g>
                <g id="Path_172879-4" data-name="Path 172879" transform="translate(13677.262 22064.135) rotate(40)" fill="none">
                  <path d="M9.379,0H234.467a9.379,9.379,0,0,1,9.379,9.379V93.787a9.379,9.379,0,0,1-9.379,9.379H9.379A9.379,9.379,0,0,1,0,93.787V9.379A9.379,9.379,0,0,1,9.379,0Z" stroke="none"/>
                  <path d="M 9.378677368164062 0.9999923706054688 C 4.758651733398438 0.9999923706054688 0.9999847412109375 4.758651733398438 0.9999847412109375 9.378684997558594 L 0.9999847412109375 93.786865234375 C 0.9999847412109375 98.40689849853516 4.758651733398438 102.1655578613281 9.378677368164062 102.1655578613281 L 234.4671478271484 102.1655578613281 C 239.0871734619141 102.1655578613281 242.8458709716797 98.40689849853516 242.8458709716797 93.786865234375 L 242.8458709716797 9.378684997558594 C 242.8458709716797 4.758651733398438 239.0871734619141 0.9999923706054688 234.4671478271484 0.9999923706054688 L 9.378677368164062 0.9999923706054688 M 9.378677368164062 -7.62939453125e-06 L 234.4671478271484 -7.62939453125e-06 C 239.6468658447266 -7.62939453125e-06 243.8458709716797 4.198997497558594 243.8458709716797 9.378684997558594 L 243.8458709716797 93.786865234375 C 243.8458709716797 98.966552734375 239.6468658447266 103.1655578613281 234.4671478271484 103.1655578613281 L 9.378677368164062 103.1655578613281 C 4.198959350585938 103.1655578613281 -1.52587890625e-05 98.966552734375 -1.52587890625e-05 93.786865234375 L -1.52587890625e-05 9.378684997558594 C -1.52587890625e-05 4.198997497558594 4.198959350585938 -7.62939453125e-06 9.378677368164062 -7.62939453125e-06 Z" stroke="none" fill="rgba(255,255,255,0.15)"/>
                </g>
              </g>
              <path id="Path_172880" data-name="Path 172880" d="M.88,9.562V2.95h2.7a2.4,2.4,0,0,1,1.613.492,1.716,1.716,0,0,1,.572,1.374,1.814,1.814,0,0,1-.258.989,1.658,1.658,0,0,1-.722.624A2.547,2.547,0,0,1,3.7,6.645l.169-.122h.188a1.289,1.289,0,0,1,.689.188,1.258,1.258,0,0,1,.483.628L6.17,9.562H5.316l-.9-2.185a.877.877,0,0,0-.478-.549,2.174,2.174,0,0,0-.8-.127H1.658v2.86Zm.778-3.47h1.81a1.744,1.744,0,0,0,1.14-.324A1.145,1.145,0,0,0,5,4.835a1.131,1.131,0,0,0-.389-.928,1.762,1.762,0,0,0-1.14-.319H1.658ZM9.274,9.646A2.347,2.347,0,0,1,7.529,9a2.425,2.425,0,0,1-.638-1.787,2.791,2.791,0,0,1,.281-1.29,2.08,2.08,0,0,1,.788-.853,2.211,2.211,0,0,1,1.163-.3,2.035,2.035,0,0,1,1.088.272,1.758,1.758,0,0,1,.675.774A2.779,2.779,0,0,1,11.122,7v.281H7.473V6.8h3.151l-.159.122a1.83,1.83,0,0,0-.338-1.172,1.208,1.208,0,0,0-1-.422,1.327,1.327,0,0,0-1.1.492,2.065,2.065,0,0,0-.394,1.327v.084a1.859,1.859,0,0,0,.436,1.336,1.616,1.616,0,0,0,1.224.455,2.434,2.434,0,0,0,.792-.127,2.154,2.154,0,0,0,.708-.417l.263.535a2.087,2.087,0,0,1-.783.464A3.029,3.029,0,0,1,9.274,9.646Zm4.342-.084L11.6,4.854h.825L14.113,9H13.86l1.707-4.145h.788L14.338,9.562Zm5.618.084A2.347,2.347,0,0,1,17.49,9a2.425,2.425,0,0,1-.638-1.787,2.791,2.791,0,0,1,.281-1.29,2.08,2.08,0,0,1,.788-.853,2.211,2.211,0,0,1,1.163-.3,2.035,2.035,0,0,1,1.088.272,1.758,1.758,0,0,1,.675.774A2.779,2.779,0,0,1,21.082,7v.281H17.433V6.8h3.151l-.159.122a1.83,1.83,0,0,0-.338-1.172,1.208,1.208,0,0,0-1-.422,1.327,1.327,0,0,0-1.1.492,2.065,2.065,0,0,0-.394,1.327v.084a1.859,1.859,0,0,0,.436,1.336,1.616,1.616,0,0,0,1.224.455,2.434,2.434,0,0,0,.792-.127,2.154,2.154,0,0,0,.708-.417l.263.535a2.087,2.087,0,0,1-.783.464A3.029,3.029,0,0,1,19.234,9.646Zm3.011-.084V5.942q0-.263-.023-.539t-.052-.549H22.9l.094,1.032h-.113a1.629,1.629,0,0,1,.661-.83A1.94,1.94,0,0,1,24.6,4.769a1.668,1.668,0,0,1,1.261.445,1.97,1.97,0,0,1,.427,1.4V9.562h-.76v-2.9a1.452,1.452,0,0,0-.267-.971,1.047,1.047,0,0,0-.83-.3,1.37,1.37,0,0,0-1.041.4A1.5,1.5,0,0,0,23,6.87V9.562Zm7.156.084a1.638,1.638,0,0,1-1.261-.46,2.009,2.009,0,0,1-.427-1.407V4.854h.76V7.761a1.437,1.437,0,0,0,.263.952,1.02,1.02,0,0,0,.816.3,1.293,1.293,0,0,0,.994-.4,1.52,1.52,0,0,0,.375-1.079V4.854h.76V9.562h-.741V8.5h.122a1.69,1.69,0,0,1-.633.844A1.767,1.767,0,0,1,29.4,9.646Zm5.843,0A2.347,2.347,0,0,1,33.5,9a2.425,2.425,0,0,1-.638-1.787,2.791,2.791,0,0,1,.281-1.29,2.08,2.08,0,0,1,.788-.853,2.211,2.211,0,0,1,1.163-.3,2.035,2.035,0,0,1,1.088.272,1.758,1.758,0,0,1,.675.774A2.779,2.779,0,0,1,37.091,7v.281H33.443V6.8h3.151l-.159.122A1.83,1.83,0,0,0,36.1,5.754a1.208,1.208,0,0,0-1-.422,1.327,1.327,0,0,0-1.1.492A2.065,2.065,0,0,0,33.6,7.152v.084a1.859,1.859,0,0,0,.436,1.336,1.616,1.616,0,0,0,1.224.455,2.434,2.434,0,0,0,.792-.127,2.155,2.155,0,0,0,.708-.417l.263.535a2.087,2.087,0,0,1-.783.464A3.029,3.029,0,0,1,35.244,9.646Z" transform="translate(13681.598 22082.225) rotate(40)" fill="#fff" opacity="0.5"/>
              <path id="Path_172881" data-name="Path 172881" d="M4.251,19.024V16.779l.456.405a8.75,8.75,0,0,1-2.347-.371,5.957,5.957,0,0,1-1.874-.928l.743-2.06a6.415,6.415,0,0,0,1.756.878,6.574,6.574,0,0,0,2.06.321,2.837,2.837,0,0,0,1.671-.38,1.121,1.121,0,0,0,.506-.92.912.912,0,0,0-.355-.743,3.177,3.177,0,0,0-1.232-.49l-1.857-.405A4.319,4.319,0,0,1,1.465,10.93a3.015,3.015,0,0,1-.76-2.136,3.326,3.326,0,0,1,.5-1.806A3.718,3.718,0,0,1,2.588,5.7a5.166,5.166,0,0,1,2.085-.591l-.422.27V3.24H6.26V5.384l-.422-.3a7.4,7.4,0,0,1,1.941.4,4.029,4.029,0,0,1,1.553.937L8.589,8.338a4.282,4.282,0,0,0-1.452-.819,5.574,5.574,0,0,0-1.789-.279,2.673,2.673,0,0,0-1.578.405A1.236,1.236,0,0,0,3.2,8.693a.962.962,0,0,0,.346.768,2.819,2.819,0,0,0,1.19.481l1.84.405a4.63,4.63,0,0,1,2.389,1.131,2.8,2.8,0,0,1,.785,2.06,3.211,3.211,0,0,1-.49,1.764,3.644,3.644,0,0,1-1.351,1.241,5.463,5.463,0,0,1-2.009.608l.355-.388v2.262Zm10.973-1.756a7.37,7.37,0,0,1-1.57-.169,7.687,7.687,0,0,1-1.452-.464,4.254,4.254,0,0,1-1.131-.7l.827-1.958a6.291,6.291,0,0,0,1.587.827,5.116,5.116,0,0,0,1.688.287,2.294,2.294,0,0,0,1.528-.464,1.581,1.581,0,0,0,.549-1.275,1.7,1.7,0,0,0-.523-1.3,2.017,2.017,0,0,0-1.435-.49,2.976,2.976,0,0,0-1.19.236,2.824,2.824,0,0,0-.988.726H11.425V5.181h7.6V7.325H13.907V10.55H13.3a2.753,2.753,0,0,1,1.114-.81,4.376,4.376,0,0,1,3.554.194,3.393,3.393,0,0,1,1.325,1.334,4.06,4.06,0,0,1,.473,2,3.935,3.935,0,0,1-.549,2.085,3.718,3.718,0,0,1-1.57,1.41A5.4,5.4,0,0,1,15.224,17.269Zm10.129,0a5.42,5.42,0,0,1-3.334-.912,2.977,2.977,0,0,1-1.207-2.515,2.975,2.975,0,0,1,.76-2.093,3.094,3.094,0,0,1,1.958-.979v.439a3.048,3.048,0,0,1-1.747-1.038,2.924,2.924,0,0,1-.667-1.933,2.817,2.817,0,0,1,1.14-2.38A5.024,5.024,0,0,1,25.353,5a5.017,5.017,0,0,1,3.106.861,2.825,2.825,0,0,1,1.131,2.38,3.084,3.084,0,0,1-.633,1.958,2.574,2.574,0,0,1-1.68.979v-.405a2.975,2.975,0,0,1,2.634,3.072A2.977,2.977,0,0,1,28.7,16.357,5.451,5.451,0,0,1,25.353,17.269Zm0-2.009a2.647,2.647,0,0,0,1.612-.405,1.413,1.413,0,0,0,.532-1.2,1.39,1.39,0,0,0-.532-1.19,2.69,2.69,0,0,0-1.612-.4,2.7,2.7,0,0,0-1.6.4,1.381,1.381,0,0,0-.54,1.19,1.4,1.4,0,0,0,.54,1.2A2.653,2.653,0,0,0,25.353,15.26Zm0-5.2a2.016,2.016,0,0,0,1.367-.414,1.415,1.415,0,0,0,.473-1.123A1.39,1.39,0,0,0,26.72,7.41,2.045,2.045,0,0,0,25.353,7,2.016,2.016,0,0,0,24,7.41a1.39,1.39,0,0,0-.473,1.114A1.415,1.415,0,0,0,24,9.647,1.988,1.988,0,0,0,25.353,10.06Zm7.107,9.454-1-.793a4.271,4.271,0,0,0,.844-1.114,2.562,2.562,0,0,0,.253-1.131l.54.608H31.244v-2.7h2.735v1.739a4.439,4.439,0,0,1-.338,1.756A5.362,5.362,0,0,1,32.46,19.514Zm3.579-2.431V15.142l3.781-3.933a6.862,6.862,0,0,0,1.03-1.317,2.393,2.393,0,0,0,.321-1.182,1.377,1.377,0,0,0-.49-1.148,2.21,2.21,0,0,0-1.4-.388,4.182,4.182,0,0,0-1.494.279,5.283,5.283,0,0,0-1.443.853L35.515,6.38a5.453,5.453,0,0,1,1.84-1.013A7.06,7.06,0,0,1,39.635,5a4.655,4.655,0,0,1,3.056.886,3.1,3.1,0,0,1,1.064,2.524,4.558,4.558,0,0,1-.506,2.093,8.459,8.459,0,0,1-1.638,2.11L38.571,15.6v-.675h5.638v2.161Zm10.6,0V14.922h2.7V7.376h1.232L46.927,9.5V7.038L50.1,5.181h1.874v9.741h2.532v2.161Zm10.129,0V14.922h2.7V7.376H60.7L57.056,9.5V7.038L60.23,5.181H62.1v9.741h2.532v2.161Zm10.467,2.431-1-.793a4.271,4.271,0,0,0,.844-1.114,2.562,2.562,0,0,0,.253-1.131l.54.608H66.021v-2.7h2.735v1.739a4.44,4.44,0,0,1-.338,1.756A5.362,5.362,0,0,1,67.236,19.514Zm7.411-2.245a3.818,3.818,0,0,1-3.3-1.612,7.712,7.712,0,0,1-1.156-4.55,7.571,7.571,0,0,1,1.156-4.55,4.277,4.277,0,0,1,6.609,0A7.579,7.579,0,0,1,79.1,11.09a7.789,7.789,0,0,1-1.148,4.566A3.813,3.813,0,0,1,74.647,17.269Zm0-2.127a1.552,1.552,0,0,0,1.46-.971,7.34,7.34,0,0,0,.481-3.081,7.032,7.032,0,0,0-.481-3.039,1.613,1.613,0,0,0-2.921,0,6.98,6.98,0,0,0-.481,3.022,7.28,7.28,0,0,0,.49,3.1A1.557,1.557,0,0,0,74.647,15.142Zm10.129,2.127a3.818,3.818,0,0,1-3.3-1.612,7.712,7.712,0,0,1-1.156-4.55,7.571,7.571,0,0,1,1.156-4.55,4.277,4.277,0,0,1,6.609,0,7.58,7.58,0,0,1,1.148,4.533,7.789,7.789,0,0,1-1.148,4.566A3.813,3.813,0,0,1,84.776,17.269Zm0-2.127a1.552,1.552,0,0,0,1.46-.971,7.34,7.34,0,0,0,.481-3.081,7.033,7.033,0,0,0-.481-3.039,1.613,1.613,0,0,0-2.921,0,6.979,6.979,0,0,0-.481,3.022,7.28,7.28,0,0,0,.49,3.1A1.557,1.557,0,0,0,84.776,15.142Z" transform="translate(13669.572 22096.596) rotate(40)" fill="#fff" opacity="0.797"/>
              <path id="Path_172882" data-name="Path 172882" d="M1.11,9.556v-1H2.629v-4.6h.581L1.26,5.12V3.975L2.976,2.944h.863V8.552H5.265v1Zm7.477.094a2.933,2.933,0,0,1-1.815-.5,1.636,1.636,0,0,1-.652-1.379A1.64,1.64,0,0,1,6.543,6.62a1.727,1.727,0,0,1,1.1-.544v.2A1.708,1.708,0,0,1,6.66,5.7a1.606,1.606,0,0,1-.37-1.069A1.56,1.56,0,0,1,6.9,3.324,2.693,2.693,0,0,1,8.587,2.85a2.71,2.71,0,0,1,1.693.474,1.56,1.56,0,0,1,.614,1.308,1.7,1.7,0,0,1-.352,1.079,1.479,1.479,0,0,1-.952.553V6.076a1.691,1.691,0,0,1,1.069.549,1.668,1.668,0,0,1,.4,1.149,1.636,1.636,0,0,1-.652,1.379A2.95,2.95,0,0,1,8.587,9.65Zm0-.938a1.675,1.675,0,0,0,1.022-.258.9.9,0,0,0,.338-.764.889.889,0,0,0-.338-.76,1.7,1.7,0,0,0-1.022-.253A1.7,1.7,0,0,0,7.57,6.93a.884.884,0,0,0-.342.76.9.9,0,0,0,.342.764A1.678,1.678,0,0,0,8.587,8.712Zm0-2.973a1.322,1.322,0,0,0,.886-.263.9.9,0,0,0,.3-.722.878.878,0,0,0-.3-.708,1.338,1.338,0,0,0-.886-.258,1.322,1.322,0,0,0-.877.258.878.878,0,0,0-.3.708.9.9,0,0,0,.3.722A1.306,1.306,0,0,0,8.587,5.739Zm5.9,3.817h-1l3.9-6.612h1ZM13.56,6.892a1.531,1.531,0,0,1-1.247-.544,2.255,2.255,0,0,1-.45-1.482,2.216,2.216,0,0,1,.455-1.482A1.546,1.546,0,0,1,13.56,2.85a1.531,1.531,0,0,1,1.247.544,2.239,2.239,0,0,1,.45,1.472,2.255,2.255,0,0,1-.45,1.482A1.531,1.531,0,0,1,13.56,6.892Zm0-.75a.6.6,0,0,0,.539-.309,1.881,1.881,0,0,0,.192-.966,1.824,1.824,0,0,0-.192-.961.643.643,0,0,0-1.079,0,1.82,1.82,0,0,0-.192.966,1.874,1.874,0,0,0,.192.975A.606.606,0,0,0,13.56,6.142ZM18.315,9.65A1.525,1.525,0,0,1,17.068,9.1a2.274,2.274,0,0,1-.45-1.487,2.2,2.2,0,0,1,.455-1.477,1.717,1.717,0,0,1,2.49.009,2.22,2.22,0,0,1,.45,1.468,2.274,2.274,0,0,1-.45,1.487A1.525,1.525,0,0,1,18.315,9.65Zm0-.76a.6.6,0,0,0,.539-.3,1.878,1.878,0,0,0,.192-.971,1.824,1.824,0,0,0-.192-.961.64.64,0,0,0-1.079,0,1.824,1.824,0,0,0-.192.961,1.874,1.874,0,0,0,.192.975A.606.606,0,0,0,18.315,8.89Z" transform="translate(13651.135 22137.475) rotate(40)" fill="#22b339"/>
              <path id="design_system_icons-58" data-name="design system icons-58" d="M20.108,15.2l.921-1.131v5.8l1.381.022V14.024l.837,1.087,1.03-.921-2.043-2.446a.666.666,0,0,0-.5-.219.714.714,0,0,0-.5.219l-2.105,2.446Z" transform="translate(13635.854 22112.494) rotate(40)" fill="#22b339"/>
            </g>
            <path id="Path_172883" data-name="Path 172883" d="M.087,11.606a2.063,2.063,0,0,1-.328-.033,1.944,1.944,0,0,1-.328-.08v-.638a2.587,2.587,0,0,0,.263.07,1.32,1.32,0,0,0,.281.033A.7.7,0,0,0,.56,10.71,1.34,1.34,0,0,0,.752,9.9V4.835h.76v5.14a1.836,1.836,0,0,1-.352,1.219A1.334,1.334,0,0,1,.087,11.606ZM.668,3.765V2.912H1.6v.853ZM4.729,9.627a2.015,2.015,0,0,1-1.1-.3A1.952,1.952,0,0,1,2.9,8.492a3.021,3.021,0,0,1-.258-1.3A3.045,3.045,0,0,1,2.9,5.876a1.922,1.922,0,0,1,.727-.835,2.04,2.04,0,0,1,1.1-.291,1.878,1.878,0,0,1,1.1.324,1.521,1.521,0,0,1,.614.877H6.333l.1-1.116h.732q-.028.272-.052.549t-.023.539v3.62h-.76V8.436h.1a1.5,1.5,0,0,1-.619.872A1.888,1.888,0,0,1,4.729,9.627Zm.15-.619a1.329,1.329,0,0,0,1.069-.464,2.043,2.043,0,0,0,.394-1.355,2.06,2.06,0,0,0-.394-1.365A1.329,1.329,0,0,0,4.879,5.36a1.332,1.332,0,0,0-1.064.464,2.043,2.043,0,0,0-.4,1.365,2.027,2.027,0,0,0,.4,1.355A1.332,1.332,0,0,0,4.879,9.008Zm3.686.535V5.923q0-.263-.023-.539T8.49,4.835h.732l.094,1.032H9.2a1.629,1.629,0,0,1,.661-.83,1.94,1.94,0,0,1,1.055-.286A1.668,1.668,0,0,1,12.18,5.2a1.97,1.97,0,0,1,.427,1.4V9.543h-.76v-2.9a1.452,1.452,0,0,0-.267-.971,1.047,1.047,0,0,0-.83-.3,1.37,1.37,0,0,0-1.041.4,1.5,1.5,0,0,0-.385,1.079V9.543Zm7.587.084a2.347,2.347,0,0,1-1.744-.642A2.425,2.425,0,0,1,13.77,7.2a2.791,2.791,0,0,1,.281-1.29,2.08,2.08,0,0,1,.788-.853A2.211,2.211,0,0,1,16,4.75a2.035,2.035,0,0,1,1.088.272,1.758,1.758,0,0,1,.675.774A2.779,2.779,0,0,1,18,6.982v.281H14.351V6.785H17.5l-.159.122a1.83,1.83,0,0,0-.338-1.172,1.208,1.208,0,0,0-1-.422,1.327,1.327,0,0,0-1.1.492,2.065,2.065,0,0,0-.394,1.327v.084a1.859,1.859,0,0,0,.436,1.336,1.616,1.616,0,0,0,1.224.455,2.434,2.434,0,0,0,.792-.127,2.154,2.154,0,0,0,.708-.417L17.934,9a2.087,2.087,0,0,1-.783.464A3.029,3.029,0,0,1,16.152,9.627Zm6.921,1.444a4.654,4.654,0,0,1-1.669-.286,3.61,3.61,0,0,1-1.285-.821,3.655,3.655,0,0,1-.825-1.29A4.651,4.651,0,0,1,19,6.992,4.558,4.558,0,0,1,19.3,5.3,3.7,3.7,0,0,1,20.166,4,3.93,3.93,0,0,1,21.5,3.146a4.632,4.632,0,0,1,1.7-.3,4.243,4.243,0,0,1,1.965.431,3.189,3.189,0,0,1,1.308,1.215,3.5,3.5,0,0,1,.469,1.834A3.856,3.856,0,0,1,26.7,7.733a2.155,2.155,0,0,1-.647.928,1.52,1.52,0,0,1-.975.328,1.088,1.088,0,0,1-.853-.324,1.114,1.114,0,0,1-.244-.877l.169.047a1.929,1.929,0,0,1-.68.858,1.634,1.634,0,0,1-.933.3,1.464,1.464,0,0,1-1.149-.455,1.808,1.808,0,0,1-.408-1.252,2.741,2.741,0,0,1,.267-1.233,2.087,2.087,0,0,1,.736-.844,1.918,1.918,0,0,1,1.069-.3,1.4,1.4,0,0,1,.868.253,1.186,1.186,0,0,1,.436.713h-.113l.159-.882h.619l-.431,2.429q-.019.122-.033.234a1.674,1.674,0,0,0-.014.206.674.674,0,0,0,.145.469.561.561,0,0,0,.436.159.915.915,0,0,0,.657-.272,1.823,1.823,0,0,0,.441-.755,3.612,3.612,0,0,0,.159-1.13,2.994,2.994,0,0,0-.394-1.562,2.646,2.646,0,0,0-1.111-1.022A3.7,3.7,0,0,0,23.2,3.381a3.832,3.832,0,0,0-1.89.45,3.149,3.149,0,0,0-1.257,1.261,3.884,3.884,0,0,0-.445,1.9,4.018,4.018,0,0,0,.422,1.9,2.917,2.917,0,0,0,1.205,1.224,3.794,3.794,0,0,0,1.843.427,4.006,4.006,0,0,0,1.416-.239,2.719,2.719,0,0,0,1.05-.68l.309.46a2.964,2.964,0,0,1-1.186.732A4.8,4.8,0,0,1,23.074,11.071Zm-.45-2.626a1.264,1.264,0,0,0,.769-.249,1.653,1.653,0,0,0,.53-.689,2.487,2.487,0,0,0,.192-1,1.167,1.167,0,0,0-.234-.8.946.946,0,0,0-.741-.263,1.337,1.337,0,0,0-.774.234,1.6,1.6,0,0,0-.539.647,2.2,2.2,0,0,0-.2.957,1.287,1.287,0,0,0,.258.863A.918.918,0,0,0,22.623,8.445Zm7.7,3.189a4.016,4.016,0,0,1-1.125-.15,2.868,2.868,0,0,1-.928-.46l.225-.572a3.178,3.178,0,0,0,.572.328,2.921,2.921,0,0,0,.581.183,3.2,3.2,0,0,0,.638.061,1.4,1.4,0,0,0,1.05-.366,1.43,1.43,0,0,0,.356-1.041V8.239h.094a1.515,1.515,0,0,1-.619.877,1.884,1.884,0,0,1-1.1.324,2.126,2.126,0,0,1-1.121-.286,1.9,1.9,0,0,1-.732-.816,2.833,2.833,0,0,1-.258-1.252,2.779,2.779,0,0,1,.258-1.238,1.9,1.9,0,0,1,.732-.811A2.126,2.126,0,0,1,30.07,4.75a1.9,1.9,0,0,1,1.1.319,1.5,1.5,0,0,1,.614.882l-.094-.094.084-1.022h.741q-.038.272-.056.549t-.019.539V9.515A2.139,2.139,0,0,1,31.9,11.1,2.153,2.153,0,0,1,30.323,11.634Zm-.113-2.814a1.352,1.352,0,0,0,1.079-.455,1.9,1.9,0,0,0,.394-1.28,1.876,1.876,0,0,0-.394-1.276,1.359,1.359,0,0,0-1.079-.45,1.377,1.377,0,0,0-1.079.45,1.847,1.847,0,0,0-.4,1.276,1.866,1.866,0,0,0,.4,1.28A1.37,1.37,0,0,0,30.211,8.821Zm3.7.722V5.923q0-.263-.023-.539t-.052-.549h.732l.094,1.032h-.113A1.581,1.581,0,0,1,36.129,4.75a1.546,1.546,0,0,1,.961.281,1.438,1.438,0,0,1,.5.872h-.141a1.614,1.614,0,0,1,.628-.844,1.808,1.808,0,0,1,1.05-.309A1.483,1.483,0,0,1,40.3,5.2,2.081,2.081,0,0,1,40.7,6.6V9.543h-.76v-2.9a1.6,1.6,0,0,0-.234-.971.887.887,0,0,0-.75-.3,1.154,1.154,0,0,0-.933.408,1.645,1.645,0,0,0-.342,1.093V9.543h-.76v-2.9a1.6,1.6,0,0,0-.234-.971.887.887,0,0,0-.75-.3A1.14,1.14,0,0,0,35,5.777a1.66,1.66,0,0,0-.338,1.093V9.543Zm10.026.084a2.015,2.015,0,0,1-1.1-.3,1.952,1.952,0,0,1-.727-.839,3.02,3.02,0,0,1-.258-1.3,3.045,3.045,0,0,1,.258-1.313,1.922,1.922,0,0,1,.727-.835,2.04,2.04,0,0,1,1.1-.291,1.878,1.878,0,0,1,1.1.324,1.521,1.521,0,0,1,.614.877h-.113l.1-1.116h.732q-.028.272-.052.549t-.023.539v3.62h-.76V8.436h.1a1.5,1.5,0,0,1-.619.872A1.888,1.888,0,0,1,43.932,9.627Zm.15-.619a1.329,1.329,0,0,0,1.069-.464,2.043,2.043,0,0,0,.394-1.355,2.06,2.06,0,0,0-.394-1.365,1.458,1.458,0,0,0-2.134,0,2.043,2.043,0,0,0-.4,1.365,2.027,2.027,0,0,0,.4,1.355A1.332,1.332,0,0,0,44.082,9.008Zm3.686.535V4.835h.76V9.543Zm-.094-5.777V2.912h.938v.853ZM50,9.543V2.64h.76v6.9Zm2.082,0V8.586h.957v.957Zm4.061.084a2.337,2.337,0,0,1-1.205-.3,2,2,0,0,1-.788-.853,2.9,2.9,0,0,1-.277-1.313,2.8,2.8,0,0,1,.281-1.308,1.932,1.932,0,0,1,.792-.821,2.441,2.441,0,0,1,1.2-.281,2.486,2.486,0,0,1,.877.159,1.886,1.886,0,0,1,.708.45l-.272.544a1.868,1.868,0,0,0-.614-.4,1.77,1.77,0,0,0-.652-.131,1.43,1.43,0,0,0-1.135.46,1.976,1.976,0,0,0-.4,1.341,2.036,2.036,0,0,0,.4,1.351A1.4,1.4,0,0,0,56.19,9a1.865,1.865,0,0,0,.642-.122,1.776,1.776,0,0,0,.624-.4l.272.535a1.909,1.909,0,0,1-.722.46A2.474,2.474,0,0,1,56.143,9.627Zm4.5,0a2.277,2.277,0,0,1-1.177-.3,1.968,1.968,0,0,1-.774-.844,2.894,2.894,0,0,1-.272-1.3,2.887,2.887,0,0,1,.272-1.3,1.973,1.973,0,0,1,.774-.839,2.511,2.511,0,0,1,2.363,0,2,2,0,0,1,.778.839,2.846,2.846,0,0,1,.277,1.3,2.853,2.853,0,0,1-.277,1.3,2,2,0,0,1-.778.844A2.3,2.3,0,0,1,60.645,9.627Zm0-.619a1.329,1.329,0,0,0,1.069-.464,2.043,2.043,0,0,0,.394-1.355,2.043,2.043,0,0,0-.4-1.365,1.332,1.332,0,0,0-1.064-.464,1.319,1.319,0,0,0-1.06.464,2.06,2.06,0,0,0-.394,1.365,2.043,2.043,0,0,0,.394,1.355A1.319,1.319,0,0,0,60.645,9.008Zm3.423.535V5.923q0-.263-.023-.539t-.052-.549h.732l.094,1.032h-.113A1.581,1.581,0,0,1,66.291,4.75a1.546,1.546,0,0,1,.961.281,1.438,1.438,0,0,1,.5.872h-.141a1.614,1.614,0,0,1,.628-.844,1.808,1.808,0,0,1,1.05-.309,1.483,1.483,0,0,1,1.172.445,2.08,2.08,0,0,1,.394,1.4V9.543H70.1v-2.9a1.6,1.6,0,0,0-.234-.971.887.887,0,0,0-.75-.3,1.154,1.154,0,0,0-.933.408,1.645,1.645,0,0,0-.342,1.093V9.543h-.76v-2.9a1.6,1.6,0,0,0-.234-.971.887.887,0,0,0-.75-.3,1.14,1.14,0,0,0-.928.408,1.66,1.66,0,0,0-.338,1.093V9.543Z" transform="translate(13634.837 22219.877) rotate(40)" opacity="0.5"/>
            <path id="Path_172884" data-name="Path 172884" d="M.59,6.232a4.113,4.113,0,0,1,.366-1.8A2.673,2.673,0,0,1,2.02,3.259a3.215,3.215,0,0,1,1.665-.413,3.171,3.171,0,0,1,1.651.413A2.769,2.769,0,0,1,6.409,4.431a3.961,3.961,0,0,1,.38,1.791,4.013,4.013,0,0,1-.38,1.805A2.785,2.785,0,0,1,5.331,9.21a3.149,3.149,0,0,1-1.646.417,3.162,3.162,0,0,1-1.66-.417A2.735,2.735,0,0,1,.96,8.028,4.076,4.076,0,0,1,.59,6.232Zm1.022,0a2.987,2.987,0,0,0,.525,1.876,1.841,1.841,0,0,0,1.547.675,1.868,1.868,0,0,0,1.538-.671,2.91,2.91,0,0,0,.544-1.88,2.908,2.908,0,0,0-.539-1.876A1.871,1.871,0,0,0,3.685,3.69a1.852,1.852,0,0,0-1.547.666A2.963,2.963,0,0,0,1.612,6.232ZM8.018,9.543V5.988Q8.018,5.7,8,5.4t-.042-.586h.919l.1,1.219h-.15A1.783,1.783,0,0,1,9.153,5.3,1.384,1.384,0,0,1,9.7,4.872a1.687,1.687,0,0,1,.68-.141,1.918,1.918,0,0,1,.253.014,1.611,1.611,0,0,1,.206.042l-.009.844a1.089,1.089,0,0,0-.277-.08,2.456,2.456,0,0,0-.286-.014,1.3,1.3,0,0,0-.7.183,1.177,1.177,0,0,0-.441.492,1.506,1.506,0,0,0-.15.666V9.543Zm5.3.084a2.046,2.046,0,0,1-1.093-.291,1.9,1.9,0,0,1-.732-.844,3.084,3.084,0,0,1-.258-1.313,3.045,3.045,0,0,1,.258-1.313,1.942,1.942,0,0,1,.732-.839,2.021,2.021,0,0,1,1.093-.3,1.912,1.912,0,0,1,1.074.3,1.438,1.438,0,0,1,.614.83h-.113V2.64h.947v6.9H14.9V8.474h.113a1.507,1.507,0,0,1-.619.844A1.885,1.885,0,0,1,13.317,9.627Zm.234-.741a1.242,1.242,0,0,0,.985-.431,1.894,1.894,0,0,0,.375-1.276,1.875,1.875,0,0,0-.375-1.271,1.355,1.355,0,0,0-1.974,0,1.892,1.892,0,0,0-.37,1.271,1.911,1.911,0,0,0,.37,1.276A1.239,1.239,0,0,0,13.551,8.886Zm5.852.741a2.454,2.454,0,0,1-1.8-.647,2.4,2.4,0,0,1-.657-1.791,2.781,2.781,0,0,1,.286-1.294,2.1,2.1,0,0,1,.8-.858,2.272,2.272,0,0,1,1.186-.3,2.068,2.068,0,0,1,1.116.281,1.788,1.788,0,0,1,.685.792,2.868,2.868,0,0,1,.234,1.205v.3H17.687V6.767H20.6l-.159.122A1.7,1.7,0,0,0,20.13,5.8a1.1,1.1,0,0,0-.905-.389,1.212,1.212,0,0,0-1.013.455,1.981,1.981,0,0,0-.356,1.252v.094a1.742,1.742,0,0,0,.408,1.257,1.536,1.536,0,0,0,1.158.422,2.491,2.491,0,0,0,.774-.117,2.094,2.094,0,0,0,.689-.389l.309.647a2.247,2.247,0,0,1-.8.445A3.152,3.152,0,0,1,19.4,9.627Zm2.917-.084V5.988q0-.291-.014-.586t-.042-.586h.919l.1,1.219h-.15a1.783,1.783,0,0,1,.319-.732A1.384,1.384,0,0,1,24,4.872a1.687,1.687,0,0,1,.68-.141,1.918,1.918,0,0,1,.253.014,1.611,1.611,0,0,1,.206.042l-.009.844a1.089,1.089,0,0,0-.277-.08,2.456,2.456,0,0,0-.286-.014,1.3,1.3,0,0,0-.7.183,1.177,1.177,0,0,0-.441.492,1.506,1.506,0,0,0-.15.666V9.543Zm7.869.084A2.046,2.046,0,0,1,29.1,9.336a1.9,1.9,0,0,1-.732-.844,3.084,3.084,0,0,1-.258-1.313,3.045,3.045,0,0,1,.258-1.313,1.942,1.942,0,0,1,.732-.839,2.021,2.021,0,0,1,1.093-.3,1.912,1.912,0,0,1,1.074.3,1.438,1.438,0,0,1,.614.83h-.113V2.64h.947v6.9h-.938V8.474h.113a1.507,1.507,0,0,1-.619.844A1.885,1.885,0,0,1,30.189,9.627Zm.234-.741a1.242,1.242,0,0,0,.985-.431,1.894,1.894,0,0,0,.375-1.276,1.875,1.875,0,0,0-.375-1.271,1.355,1.355,0,0,0-1.974,0,1.892,1.892,0,0,0-.37,1.271,1.911,1.911,0,0,0,.37,1.276A1.239,1.239,0,0,0,30.424,8.886Zm5.477.741a2.04,2.04,0,0,1-1.1-.291,1.913,1.913,0,0,1-.727-.844,3.084,3.084,0,0,1-.258-1.313,3.045,3.045,0,0,1,.258-1.313,1.953,1.953,0,0,1,.727-.839,2.015,2.015,0,0,1,1.1-.3,1.885,1.885,0,0,1,1.079.309,1.464,1.464,0,0,1,.61.844h-.1l.094-1.069H38.5q-.028.291-.052.577t-.023.558V9.543h-.947V8.492h.1a1.438,1.438,0,0,1-.614.83A1.9,1.9,0,0,1,35.9,9.627Zm.234-.741a1.228,1.228,0,0,0,.98-.431,1.911,1.911,0,0,0,.37-1.276,1.892,1.892,0,0,0-.37-1.271,1.35,1.35,0,0,0-1.97,0,1.892,1.892,0,0,0-.37,1.271,1.928,1.928,0,0,0,.366,1.276A1.235,1.235,0,0,0,36.135,8.886Zm5.505.741a1.524,1.524,0,0,1-1.163-.417,1.764,1.764,0,0,1-.394-1.252V5.547h-.919V4.816h.919V3.568l.947-.253v1.5h1.313v.732H41.031V7.873a1.178,1.178,0,0,0,.188.75.668.668,0,0,0,.544.225,1.347,1.347,0,0,0,.314-.033,1.658,1.658,0,0,0,.249-.08v.769A1.656,1.656,0,0,1,42,9.594,2.07,2.07,0,0,1,41.641,9.627Zm3.7,0a2.454,2.454,0,0,1-1.8-.647,2.4,2.4,0,0,1-.657-1.791,2.781,2.781,0,0,1,.286-1.294,2.1,2.1,0,0,1,.8-.858,2.272,2.272,0,0,1,1.186-.3,2.068,2.068,0,0,1,1.116.281,1.788,1.788,0,0,1,.685.792,2.868,2.868,0,0,1,.234,1.205v.3H43.629V6.767h2.917l-.159.122A1.7,1.7,0,0,0,46.072,5.8a1.1,1.1,0,0,0-.905-.389,1.212,1.212,0,0,0-1.013.455A1.981,1.981,0,0,0,43.8,7.114v.094a1.742,1.742,0,0,0,.408,1.257,1.536,1.536,0,0,0,1.158.422,2.491,2.491,0,0,0,.774-.117,2.094,2.094,0,0,0,.689-.389l.309.647a2.247,2.247,0,0,1-.8.445A3.152,3.152,0,0,1,45.345,9.627Zm2.795-3.7V4.816h1.116V5.932Zm0,3.611V8.427h1.116V9.543Zm4.267,0,2.945-6.612h.835l2.992,6.612h-1l-.816-1.876.413.263h-4l.441-.263-.816,1.876ZM55.755,4,54.33,7.367,54.1,7.151h3.329l-.188.216L55.793,4Zm5.89,5.627a1.655,1.655,0,0,1-1.28-.464,2.058,2.058,0,0,1-.427-1.43V4.816h.947v2.9a1.309,1.309,0,0,0,.244.872.928.928,0,0,0,.741.281,1.181,1.181,0,0,0,.91-.375,1.406,1.406,0,0,0,.347-.994V4.816h.947V9.543h-.919V8.53h.122a1.627,1.627,0,0,1-.628.811A1.774,1.774,0,0,1,61.645,9.627Zm5.946,2.016a4.175,4.175,0,0,1-1.158-.15,2.971,2.971,0,0,1-.933-.45l.234-.694a3.263,3.263,0,0,0,.572.314,2.863,2.863,0,0,0,.591.174,3.559,3.559,0,0,0,.638.056,1.381,1.381,0,0,0,1.018-.342,1.34,1.34,0,0,0,.342-.989V8.3h.094a1.438,1.438,0,0,1-.614.83,1.912,1.912,0,0,1-1.074.3,2.126,2.126,0,0,1-1.121-.286,1.9,1.9,0,0,1-.732-.816,2.833,2.833,0,0,1-.258-1.252,2.8,2.8,0,0,1,.258-1.247,1.9,1.9,0,0,1,.732-.811A2.126,2.126,0,0,1,67.3,4.731a1.883,1.883,0,0,1,1.074.3,1.449,1.449,0,0,1,.6.83l-.084-.075.084-.975H69.9q-.038.291-.056.577t-.019.558v3.5a2.2,2.2,0,0,1-.567,1.632A2.268,2.268,0,0,1,67.591,11.644Zm-.066-2.954a1.251,1.251,0,0,0,.989-.422,1.748,1.748,0,0,0,.37-1.191,1.711,1.711,0,0,0-.37-1.182,1.264,1.264,0,0,0-.989-.413,1.287,1.287,0,0,0-1.008.413,1.711,1.711,0,0,0-.37,1.182,1.748,1.748,0,0,0,.37,1.191A1.273,1.273,0,0,0,67.526,8.689Zm6.265.853V8.821l2.27-2.373a4.042,4.042,0,0,0,.657-.863,1.748,1.748,0,0,0,.216-.835.981.981,0,0,0-.333-.807,1.486,1.486,0,0,0-.961-.272,2.443,2.443,0,0,0-.933.178,2.872,2.872,0,0,0-.839.544l-.338-.741a2.942,2.942,0,0,1,.98-.586,3.5,3.5,0,0,1,1.243-.22,2.4,2.4,0,0,1,1.59.469A1.654,1.654,0,0,1,77.9,4.656a2.5,2.5,0,0,1-.3,1.186,5,5,0,0,1-.9,1.168l-1.96,1.979V8.727H78.17v.816Zm7.662.084a2.017,2.017,0,0,1-1.758-.877,4.361,4.361,0,0,1-.614-2.518A4.326,4.326,0,0,1,79.695,3.7a2.236,2.236,0,0,1,3.522,0,4.332,4.332,0,0,1,.61,2.518,4.38,4.38,0,0,1-.614,2.528A2.017,2.017,0,0,1,81.453,9.627Zm0-.816a1.152,1.152,0,0,0,1.074-.628,4.172,4.172,0,0,0,.352-1.96,4.107,4.107,0,0,0-.352-1.955,1.242,1.242,0,0,0-2.143,0,4.035,4.035,0,0,0-.356,1.946,4.1,4.1,0,0,0,.361,1.97A1.158,1.158,0,0,0,81.453,8.811ZM85.3,10.7l-.413-.319a1.82,1.82,0,0,0,.37-.535,1.34,1.34,0,0,0,.1-.506l.206.206H84.82V8.427h1.116v.76a2.139,2.139,0,0,1-.141.783A2.221,2.221,0,0,1,85.3,10.7Zm4.474-1.154V8.821l2.27-2.373a4.042,4.042,0,0,0,.657-.863,1.748,1.748,0,0,0,.216-.835.98.98,0,0,0-.333-.807,1.486,1.486,0,0,0-.961-.272,2.443,2.443,0,0,0-.933.178,2.872,2.872,0,0,0-.839.544l-.338-.741a2.942,2.942,0,0,1,.98-.586,3.5,3.5,0,0,1,1.243-.22,2.4,2.4,0,0,1,1.59.469,1.654,1.654,0,0,1,.558,1.341,2.5,2.5,0,0,1-.3,1.186,5,5,0,0,1-.9,1.168l-1.96,1.979V8.727h3.433v.816Zm7.662.084a2.017,2.017,0,0,1-1.758-.877,4.361,4.361,0,0,1-.614-2.518A4.326,4.326,0,0,1,95.676,3.7a2.236,2.236,0,0,1,3.522,0,4.332,4.332,0,0,1,.61,2.518,4.38,4.38,0,0,1-.614,2.528A2.017,2.017,0,0,1,97.434,9.627Zm0-.816a1.152,1.152,0,0,0,1.074-.628,4.172,4.172,0,0,0,.352-1.96,4.107,4.107,0,0,0-.352-1.955,1.242,1.242,0,0,0-2.143,0,4.035,4.035,0,0,0-.356,1.946,4.1,4.1,0,0,0,.361,1.97A1.158,1.158,0,0,0,97.434,8.811Zm3.592.732V8.821l2.27-2.373a4.042,4.042,0,0,0,.657-.863,1.748,1.748,0,0,0,.216-.835.981.981,0,0,0-.333-.807,1.486,1.486,0,0,0-.961-.272,2.443,2.443,0,0,0-.933.178,2.872,2.872,0,0,0-.839.544l-.338-.741a2.942,2.942,0,0,1,.98-.586,3.5,3.5,0,0,1,1.243-.22,2.4,2.4,0,0,1,1.59.469,1.654,1.654,0,0,1,.558,1.341,2.5,2.5,0,0,1-.3,1.186,5,5,0,0,1-.9,1.168l-1.96,1.979V8.727h3.433v.816Zm7.6.084a4.152,4.152,0,0,1-1.294-.2,2.8,2.8,0,0,1-1.032-.577l.338-.741a3.361,3.361,0,0,0,.938.525,3.049,3.049,0,0,0,1.022.169,1.651,1.651,0,0,0,1.055-.291,1.009,1.009,0,0,0,.361-.835.959.959,0,0,0-.361-.811,1.73,1.73,0,0,0-1.064-.277h-1.022V5.8h.947a1.422,1.422,0,0,0,.957-.3,1.035,1.035,0,0,0,.356-.83.881.881,0,0,0-.328-.736,1.489,1.489,0,0,0-.938-.258,2.579,2.579,0,0,0-1.81.722l-.328-.741a2.583,2.583,0,0,1,.975-.6,3.653,3.653,0,0,1,1.238-.211A2.451,2.451,0,0,1,110.2,3.3a1.522,1.522,0,0,1,.572,1.261A1.59,1.59,0,0,1,109.5,6.176v-.1a1.722,1.722,0,0,1,1.083.558,1.653,1.653,0,0,1,.38,1.111,1.678,1.678,0,0,1-.624,1.383A2.657,2.657,0,0,1,108.623,9.627Z" transform="translate(13624.532 22232.043) rotate(40)" opacity="0.797"/>
            <path id="Path_172885" data-name="Path 172885" d="M.66,7.478a4.78,4.78,0,0,1,.456-2.161A3.316,3.316,0,0,1,2.427,3.905a3.961,3.961,0,0,1,2.037-.5,3.938,3.938,0,0,1,2.026.5A3.388,3.388,0,0,1,7.812,5.318a4.657,4.657,0,0,1,.467,2.15,4.718,4.718,0,0,1-.467,2.166A3.417,3.417,0,0,1,6.49,11.057a3.9,3.9,0,0,1-2.026.506,3.9,3.9,0,0,1-2.031-.506A3.392,3.392,0,0,1,1.121,9.634,4.74,4.74,0,0,1,.66,7.478Zm1.519,0a3.386,3.386,0,0,0,.574,2.093,2.015,2.015,0,0,0,1.711.754,2.041,2.041,0,0,0,1.7-.754,3.293,3.293,0,0,0,.6-2.093,3.287,3.287,0,0,0-.591-2.093,2.05,2.05,0,0,0-1.705-.743,2.028,2.028,0,0,0-1.711.743A3.356,3.356,0,0,0,2.179,7.478Zm7.566,3.973V7.22q0-.36-.017-.732t-.062-.72h1.362l.158,1.553h-.225a2.406,2.406,0,0,1,.377-.934,1.653,1.653,0,0,1,.647-.551,1.931,1.931,0,0,1,.833-.18,2.518,2.518,0,0,1,.326.017,1.2,1.2,0,0,1,.248.062L13.38,6.972a1.569,1.569,0,0,0-.366-.113,2.638,2.638,0,0,0-.377-.023,1.539,1.539,0,0,0-.816.2,1.246,1.246,0,0,0-.5.563,1.971,1.971,0,0,0-.163.822v3.027Zm6.643.113a2.425,2.425,0,0,1-1.311-.355,2.354,2.354,0,0,1-.883-1.019A3.673,3.673,0,0,1,13.878,8.6a3.635,3.635,0,0,1,.315-1.581,2.36,2.36,0,0,1,.883-1.013,2.425,2.425,0,0,1,1.311-.355A2.307,2.307,0,0,1,17.643,6a1.643,1.643,0,0,1,.726.928h-.146V3.168h1.407v8.283H18.245v-1.2h.135a1.69,1.69,0,0,1-.726.962A2.272,2.272,0,0,1,16.388,11.564Zm.394-1.08a1.346,1.346,0,0,0,1.069-.467A2.109,2.109,0,0,0,18.256,8.6,2.085,2.085,0,0,0,17.851,7.2a1.354,1.354,0,0,0-1.069-.461,1.371,1.371,0,0,0-1.075.461A2.066,2.066,0,0,0,15.3,8.6a2.089,2.089,0,0,0,.411,1.412A1.363,1.363,0,0,0,16.782,10.483ZM24,11.564a3.077,3.077,0,0,1-2.24-.788,2.874,2.874,0,0,1-.81-2.161A3.293,3.293,0,0,1,21.3,7.062a2.566,2.566,0,0,1,.974-1.035,2.8,2.8,0,0,1,1.457-.371A2.521,2.521,0,0,1,25.1,6a2.212,2.212,0,0,1,.838.979,3.528,3.528,0,0,1,.287,1.474v.371H22.086V8.086h3.14l-.191.158a1.9,1.9,0,0,0-.332-1.2,1.158,1.158,0,0,0-.962-.416,1.271,1.271,0,0,0-1.075.5A2.241,2.241,0,0,0,22.288,8.5v.146a1.874,1.874,0,0,0,.456,1.379,1.743,1.743,0,0,0,1.289.456,3.075,3.075,0,0,0,.906-.129,2.555,2.555,0,0,0,.8-.422l.416.945a2.966,2.966,0,0,1-.968.506A3.891,3.891,0,0,1,24,11.564Zm3.5-.113V7.22q0-.36-.017-.732t-.062-.72h1.362l.158,1.553h-.225a2.406,2.406,0,0,1,.377-.934,1.653,1.653,0,0,1,.647-.551,1.931,1.931,0,0,1,.833-.18,2.518,2.518,0,0,1,.326.017,1.2,1.2,0,0,1,.248.062l-.011,1.238a1.569,1.569,0,0,0-.366-.113,2.638,2.638,0,0,0-.377-.023,1.539,1.539,0,0,0-.816.2,1.246,1.246,0,0,0-.5.563,1.971,1.971,0,0,0-.163.822v3.027Zm10.315.113a3.151,3.151,0,0,1-1.536-.36,2.5,2.5,0,0,1-1.019-1.03,3.316,3.316,0,0,1-.36-1.593,3.177,3.177,0,0,1,.366-1.576,2.494,2.494,0,0,1,1.019-1,3.2,3.2,0,0,1,1.531-.349,3.515,3.515,0,0,1,1.1.174,2.225,2.225,0,0,1,.872.5l-.428.979a2.049,2.049,0,0,0-.681-.422,2.1,2.1,0,0,0-.737-.141,1.5,1.5,0,0,0-1.176.473,2,2,0,0,0-.422,1.373,2.043,2.043,0,0,0,.422,1.384,1.478,1.478,0,0,0,1.176.484,2.149,2.149,0,0,0,.726-.135,2.094,2.094,0,0,0,.692-.416l.428.968a2.388,2.388,0,0,1-.883.506A3.381,3.381,0,0,1,37.816,11.564Zm5.608,0A3.055,3.055,0,0,1,41.9,11.2a2.5,2.5,0,0,1-1-1.024A3.3,3.3,0,0,1,40.554,8.6a3.267,3.267,0,0,1,.355-1.57,2.5,2.5,0,0,1,1-1.019,3.055,3.055,0,0,1,1.519-.36,3.087,3.087,0,0,1,1.525.36,2.5,2.5,0,0,1,1,1.019,3.267,3.267,0,0,1,.355,1.57,3.3,3.3,0,0,1-.355,1.576,2.486,2.486,0,0,1-1,1.024A3.087,3.087,0,0,1,43.424,11.564Zm0-1.08a1.313,1.313,0,0,0,1.058-.467A2.151,2.151,0,0,0,44.876,8.6,2.127,2.127,0,0,0,44.482,7.2a1.443,1.443,0,0,0-2.116,0A2.127,2.127,0,0,0,41.972,8.6a2.151,2.151,0,0,0,.394,1.412A1.313,1.313,0,0,0,43.424,10.483Zm4.189.968V7.186q0-.349-.023-.709t-.068-.709h1.362L49,6.893h-.135a1.934,1.934,0,0,1,.726-.912,2.051,2.051,0,0,1,1.165-.326,1.865,1.865,0,0,1,1.12.321,1.72,1.72,0,0,1,.625,1h-.18a1.982,1.982,0,0,1,.777-.962,2.205,2.205,0,0,1,1.238-.355,1.761,1.761,0,0,1,1.429.563,2.7,2.7,0,0,1,.473,1.756v3.478H54.828V8.03a1.64,1.64,0,0,0-.225-.974.844.844,0,0,0-.72-.3,1.131,1.131,0,0,0-.923.411,1.693,1.693,0,0,0-.338,1.109v3.174H51.215V8.03a1.64,1.64,0,0,0-.225-.974.844.844,0,0,0-.72-.3,1.115,1.115,0,0,0-.917.411,1.713,1.713,0,0,0-.332,1.109v3.174Zm10.211,2.431v-6.7q0-.349-.023-.709t-.068-.709H59.1l.124,1.193H59.1a1.639,1.639,0,0,1,.715-.951,2.272,2.272,0,0,1,1.266-.355,2.418,2.418,0,0,1,1.317.355,2.373,2.373,0,0,1,.878,1.013A3.635,3.635,0,0,1,63.586,8.6a3.673,3.673,0,0,1-.315,1.587,2.367,2.367,0,0,1-.878,1.019,2.418,2.418,0,0,1-1.317.355,2.251,2.251,0,0,1-1.249-.349,1.673,1.673,0,0,1-.72-.934h.124v3.6Zm2.859-3.4a1.359,1.359,0,0,0,1.08-.467A2.109,2.109,0,0,0,62.168,8.6,2.085,2.085,0,0,0,61.763,7.2a1.482,1.482,0,0,0-2.15,0A2.085,2.085,0,0,0,59.208,8.6a2.109,2.109,0,0,0,.405,1.412A1.346,1.346,0,0,0,60.683,10.483Zm4.212.968V3.168H66.3v8.283Zm5.776.113a3.077,3.077,0,0,1-2.24-.788,2.874,2.874,0,0,1-.81-2.161,3.293,3.293,0,0,1,.349-1.553,2.566,2.566,0,0,1,.974-1.035A2.8,2.8,0,0,1,70.4,5.655,2.521,2.521,0,0,1,71.774,6a2.212,2.212,0,0,1,.838.979A3.528,3.528,0,0,1,72.9,8.458v.371H68.758V8.086H71.9l-.191.158a1.9,1.9,0,0,0-.332-1.2,1.158,1.158,0,0,0-.962-.416,1.271,1.271,0,0,0-1.075.5A2.241,2.241,0,0,0,68.96,8.5v.146a1.874,1.874,0,0,0,.456,1.379,1.743,1.743,0,0,0,1.289.456,3.075,3.075,0,0,0,.906-.129,2.555,2.555,0,0,0,.8-.422l.416.945a2.966,2.966,0,0,1-.968.506A3.891,3.891,0,0,1,70.671,11.564Zm5.923,0a2.049,2.049,0,0,1-1.531-.529,2.184,2.184,0,0,1-.518-1.587V6.826H73.454V5.768h1.092V4.316l1.407-.36V5.768h1.519V6.826H75.952V9.358a1.183,1.183,0,0,0,.225.822.814.814,0,0,0,.619.236,1.71,1.71,0,0,0,.366-.034,2.1,2.1,0,0,0,.3-.09v1.114a1.982,1.982,0,0,1-.422.118A2.642,2.642,0,0,1,76.594,11.564Zm4.617,0a3.077,3.077,0,0,1-2.24-.788,2.874,2.874,0,0,1-.81-2.161,3.293,3.293,0,0,1,.349-1.553,2.566,2.566,0,0,1,.974-1.035,2.8,2.8,0,0,1,1.457-.371A2.521,2.521,0,0,1,82.314,6a2.212,2.212,0,0,1,.838.979,3.528,3.528,0,0,1,.287,1.474v.371H79.3V8.086h3.14l-.191.158a1.9,1.9,0,0,0-.332-1.2,1.158,1.158,0,0,0-.962-.416,1.271,1.271,0,0,0-1.075.5A2.241,2.241,0,0,0,79.5,8.5v.146a1.874,1.874,0,0,0,.456,1.379,1.743,1.743,0,0,0,1.289.456,3.075,3.075,0,0,0,.906-.129,2.555,2.555,0,0,0,.8-.422l.416.945a2.966,2.966,0,0,1-.968.506A3.891,3.891,0,0,1,81.211,11.564Zm5.72,0a2.425,2.425,0,0,1-1.311-.355,2.354,2.354,0,0,1-.883-1.019A3.673,3.673,0,0,1,84.421,8.6a3.635,3.635,0,0,1,.315-1.581A2.36,2.36,0,0,1,85.62,6.01a2.425,2.425,0,0,1,1.311-.355A2.307,2.307,0,0,1,88.186,6a1.643,1.643,0,0,1,.726.928h-.146V3.168h1.407v8.283H88.788v-1.2h.135a1.69,1.69,0,0,1-.726.962A2.272,2.272,0,0,1,86.931,11.564Zm.394-1.08a1.346,1.346,0,0,0,1.069-.467A2.109,2.109,0,0,0,88.8,8.6,2.085,2.085,0,0,0,88.394,7.2a1.354,1.354,0,0,0-1.069-.461A1.371,1.371,0,0,0,86.25,7.2,2.066,2.066,0,0,0,85.839,8.6a2.089,2.089,0,0,0,.411,1.412A1.363,1.363,0,0,0,87.325,10.483Z" transform="translate(13649.269 22202.559) rotate(40)" fill="#22b339"/>
            <path id="Path_172886" data-name="Path 172886" d="M2.435,9.556V3.6H.1V2.944H5.54V3.6H3.214V9.556Zm3.245,0V5.983q0-.281-.014-.572t-.042-.563h.732l.094,1.144L6.318,6a1.561,1.561,0,0,1,.328-.694A1.5,1.5,0,0,1,7.2,4.9a1.68,1.68,0,0,1,.666-.136q.141,0,.249.009a.7.7,0,0,1,.2.047L8.306,5.5a1.322,1.322,0,0,0-.258-.061,2.265,2.265,0,0,0-.267-.014,1.293,1.293,0,0,0-.717.2,1.275,1.275,0,0,0-.46.506,1.449,1.449,0,0,0-.155.657V9.556Zm5.168.084a2.015,2.015,0,0,1-1.1-.3,1.952,1.952,0,0,1-.727-.839,3.021,3.021,0,0,1-.258-1.3,3.045,3.045,0,0,1,.258-1.313,1.922,1.922,0,0,1,.727-.835,2.04,2.04,0,0,1,1.1-.291,1.878,1.878,0,0,1,1.1.324,1.521,1.521,0,0,1,.614.877h-.113l.1-1.116h.732q-.028.272-.052.549t-.023.539v3.62h-.76V8.45h.1a1.5,1.5,0,0,1-.619.872A1.888,1.888,0,0,1,10.848,9.641ZM11,9.022a1.329,1.329,0,0,0,1.069-.464A2.043,2.043,0,0,0,12.461,7.2a2.06,2.06,0,0,0-.394-1.365A1.329,1.329,0,0,0,11,5.373a1.332,1.332,0,0,0-1.064.464,2.043,2.043,0,0,0-.4,1.365,2.027,2.027,0,0,0,.4,1.355A1.332,1.332,0,0,0,11,9.022Zm3.686.535V5.936q0-.263-.023-.539t-.052-.549h.732l.094,1.032h-.113a1.629,1.629,0,0,1,.661-.83,1.94,1.94,0,0,1,1.055-.286,1.668,1.668,0,0,1,1.261.445,1.97,1.97,0,0,1,.427,1.4V9.556h-.76v-2.9a1.452,1.452,0,0,0-.267-.971,1.047,1.047,0,0,0-.83-.3,1.37,1.37,0,0,0-1.041.4,1.5,1.5,0,0,0-.385,1.079V9.556Zm7.062.084a3.455,3.455,0,0,1-1.05-.155,2.212,2.212,0,0,1-.807-.436l.263-.535a2.416,2.416,0,0,0,.755.4,2.753,2.753,0,0,0,.849.131,1.473,1.473,0,0,0,.849-.2.645.645,0,0,0,.286-.558.557.557,0,0,0-.183-.436,1.345,1.345,0,0,0-.6-.258l-.872-.178a1.722,1.722,0,0,1-.9-.445,1.114,1.114,0,0,1-.3-.8,1.253,1.253,0,0,1,.216-.727,1.451,1.451,0,0,1,.628-.5,2.367,2.367,0,0,1,.966-.183,2.828,2.828,0,0,1,.952.155,1.916,1.916,0,0,1,.727.445l-.272.525a1.858,1.858,0,0,0-.642-.408,2.1,2.1,0,0,0-.746-.136,1.315,1.315,0,0,0-.83.22.7.7,0,0,0-.277.577.6.6,0,0,0,.174.445,1.1,1.1,0,0,0,.539.258l.872.178a2,2,0,0,1,.952.436,1.036,1.036,0,0,1,.314.792,1.2,1.2,0,0,1-.234.736,1.484,1.484,0,0,1-.652.483A2.6,2.6,0,0,1,21.746,9.641Zm4.877,0a2.015,2.015,0,0,1-1.1-.3,1.952,1.952,0,0,1-.727-.839,3.021,3.021,0,0,1-.258-1.3A3.045,3.045,0,0,1,24.8,5.889a1.922,1.922,0,0,1,.727-.835,2.04,2.04,0,0,1,1.1-.291,1.878,1.878,0,0,1,1.1.324,1.521,1.521,0,0,1,.614.877h-.113l.1-1.116h.732q-.028.272-.052.549t-.023.539v3.62h-.76V8.45h.1a1.5,1.5,0,0,1-.619.872A1.888,1.888,0,0,1,26.623,9.641Zm.15-.619a1.329,1.329,0,0,0,1.069-.464A2.043,2.043,0,0,0,28.236,7.2a2.06,2.06,0,0,0-.394-1.365,1.458,1.458,0,0,0-2.134,0,2.043,2.043,0,0,0-.4,1.365,2.027,2.027,0,0,0,.4,1.355A1.332,1.332,0,0,0,26.773,9.022Zm5.665.619a2.337,2.337,0,0,1-1.205-.3,2,2,0,0,1-.788-.853,2.9,2.9,0,0,1-.277-1.313,2.8,2.8,0,0,1,.281-1.308,1.932,1.932,0,0,1,.793-.821,2.441,2.441,0,0,1,1.2-.281,2.486,2.486,0,0,1,.877.159,1.886,1.886,0,0,1,.708.45l-.272.544a1.868,1.868,0,0,0-.614-.4,1.769,1.769,0,0,0-.652-.131,1.43,1.43,0,0,0-1.135.46,1.976,1.976,0,0,0-.4,1.341,2.036,2.036,0,0,0,.4,1.351,1.4,1.4,0,0,0,1.135.478,1.865,1.865,0,0,0,.642-.122,1.777,1.777,0,0,0,.624-.4l.272.535a1.909,1.909,0,0,1-.722.46A2.474,2.474,0,0,1,32.438,9.641Zm4.333,0a1.366,1.366,0,0,1-1.06-.4,1.731,1.731,0,0,1-.366-1.205v-2.6h-.919V4.848h.919V3.563l.76-.216v1.5h1.351v.591H36.1V7.953a1.3,1.3,0,0,0,.192.8.7.7,0,0,0,.577.239,1.409,1.409,0,0,0,.319-.033,1.611,1.611,0,0,0,.253-.08v.638a1.454,1.454,0,0,1-.314.089A2.041,2.041,0,0,1,36.771,9.641Zm1.613-.084V4.848h.76V9.556ZM38.29,3.779V2.926h.938v.853Zm4.258,5.862a2.277,2.277,0,0,1-1.177-.3A1.968,1.968,0,0,1,40.6,8.5a2.894,2.894,0,0,1-.272-1.3A2.887,2.887,0,0,1,40.6,5.9a1.973,1.973,0,0,1,.774-.839,2.511,2.511,0,0,1,2.363,0,2,2,0,0,1,.778.839,2.846,2.846,0,0,1,.277,1.3,2.853,2.853,0,0,1-.277,1.3,2,2,0,0,1-.778.844A2.3,2.3,0,0,1,42.548,9.641Zm0-.619a1.329,1.329,0,0,0,1.069-.464A2.043,2.043,0,0,0,44.011,7.2a2.043,2.043,0,0,0-.4-1.365,1.332,1.332,0,0,0-1.064-.464,1.319,1.319,0,0,0-1.06.464A2.06,2.06,0,0,0,41.094,7.2a2.043,2.043,0,0,0,.394,1.355A1.319,1.319,0,0,0,42.548,9.022Zm3.423.535V5.936q0-.263-.023-.539T45.9,4.848h.732l.094,1.032h-.113a1.629,1.629,0,0,1,.661-.83,1.94,1.94,0,0,1,1.055-.286,1.668,1.668,0,0,1,1.261.445,1.97,1.97,0,0,1,.427,1.4V9.556h-.76v-2.9a1.452,1.452,0,0,0-.267-.971,1.047,1.047,0,0,0-.83-.3,1.37,1.37,0,0,0-1.041.4,1.5,1.5,0,0,0-.385,1.079V9.556Zm8.028,0V2.944h.778V9.556Zm2.429,0V2.944h2.195a4.122,4.122,0,0,1,1.857.38A2.587,2.587,0,0,1,61.634,4.44a3.787,3.787,0,0,1,.394,1.805,3.793,3.793,0,0,1-.394,1.8A2.608,2.608,0,0,1,60.48,9.172a4.079,4.079,0,0,1-1.857.385Zm.778-.666h1.36a2.72,2.72,0,0,0,2.007-.661,2.706,2.706,0,0,0,.657-1.984,2.7,2.7,0,0,0-.657-1.988A2.732,2.732,0,0,0,58.567,3.6h-1.36Zm8.657.666.347-1.707h-.872V7.3H66.3l.45-2.166H65.535V4.576h1.322l.328-1.632h.6l-.328,1.632H68.94l.328-1.632h.6L69.54,4.576H70.4V5.13h-.975L68.986,7.3h1.229v.553H68.883l-.347,1.707h-.61l.347-1.707H66.8l-.328,1.707Zm1.05-2.26h1.472l.441-2.166H67.345Zm4.961,2.26V8.89h1.557V3.61h.413L72.025,4.745V3.967l1.623-1.022h.563V8.89h1.463v.666Zm8.056,0V8.121H76.78V7.559l3.273-4.614h.638V7.493H81.7v.628H80.691V9.556Zm0-2.063V3.864h.206L77.418,7.69v-.2Zm5.036,2.148a2.2,2.2,0,0,1-1.852-.849,3.826,3.826,0,0,1-.652-2.377,5.065,5.065,0,0,1,.328-1.937,2.613,2.613,0,0,1,.938-1.205A2.564,2.564,0,0,1,85.2,2.86a2.777,2.777,0,0,1,1.041.211,2.284,2.284,0,0,1,.863.586l-.281.6a2.317,2.317,0,0,0-.778-.539,2.227,2.227,0,0,0-.853-.174,1.725,1.725,0,0,0-1.468.68,3.376,3.376,0,0,0-.511,2.04v.872H83.13a2.113,2.113,0,0,1,.324-.924,1.693,1.693,0,0,1,.68-.6,2.253,2.253,0,0,1,2,.056,1.88,1.88,0,0,1,.722.736,2.2,2.2,0,0,1,.263,1.083A2.233,2.233,0,0,1,86.843,8.6a1.962,1.962,0,0,1-.76.764A2.222,2.222,0,0,1,84.968,9.641Zm-.056-.657a1.562,1.562,0,0,0,.764-.183,1.28,1.28,0,0,0,.516-.516,1.562,1.562,0,0,0,.183-.764,1.535,1.535,0,0,0-.183-.76,1.32,1.32,0,0,0-.516-.516,1.53,1.53,0,0,0-.764-.188,1.5,1.5,0,0,0-.76.188,1.329,1.329,0,0,0-.511.516,1.535,1.535,0,0,0-.183.76,1.562,1.562,0,0,0,.183.764,1.288,1.288,0,0,0,.511.516A1.535,1.535,0,0,0,84.911,8.984Z" transform="translate(13554.724 22231.055) rotate(40)"/>
          </g>
        </g>
      </g>
    </g>
    <rect id="Rectangle_55461" data-name="Rectangle 55461" width="630" height="572" rx="10" transform="translate(595 24)" fill="url(#linear-gradient-6)"/>
  </g>
</svg>
