<svg id="Component_379_12" data-name="Component 379 – 12" xmlns="http://www.w3.org/2000/svg" xmlns:xlink="http://www.w3.org/1999/xlink" width="18" height="18" viewBox="0 0 18 18">
  <defs>
    <clipPath id="clip-path">
      <rect id="Rectangle_56901" data-name="Rectangle 56901" width="18" height="18" fill="#fff" opacity="0.2"/>
    </clipPath>
  </defs>
  <g id="Mask_Group_95966" data-name="Mask Group 95966" clip-path="url(#clip-path)">
    <path id="Path_174416" data-name="Path 174416" d="M7.028,5.069,8.412,1.164A.921.921,0,0,0,8.017.09a.9.9,0,0,0-.495-.1A1.076,1.076,0,0,0,6.83.285L.8,6.436,3.566,8.388,2.181,12.294a.921.921,0,0,0,.4,1.074.9.9,0,0,0,.495.1,1.075,1.075,0,0,0,.692-.293L9.8,7.022Z" transform="translate(3.703 2.708)" fill="#fff"/>
  </g>
</svg>
