<svg id="Search_Icon" xmlns="http://www.w3.org/2000/svg" xmlns:xlink="http://www.w3.org/1999/xlink" width="16" height="16" viewBox="0 0 16 16">
  <defs>
    <clipPath id="clip-path">
      <rect id="Rectangle_47769" data-name="Rectangle 47769" width="16" height="16" fill="rgba(42,47,48,0.5)"/>
    </clipPath>
  </defs>
  <g id="Search_Icon-2" data-name="Search_Icon" clip-path="url(#clip-path)">
    <path id="design_system_icons-38" data-name="design system icons-38" d="M11.765,18.554a4.6,4.6,0,0,1,0-6.387,4.374,4.374,0,0,1,6.256,0,4.635,4.635,0,0,1,.8,5.3L21.7,20.4a1.205,1.205,0,0,1,0,1.665,1.146,1.146,0,0,1-1.631,0L17.25,19.189A4.375,4.375,0,0,1,11.765,18.554Zm5.4-.848a3.319,3.319,0,0,0,0-4.662,3.183,3.183,0,0,0-4.566,0,3.347,3.347,0,0,0,0,4.662A3.183,3.183,0,0,0,17.161,17.706Z" transform="translate(-8.253 -8.628)" fill="rgba(42,47,48,0.5)"/>
  </g>
</svg>
