<svg xmlns="http://www.w3.org/2000/svg" width="22" height="25" viewBox="0 0 22 25">
  <g id="shopping_bag-01" transform="translate(-9.027 -7.954)">
    <path id="Path_172888" data-name="Path 172888" d="M26.1,30.464H12.91a3.627,3.627,0,0,1-3.588-3.947l1.126-13.8H28.56l1.126,13.8A3.627,3.627,0,0,1,26.1,30.464Z" transform="translate(0.511 1.675)"/>
    <path id="Path_172889" data-name="Path 172889" d="M29.454,13.219H23.9V12.041A4.365,4.365,0,0,0,19.656,7.58a4.365,4.365,0,0,0-4.243,4.461v1.178H9.858L8.683,27.755a4.514,4.514,0,0,0,1.151,3.383,4.395,4.395,0,0,0,3.241,1.441H26.262A4.395,4.395,0,0,0,29.5,31.139a4.514,4.514,0,0,0,1.151-3.383ZM17.021,12.041a2.743,2.743,0,0,1,2.635-2.832,2.743,2.743,0,0,1,2.635,2.832v1.178H17.009V12.041ZM28.3,30.036a2.738,2.738,0,0,1-2.054.915H13.062a2.738,2.738,0,0,1-2.054-.915,2.855,2.855,0,0,1-.73-2.155l1.064-13.045h4.07V16.6a.8.8,0,1,0,1.608,0V14.836H22.3V16.6a.8.8,0,1,0,1.608,0V14.836h4.07l1.064,13.045A2.8,2.8,0,0,1,28.3,30.036Z" transform="translate(0.359 0.374)" fill="#fff"/>
  </g>
</svg>
